<?xml version="1.0" encoding="UTF-8"?>
<svg id="Layer_1" data-name="Layer 1" xmlns="http://www.w3.org/2000/svg" xmlns:xlink="http://www.w3.org/1999/xlink" viewBox="0 0 176.1 175.4">
  <defs>
    <style>
      .cls-1 {
        fill: url(#linear-gradient-6);
      }

      .cls-1, .cls-2, .cls-3, .cls-4, .cls-5, .cls-6, .cls-7, .cls-8, .cls-9, .cls-10, .cls-11, .cls-12, .cls-13, .cls-14, .cls-15, .cls-16, .cls-17, .cls-18, .cls-19, .cls-20, .cls-21, .cls-22, .cls-23, .cls-24, .cls-25, .cls-26, .cls-27, .cls-28, .cls-29, .cls-30, .cls-31, .cls-32, .cls-33, .cls-34, .cls-35, .cls-36, .cls-37, .cls-38, .cls-39, .cls-40, .cls-41, .cls-42, .cls-43, .cls-44, .cls-45, .cls-46, .cls-47, .cls-48, .cls-49, .cls-50, .cls-51, .cls-52, .cls-53, .cls-54, .cls-55, .cls-56, .cls-57, .cls-58, .cls-59 {
        stroke: #2d2d73;
      }

      .cls-1, .cls-2, .cls-3, .cls-4, .cls-5, .cls-6, .cls-7, .cls-8, .cls-10, .cls-11, .cls-12, .cls-13, .cls-14, .cls-15, .cls-17, .cls-21, .cls-22, .cls-23, .cls-24, .cls-25, .cls-26, .cls-27, .cls-28, .cls-29, .cls-30, .cls-34, .cls-37, .cls-38, .cls-39, .cls-40, .cls-41, .cls-42, .cls-43, .cls-44, .cls-45, .cls-46, .cls-47, .cls-48, .cls-49, .cls-50, .cls-51, .cls-52, .cls-53, .cls-54, .cls-55, .cls-56, .cls-57, .cls-58 {
        stroke-width: .6px;
      }

      .cls-2 {
        fill: url(#linear-gradient-2);
      }

      .cls-3 {
        fill: url(#linear-gradient-9);
      }

      .cls-4 {
        fill: url(#linear-gradient-8);
      }

      .cls-5 {
        fill: url(#linear-gradient-5);
      }

      .cls-6 {
        fill: url(#linear-gradient-7);
      }

      .cls-7 {
        fill: url(#linear-gradient-4);
      }

      .cls-8 {
        fill: url(#linear-gradient-3);
      }

      .cls-9, .cls-16 {
        stroke-width: 1.3px;
      }

      .cls-9, .cls-60, .cls-19, .cls-61, .cls-62, .cls-20, .cls-63, .cls-64, .cls-31, .cls-33, .cls-65 {
        fill: none;
      }

      .cls-10 {
        fill: url(#New_Gradient_Swatch_6);
      }

      .cls-11 {
        fill: url(#New_Gradient_Swatch_7);
      }

      .cls-12 {
        fill: url(#New_Gradient_Swatch_5);
      }

      .cls-13 {
        fill: url(#New_Gradient_Swatch_10);
      }

      .cls-14 {
        fill: url(#New_Gradient_Swatch_11);
      }

      .cls-15 {
        fill: url(#New_Gradient_Swatch_12);
      }

      .cls-66 {
        fill: url(#linear-gradient-35);
      }

      .cls-66, .cls-67, .cls-68, .cls-69, .cls-70, .cls-71, .cls-72, .cls-73, .cls-74, .cls-75, .cls-76, .cls-77, .cls-78, .cls-79, .cls-80, .cls-81, .cls-82, .cls-83, .cls-84, .cls-85, .cls-86, .cls-87, .cls-88, .cls-89, .cls-90, .cls-91, .cls-92, .cls-93, .cls-19, .cls-61, .cls-62 {
        stroke-width: 1px;
      }

      .cls-66, .cls-67, .cls-68, .cls-69, .cls-70, .cls-71, .cls-72, .cls-73, .cls-74, .cls-75, .cls-76, .cls-77, .cls-78, .cls-79, .cls-80, .cls-81, .cls-82, .cls-83, .cls-84, .cls-85, .cls-86, .cls-87, .cls-88, .cls-89, .cls-90, .cls-91, .cls-92, .cls-93, .cls-61 {
        stroke: #b1792c;
      }

      .cls-67 {
        fill: url(#linear-gradient-36);
      }

      .cls-68 {
        fill: url(#linear-gradient-39);
      }

      .cls-69 {
        fill: url(#linear-gradient-34);
      }

      .cls-70 {
        fill: url(#linear-gradient-37);
      }

      .cls-71 {
        fill: url(#linear-gradient-38);
      }

      .cls-72 {
        fill: url(#linear-gradient-31);
      }

      .cls-73 {
        fill: url(#linear-gradient-33);
      }

      .cls-74 {
        fill: url(#linear-gradient-25);
      }

      .cls-75 {
        fill: url(#linear-gradient-30);
      }

      .cls-76 {
        fill: url(#linear-gradient-32);
      }

      .cls-77 {
        fill: url(#linear-gradient-29);
      }

      .cls-78 {
        fill: url(#linear-gradient-28);
      }

      .cls-79 {
        fill: url(#linear-gradient-27);
      }

      .cls-80 {
        fill: url(#linear-gradient-24);
      }

      .cls-81 {
        fill: url(#linear-gradient-26);
      }

      .cls-82 {
        fill: url(#linear-gradient-23);
      }

      .cls-83 {
        fill: url(#linear-gradient-21);
      }

      .cls-84 {
        fill: url(#linear-gradient-22);
      }

      .cls-85 {
        fill: url(#linear-gradient-20);
      }

      .cls-86 {
        fill: url(#linear-gradient-40);
      }

      .cls-87 {
        fill: url(#linear-gradient-41);
      }

      .cls-88 {
        fill: url(#linear-gradient-42);
      }

      .cls-89 {
        fill: url(#linear-gradient-43);
      }

      .cls-90 {
        fill: url(#linear-gradient-47);
      }

      .cls-91 {
        fill: url(#linear-gradient-44);
      }

      .cls-92 {
        fill: url(#linear-gradient-46);
      }

      .cls-93 {
        fill: url(#linear-gradient-45);
      }

      .cls-16, .cls-94 {
        fill: #2d2d73;
      }

      .cls-95, .cls-18, .cls-96, .cls-97, .cls-32, .cls-36, .cls-98, .cls-59 {
        fill: #fff;
      }

      .cls-99 {
        fill: #d0b52c;
      }

      .cls-60 {
        stroke-width: 16.5px;
      }

      .cls-60, .cls-96, .cls-97, .cls-64 {
        stroke: #fff;
      }

      .cls-17 {
        fill: url(#New_Gradient_Swatch_5_copy-2);
      }

      .cls-18, .cls-96 {
        stroke-width: .3px;
      }

      .cls-97, .cls-64, .cls-31, .cls-35 {
        stroke-width: .7px;
      }

      .cls-62, .cls-65 {
        stroke: #d0b52c;
      }

      .cls-20, .cls-63 {
        stroke-width: 2px;
      }

      .cls-63 {
        stroke: #e92226;
      }

      .cls-100 {
        filter: url(#drop-shadow-4);
      }

      .cls-21 {
        fill: url(#linear-gradient-18);
      }

      .cls-22 {
        fill: url(#linear-gradient-14);
      }

      .cls-23 {
        fill: url(#linear-gradient-19);
      }

      .cls-24 {
        fill: url(#linear-gradient-15);
      }

      .cls-25 {
        fill: url(#linear-gradient-12);
      }

      .cls-26 {
        fill: url(#linear-gradient-13);
      }

      .cls-27 {
        fill: url(#linear-gradient-10);
      }

      .cls-28 {
        fill: url(#linear-gradient-17);
      }

      .cls-29 {
        fill: url(#linear-gradient-16);
      }

      .cls-30 {
        fill: url(#linear-gradient-11);
      }

      .cls-32 {
        stroke-width: .1px;
      }

      .cls-33 {
        stroke-width: 3.2px;
      }

      .cls-65 {
        stroke-width: 6.6px;
      }

      .cls-34 {
        fill: url(#New_Gradient_Swatch_5_copy);
      }

      .cls-35 {
        fill: url(#New_Gradient_Swatch_5-10);
      }

      .cls-36 {
        stroke-width: 0px;
      }

      .cls-37 {
        fill: url(#New_Gradient_Swatch_7-10);
      }

      .cls-38 {
        fill: url(#New_Gradient_Swatch_7-6);
      }

      .cls-39 {
        fill: url(#New_Gradient_Swatch_7-7);
      }

      .cls-40 {
        fill: url(#New_Gradient_Swatch_7-2);
      }

      .cls-41 {
        fill: url(#New_Gradient_Swatch_7-3);
      }

      .cls-42 {
        fill: url(#New_Gradient_Swatch_7-8);
      }

      .cls-43 {
        fill: url(#New_Gradient_Swatch_7-4);
      }

      .cls-44 {
        fill: url(#New_Gradient_Swatch_7-9);
      }

      .cls-45 {
        fill: url(#New_Gradient_Swatch_7-5);
      }

      .cls-46 {
        fill: url(#New_Gradient_Swatch_6-5);
      }

      .cls-47 {
        fill: url(#New_Gradient_Swatch_6-2);
      }

      .cls-48 {
        fill: url(#New_Gradient_Swatch_6-3);
      }

      .cls-49 {
        fill: url(#New_Gradient_Swatch_6-4);
      }

      .cls-50 {
        fill: url(#New_Gradient_Swatch_5-5);
      }

      .cls-51 {
        fill: url(#New_Gradient_Swatch_5-4);
      }

      .cls-52 {
        fill: url(#New_Gradient_Swatch_5-2);
      }

      .cls-53 {
        fill: url(#New_Gradient_Swatch_5-3);
      }

      .cls-54 {
        fill: url(#New_Gradient_Swatch_5-7);
      }

      .cls-55 {
        fill: url(#New_Gradient_Swatch_5-6);
      }

      .cls-56 {
        fill: url(#New_Gradient_Swatch_5-8);
      }

      .cls-57 {
        fill: url(#New_Gradient_Swatch_5-9);
      }

      .cls-58 {
        fill: url(#linear-gradient);
      }

      .cls-98 {
        stroke: #000;
      }

      .cls-98, .cls-59 {
        stroke-width: .2px;
      }
    </style>
    <filter id="drop-shadow-4" filterUnits="userSpaceOnUse">
      <feOffset dx="1" dy="1"/>
      <feGaussianBlur result="blur" stdDeviation="1"/>
      <feFlood flood-color="#231f20" flood-opacity=".4"/>
      <feComposite in2="blur" operator="in"/>
      <feComposite in="SourceGraphic"/>
    </filter>
    <linearGradient id="New_Gradient_Swatch_6" data-name="New Gradient Swatch 6" x1="-3759.8" y1="-3825.6" x2="-3748.9" y2="-3814.7" gradientTransform="translate(4268 4286.8) scale(1.1)" gradientUnits="userSpaceOnUse">
      <stop offset=".4" stop-color="#e7d91d"/>
      <stop offset=".4" stop-color="#e7da23"/>
      <stop offset=".5" stop-color="#eee565"/>
      <stop offset=".5" stop-color="#f4ee9c"/>
      <stop offset=".5" stop-color="#f9f5c6"/>
      <stop offset=".5" stop-color="#fcfae5"/>
      <stop offset=".5" stop-color="#fefdf8"/>
      <stop offset=".5" stop-color="#fff"/>
      <stop offset=".5" stop-color="#f0e9cf"/>
      <stop offset=".6" stop-color="#dfcf96"/>
      <stop offset=".6" stop-color="#d2ba69"/>
      <stop offset=".6" stop-color="#c8ac49"/>
      <stop offset=".6" stop-color="#c3a336"/>
      <stop offset=".6" stop-color="#c1a02f"/>
    </linearGradient>
    <linearGradient id="linear-gradient" x1="605.6" y1="-56.6" x2="608.4" y2="-52.6" gradientTransform="translate(-491.6 122.4)" gradientUnits="userSpaceOnUse">
      <stop offset=".2" stop-color="#e7d91d"/>
      <stop offset=".3" stop-color="#fff"/>
      <stop offset=".4" stop-color="#c1a02f"/>
    </linearGradient>
    <linearGradient id="linear-gradient-2" x1="608.6" y1="-49.2" x2="610.5" y2="-44.6" gradientTransform="translate(-491.6 122.4)" gradientUnits="userSpaceOnUse">
      <stop offset=".5" stop-color="#e7d91d"/>
      <stop offset=".6" stop-color="#fff"/>
      <stop offset=".7" stop-color="#c1a02f"/>
    </linearGradient>
    <linearGradient id="New_Gradient_Swatch_7" data-name="New Gradient Swatch 7" x1="610.6" y1="-45.5" x2="611.9" y2="-41" gradientTransform="translate(-491.6 122.4)" gradientUnits="userSpaceOnUse">
      <stop offset=".4" stop-color="#e7d91d"/>
      <stop offset=".4" stop-color="#e7da23"/>
      <stop offset=".5" stop-color="#eee565"/>
      <stop offset=".5" stop-color="#f4ee9c"/>
      <stop offset=".5" stop-color="#f9f5c6"/>
      <stop offset=".5" stop-color="#fcfae5"/>
      <stop offset=".5" stop-color="#fefdf8"/>
      <stop offset=".5" stop-color="#fff"/>
      <stop offset=".5" stop-color="#fdfbf8"/>
      <stop offset=".6" stop-color="#f7f3e5"/>
      <stop offset=".6" stop-color="#eee5c6"/>
      <stop offset=".6" stop-color="#e1d19c"/>
      <stop offset=".6" stop-color="#d1b966"/>
      <stop offset=".6" stop-color="#c1a02f"/>
    </linearGradient>
    <linearGradient id="linear-gradient-3" x1="614.4" y1="-43.6" x2="615" y2="-38.9" gradientTransform="translate(-491.6 122.4)" gradientUnits="userSpaceOnUse">
      <stop offset=".6" stop-color="#e7d91d"/>
      <stop offset=".7" stop-color="#fff"/>
      <stop offset=".7" stop-color="#f9f7ed"/>
      <stop offset=".7" stop-color="#d1b865"/>
      <stop offset=".8" stop-color="#c1a02f"/>
    </linearGradient>
    <linearGradient id="New_Gradient_Swatch_5" data-name="New Gradient Swatch 5" x1="606.7" y1="-51.5" x2="608.6" y2="-48.2" gradientTransform="translate(-491.6 122.4)" gradientUnits="userSpaceOnUse">
      <stop offset=".4" stop-color="#e7d91d"/>
      <stop offset=".5" stop-color="#fff"/>
      <stop offset=".6" stop-color="#c1a02f"/>
    </linearGradient>
    <linearGradient id="linear-gradient-4" x1="623.8" y1="-42.5" x2="623.8" y2="-24.8" gradientTransform="translate(-491.6 121.4)" gradientUnits="userSpaceOnUse">
      <stop offset=".4" stop-color="#e7d91d"/>
      <stop offset=".4" stop-color="#e7da23"/>
      <stop offset=".5" stop-color="#eee565"/>
      <stop offset=".5" stop-color="#f4ee9c"/>
      <stop offset=".5" stop-color="#f9f5c6"/>
      <stop offset=".5" stop-color="#fcfae5"/>
      <stop offset=".5" stop-color="#fefdf8"/>
      <stop offset=".5" stop-color="#fff"/>
      <stop offset=".5" stop-color="#f0e9cf"/>
      <stop offset=".6" stop-color="#dfcf96"/>
      <stop offset=".6" stop-color="#d2ba69"/>
      <stop offset=".6" stop-color="#c8ac49"/>
      <stop offset=".6" stop-color="#c3a336"/>
      <stop offset=".6" stop-color="#c1a02f"/>
    </linearGradient>
    <linearGradient id="linear-gradient-5" x1="609.1" y1="-16.5" x2="606.4" y2="-12.7" gradientTransform="translate(-491.6 121.4)" gradientUnits="userSpaceOnUse">
      <stop offset=".6" stop-color="#e7d91d"/>
      <stop offset=".6" stop-color="#e7da23"/>
      <stop offset=".7" stop-color="#eee565"/>
      <stop offset=".7" stop-color="#f4ee9c"/>
      <stop offset=".7" stop-color="#f9f5c6"/>
      <stop offset=".7" stop-color="#fcfae5"/>
      <stop offset=".8" stop-color="#fefdf8"/>
      <stop offset=".8" stop-color="#fff"/>
      <stop offset=".8" stop-color="#fdfbf8"/>
      <stop offset=".8" stop-color="#f7f3e5"/>
      <stop offset=".8" stop-color="#eee5c6"/>
      <stop offset=".8" stop-color="#e1d19c"/>
      <stop offset=".9" stop-color="#d1b966"/>
      <stop offset=".9" stop-color="#c1a02f"/>
    </linearGradient>
    <linearGradient id="New_Gradient_Swatch_7-2" data-name="New Gradient Swatch 7" x1="611" y1="-24.9" x2="609.1" y2="-20.3" gradientTransform="translate(-491.6 121.4)" xlink:href="#New_Gradient_Swatch_7"/>
    <linearGradient id="New_Gradient_Swatch_5-2" data-name="New Gradient Swatch 5" x1="611.9" y1="-26.9" x2="611" y2="-22.9" gradientTransform="translate(-491.6 121.4)" xlink:href="#New_Gradient_Swatch_5"/>
    <linearGradient id="New_Gradient_Swatch_12" data-name="New Gradient Swatch 12" x1="615.7" y1="-31.1" x2="614.9" y2="-26.2" gradientTransform="translate(-491.6 121.4)" gradientUnits="userSpaceOnUse">
      <stop offset=".5" stop-color="#e7d91d"/>
      <stop offset=".6" stop-color="#fff"/>
      <stop offset=".7" stop-color="#c1a02f"/>
    </linearGradient>
    <linearGradient id="New_Gradient_Swatch_7-3" data-name="New Gradient Swatch 7" x1="609.1" y1="-20.9" x2="606.6" y2="-16.2" gradientTransform="translate(-491.6 121.4)" xlink:href="#New_Gradient_Swatch_7"/>
    <linearGradient id="linear-gradient-6" x1="644.5" y1="-85" x2="661" y2="-85" gradientTransform="translate(-564.4 129)" gradientUnits="userSpaceOnUse">
      <stop offset=".4" stop-color="#e7d91d"/>
      <stop offset=".4" stop-color="#ece14e"/>
      <stop offset=".4" stop-color="#f0e979"/>
      <stop offset=".4" stop-color="#f4ee97"/>
      <stop offset=".4" stop-color="#f6f1aa"/>
      <stop offset=".4" stop-color="#f7f3b1"/>
      <stop offset=".5" stop-color="#fff"/>
      <stop offset=".5" stop-color="#fdfbf8"/>
      <stop offset=".5" stop-color="#f7f3e5"/>
      <stop offset=".5" stop-color="#eee5c6"/>
      <stop offset=".5" stop-color="#e1d19c"/>
      <stop offset=".5" stop-color="#d1b966"/>
      <stop offset=".6" stop-color="#c1a02f"/>
    </linearGradient>
    <linearGradient id="linear-gradient-7" x1="596.6" y1="-64.8" x2="600.4" y2="-61.7" gradientTransform="translate(-491.8 122.2)" gradientUnits="userSpaceOnUse">
      <stop offset=".6" stop-color="#e7d91d"/>
      <stop offset=".6" stop-color="#e7da23"/>
      <stop offset=".6" stop-color="#eee565"/>
      <stop offset=".6" stop-color="#f4ee9c"/>
      <stop offset=".6" stop-color="#f9f5c6"/>
      <stop offset=".7" stop-color="#fcfae5"/>
      <stop offset=".7" stop-color="#fefdf8"/>
      <stop offset=".7" stop-color="#fff"/>
      <stop offset=".7" stop-color="#fdfbf8"/>
      <stop offset=".7" stop-color="#f7f3e5"/>
      <stop offset=".7" stop-color="#eee5c6"/>
      <stop offset=".8" stop-color="#e1d19c"/>
      <stop offset=".8" stop-color="#d1b966"/>
      <stop offset=".8" stop-color="#c1a02f"/>
    </linearGradient>
    <linearGradient id="New_Gradient_Swatch_5_copy" data-name="New Gradient Swatch 5 copy" x1="589.4" y1="-65.2" x2="594.9" y2="-63" gradientTransform="translate(-491.6 122.4)" gradientUnits="userSpaceOnUse">
      <stop offset=".4" stop-color="#e7d91d"/>
      <stop offset=".5" stop-color="#fff"/>
      <stop offset=".6" stop-color="#c1a02f"/>
    </linearGradient>
    <linearGradient id="linear-gradient-8" x1="586.3" y1="-66.4" x2="591.6" y2="-65.1" gradientTransform="translate(-491.6 122.4)" gradientUnits="userSpaceOnUse">
      <stop offset=".4" stop-color="#e7d91d"/>
      <stop offset=".5" stop-color="#eade40"/>
      <stop offset=".5" stop-color="#f4ee9b"/>
      <stop offset=".5" stop-color="#fff"/>
      <stop offset=".5" stop-color="#faf8f0"/>
      <stop offset=".6" stop-color="#efe6c9"/>
      <stop offset=".6" stop-color="#dcca8b"/>
      <stop offset=".6" stop-color="#c3a336"/>
      <stop offset=".6" stop-color="#c1a02f"/>
    </linearGradient>
    <linearGradient id="linear-gradient-9" x1="583.2" y1="-69.9" x2="587.9" y2="-69.2" gradientTransform="translate(-491.6 122.4)" gradientUnits="userSpaceOnUse">
      <stop offset=".2" stop-color="#e7d91d"/>
      <stop offset=".2" stop-color="#e7da23"/>
      <stop offset=".3" stop-color="#eee565"/>
      <stop offset=".3" stop-color="#f4ee9c"/>
      <stop offset=".3" stop-color="#f9f5c6"/>
      <stop offset=".3" stop-color="#fcfae5"/>
      <stop offset=".3" stop-color="#fefdf8"/>
      <stop offset=".3" stop-color="#fff"/>
      <stop offset=".3" stop-color="#f9f7ed"/>
      <stop offset=".4" stop-color="#d1b865"/>
      <stop offset=".5" stop-color="#c1a02f"/>
    </linearGradient>
    <linearGradient id="linear-gradient-10" x1="593.8" y1="-63.2" x2="597.4" y2="-61.2" gradientTransform="translate(-491.6 122.4)" gradientUnits="userSpaceOnUse">
      <stop offset=".5" stop-color="#e7d91d"/>
      <stop offset=".5" stop-color="#e7da23"/>
      <stop offset=".5" stop-color="#eee565"/>
      <stop offset=".5" stop-color="#f4ee9c"/>
      <stop offset=".6" stop-color="#f9f5c6"/>
      <stop offset=".6" stop-color="#fcfae5"/>
      <stop offset=".6" stop-color="#fefdf8"/>
      <stop offset=".6" stop-color="#fff"/>
      <stop offset=".6" stop-color="#fdfbf8"/>
      <stop offset=".6" stop-color="#f7f3e5"/>
      <stop offset=".6" stop-color="#eee5c6"/>
      <stop offset=".6" stop-color="#e1d19c"/>
      <stop offset=".7" stop-color="#d1b966"/>
      <stop offset=".7" stop-color="#c1a02f"/>
    </linearGradient>
    <linearGradient id="New_Gradient_Swatch_6-2" data-name="New Gradient Swatch 6" x1="-3819.4" y1="-3786.9" x2="-3819.4" y2="-3803.1" gradientTransform="translate(4268.7 4285.4) scale(1.1)" xlink:href="#New_Gradient_Swatch_6"/>
    <linearGradient id="linear-gradient-11" x1="55.9" y1="72.3" x2="60.3" y2="66.8" gradientUnits="userSpaceOnUse">
      <stop offset=".6" stop-color="#e7d91d"/>
      <stop offset=".6" stop-color="#e7da23"/>
      <stop offset=".6" stop-color="#eee565"/>
      <stop offset=".6" stop-color="#f4ee9c"/>
      <stop offset=".6" stop-color="#f9f5c6"/>
      <stop offset=".6" stop-color="#fcfae5"/>
      <stop offset=".6" stop-color="#fefdf8"/>
      <stop offset=".7" stop-color="#fff"/>
      <stop offset=".7" stop-color="#fdfbf8"/>
      <stop offset=".7" stop-color="#f7f3e5"/>
      <stop offset=".7" stop-color="#eee5c6"/>
      <stop offset=".7" stop-color="#e1d19c"/>
      <stop offset=".7" stop-color="#d1b966"/>
      <stop offset=".7" stop-color="#c1a02f"/>
    </linearGradient>
    <linearGradient id="New_Gradient_Swatch_7-4" data-name="New Gradient Swatch 7" x1="548" y1="-44.3" x2="550" y2="-49" xlink:href="#New_Gradient_Swatch_7"/>
    <linearGradient id="New_Gradient_Swatch_5-3" data-name="New Gradient Swatch 5" x1="546.9" y1="-41.6" x2="547.9" y2="-45.4" xlink:href="#New_Gradient_Swatch_5"/>
    <linearGradient id="linear-gradient-12" x1="51.9" y1="84" x2="53" y2="77.8" gradientUnits="userSpaceOnUse">
      <stop offset="0" stop-color="#e7d91d"/>
      <stop offset="0" stop-color="#e7da23"/>
      <stop offset="0" stop-color="#eee565"/>
      <stop offset="0" stop-color="#f4ee9c"/>
      <stop offset=".1" stop-color="#f9f5c6"/>
      <stop offset=".1" stop-color="#fcfae5"/>
      <stop offset=".1" stop-color="#fefdf8"/>
      <stop offset=".2" stop-color="#fff"/>
      <stop offset=".2" stop-color="#f9f7ed"/>
      <stop offset=".2" stop-color="#d1b865"/>
      <stop offset=".3" stop-color="#c1a02f"/>
    </linearGradient>
    <linearGradient id="New_Gradient_Swatch_7-5" data-name="New Gradient Swatch 7" x1="549.7" y1="-48" x2="552.1" y2="-52.5" xlink:href="#New_Gradient_Swatch_7"/>
    <linearGradient id="New_Gradient_Swatch_11" data-name="New Gradient Swatch 11" x1="-3749.1" y1="-3773.6" x2="-3760.1" y2="-3762.6" gradientTransform="translate(4268 4282.1) scale(1.1)" gradientUnits="userSpaceOnUse">
      <stop offset=".4" stop-color="#e7d91d"/>
      <stop offset=".4" stop-color="#e7da23"/>
      <stop offset=".4" stop-color="#eee565"/>
      <stop offset=".5" stop-color="#f4ee9c"/>
      <stop offset=".5" stop-color="#f9f5c6"/>
      <stop offset=".5" stop-color="#fcfae5"/>
      <stop offset=".5" stop-color="#fefdf8"/>
      <stop offset=".5" stop-color="#fff"/>
      <stop offset=".5" stop-color="#f0e9cf"/>
      <stop offset=".5" stop-color="#dfcf96"/>
      <stop offset=".5" stop-color="#d2ba69"/>
      <stop offset=".6" stop-color="#c8ac49"/>
      <stop offset=".6" stop-color="#c3a336"/>
      <stop offset=".6" stop-color="#c1a02f"/>
    </linearGradient>
    <linearGradient id="linear-gradient-13" x1="600" y1="-7.1" x2="597.2" y2="-4.8" gradientTransform="translate(-491.6 122.4)" gradientUnits="userSpaceOnUse">
      <stop offset="0" stop-color="#e7d91d"/>
      <stop offset=".1" stop-color="#e7da23"/>
      <stop offset=".1" stop-color="#eee565"/>
      <stop offset=".1" stop-color="#f4ee9c"/>
      <stop offset=".2" stop-color="#f9f5c6"/>
      <stop offset=".2" stop-color="#fcfae5"/>
      <stop offset=".2" stop-color="#fefdf8"/>
      <stop offset=".2" stop-color="#fff"/>
      <stop offset=".2" stop-color="#fdfbf8"/>
      <stop offset=".2" stop-color="#f7f3e5"/>
      <stop offset=".3" stop-color="#eee5c6"/>
      <stop offset=".3" stop-color="#e1d19c"/>
      <stop offset=".3" stop-color="#d1b966"/>
      <stop offset=".3" stop-color="#c1a02f"/>
    </linearGradient>
    <linearGradient id="New_Gradient_Swatch_5-4" data-name="New Gradient Swatch 5" x1="595.3" y1="-5.7" x2="590.5" y2="-3.9" xlink:href="#New_Gradient_Swatch_5"/>
    <linearGradient id="New_Gradient_Swatch_7-6" data-name="New Gradient Swatch 7" x1="590.9" y1="-3.4" x2="586.6" y2="-2.2" xlink:href="#New_Gradient_Swatch_7"/>
    <linearGradient id="linear-gradient-14" x1="589" y1=".3" x2="583.5" y2="1.1" gradientTransform="translate(-491.6 122.4)" gradientUnits="userSpaceOnUse">
      <stop offset=".5" stop-color="#e7d91d"/>
      <stop offset=".5" stop-color="#e7da23"/>
      <stop offset=".5" stop-color="#eee565"/>
      <stop offset=".6" stop-color="#f4ee9c"/>
      <stop offset=".6" stop-color="#f9f5c6"/>
      <stop offset=".6" stop-color="#fcfae5"/>
      <stop offset=".6" stop-color="#fefdf8"/>
      <stop offset=".6" stop-color="#fff"/>
      <stop offset=".6" stop-color="#fdfbf8"/>
      <stop offset=".7" stop-color="#f7f3e5"/>
      <stop offset=".7" stop-color="#eee5c6"/>
      <stop offset=".7" stop-color="#e1d19c"/>
      <stop offset=".7" stop-color="#d1b966"/>
      <stop offset=".7" stop-color="#c1a02f"/>
    </linearGradient>
    <linearGradient id="New_Gradient_Swatch_5-5" data-name="New Gradient Swatch 5" x1="598.1" y1="-8.1" x2="594.6" y2="-6.2" xlink:href="#New_Gradient_Swatch_5"/>
    <linearGradient id="New_Gradient_Swatch_6-3" data-name="New Gradient Swatch 6" x1="-3771.5" y1="-3754.9" x2="-3787" y2="-3755.1" gradientTransform="translate(4269 4284.8) scale(1.1)" xlink:href="#New_Gradient_Swatch_6"/>
    <linearGradient id="New_Gradient_Swatch_10" data-name="New Gradient Swatch 10" x1="71.8" y1="118.2" x2="67.1" y2="114.5" gradientUnits="userSpaceOnUse">
      <stop offset=".5" stop-color="#e7d91d"/>
      <stop offset=".5" stop-color="#e7da23"/>
      <stop offset=".5" stop-color="#eee565"/>
      <stop offset=".5" stop-color="#f4ee9c"/>
      <stop offset=".5" stop-color="#f9f5c6"/>
      <stop offset=".6" stop-color="#fcfae5"/>
      <stop offset=".6" stop-color="#fefdf8"/>
      <stop offset=".6" stop-color="#fff"/>
      <stop offset=".6" stop-color="#fdfbf8"/>
      <stop offset=".6" stop-color="#f7f3e5"/>
      <stop offset=".6" stop-color="#eee5c6"/>
      <stop offset=".6" stop-color="#e1d19c"/>
      <stop offset=".7" stop-color="#d1b966"/>
      <stop offset=".7" stop-color="#c1a02f"/>
    </linearGradient>
    <linearGradient id="New_Gradient_Swatch_7-7" data-name="New Gradient Swatch 7" x1="569.9" y1="-4" x2="564.6" y2="-5.9" xlink:href="#New_Gradient_Swatch_7"/>
    <linearGradient id="New_Gradient_Swatch_7-8" data-name="New Gradient Swatch 7" x1="573.5" y1="-2.4" x2="568.9" y2="-3.7" xlink:href="#New_Gradient_Swatch_7"/>
    <linearGradient id="linear-gradient-15" x1="84.9" y1="123.2" x2="79.5" y2="122.4" gradientUnits="userSpaceOnUse">
      <stop offset=".2" stop-color="#e7d91d"/>
      <stop offset=".4" stop-color="#fff"/>
      <stop offset=".5" stop-color="#c1a02f"/>
    </linearGradient>
    <linearGradient id="New_Gradient_Swatch_7-9" data-name="New Gradient Swatch 7" x1="566.9" y1="-5.2" x2="562" y2="-7.9" xlink:href="#New_Gradient_Swatch_7"/>
    <linearGradient id="New_Gradient_Swatch_6-4" data-name="New Gradient Swatch 6" x1="-3799.6" y1="-3764.4" x2="-3810.6" y2="-3775.4" gradientTransform="translate(4270 4284.8) scale(1.1)" xlink:href="#New_Gradient_Swatch_6"/>
    <linearGradient id="linear-gradient-16" x1="553" y1="-12.6" x2="549.9" y2="-16.9" gradientTransform="translate(-491.6 122.4)" gradientUnits="userSpaceOnUse">
      <stop offset=".2" stop-color="#e7d91d"/>
      <stop offset=".2" stop-color="#e7da23"/>
      <stop offset=".2" stop-color="#eee565"/>
      <stop offset=".2" stop-color="#f4ee9c"/>
      <stop offset=".3" stop-color="#f9f5c6"/>
      <stop offset=".3" stop-color="#fcfae5"/>
      <stop offset=".3" stop-color="#fefdf8"/>
      <stop offset=".3" stop-color="#fff"/>
      <stop offset=".3" stop-color="#f9f7ed"/>
      <stop offset=".4" stop-color="#d1b865"/>
      <stop offset=".4" stop-color="#c1a02f"/>
    </linearGradient>
    <linearGradient id="New_Gradient_Swatch_5-6" data-name="New Gradient Swatch 5" x1="-3755.1" y1="-3155.9" x2="-3749.7" y2="-3153.9" gradientTransform="translate(-229.2 -5331.9) rotate(-133) scale(1.1)" xlink:href="#New_Gradient_Swatch_5"/>
    <linearGradient id="New_Gradient_Swatch_7-10" data-name="New Gradient Swatch 7" x1="548.4" y1="-23.6" x2="547.1" y2="-28.1" xlink:href="#New_Gradient_Swatch_7"/>
    <linearGradient id="linear-gradient-17" x1="544.6" y1="-26.3" x2="543.9" y2="-30.6" gradientTransform="translate(-491.6 122.4)" gradientUnits="userSpaceOnUse">
      <stop offset=".5" stop-color="#e7d91d"/>
      <stop offset=".5" stop-color="#e7da23"/>
      <stop offset=".5" stop-color="#eee565"/>
      <stop offset=".6" stop-color="#f4ee9c"/>
      <stop offset=".6" stop-color="#f9f5c6"/>
      <stop offset=".6" stop-color="#fcfae5"/>
      <stop offset=".6" stop-color="#fefdf8"/>
      <stop offset=".6" stop-color="#fff"/>
      <stop offset=".7" stop-color="#f9f7ed"/>
      <stop offset=".8" stop-color="#d1b865"/>
      <stop offset=".8" stop-color="#c1a02f"/>
    </linearGradient>
    <linearGradient id="New_Gradient_Swatch_5-7" data-name="New Gradient Swatch 5" x1="552.4" y1="-17.1" x2="549.7" y2="-21.6" xlink:href="#New_Gradient_Swatch_5"/>
    <linearGradient id="New_Gradient_Swatch_6-5" data-name="New Gradient Swatch 6" x1="-3809.2" y1="-3814.2" x2="-3798.1" y2="-3825.1" gradientTransform="translate(4267.7 4285.9) scale(1.1)" xlink:href="#New_Gradient_Swatch_6"/>
    <linearGradient id="linear-gradient-18" x1="558.4" y1="-61.3" x2="562" y2="-64" gradientTransform="translate(-491.6 122.4)" gradientUnits="userSpaceOnUse">
      <stop offset=".2" stop-color="#e7d91d"/>
      <stop offset=".2" stop-color="#e7da23"/>
      <stop offset=".2" stop-color="#eee565"/>
      <stop offset=".2" stop-color="#f4ee9c"/>
      <stop offset=".3" stop-color="#f9f5c6"/>
      <stop offset=".3" stop-color="#fcfae5"/>
      <stop offset=".3" stop-color="#fefdf8"/>
      <stop offset=".3" stop-color="#fff"/>
      <stop offset=".3" stop-color="#fdfbf8"/>
      <stop offset=".3" stop-color="#f7f3e5"/>
      <stop offset=".3" stop-color="#eee5c6"/>
      <stop offset=".4" stop-color="#e1d19c"/>
      <stop offset=".4" stop-color="#d1b966"/>
      <stop offset=".4" stop-color="#c1a02f"/>
    </linearGradient>
    <linearGradient id="New_Gradient_Swatch_5-8" data-name="New Gradient Swatch 5" x1="-3580.2" y1="-3638.2" x2="-3574.8" y2="-3636.1" gradientTransform="translate(5730.4 297.8) rotate(-43) scale(1.1)" xlink:href="#New_Gradient_Swatch_5"/>
    <linearGradient id="linear-gradient-19" x1="569.5" y1="-69.1" x2="575.3" y2="-69.8" gradientTransform="translate(-491.6 122.4)" gradientUnits="userSpaceOnUse">
      <stop offset=".5" stop-color="#e7d91d"/>
      <stop offset=".5" stop-color="#e7da23"/>
      <stop offset=".5" stop-color="#eee565"/>
      <stop offset=".6" stop-color="#f4ee9c"/>
      <stop offset=".6" stop-color="#f9f5c6"/>
      <stop offset=".6" stop-color="#fcfae5"/>
      <stop offset=".6" stop-color="#fefdf8"/>
      <stop offset=".6" stop-color="#fff"/>
      <stop offset=".6" stop-color="#fdfbf8"/>
      <stop offset=".7" stop-color="#f7f3e5"/>
      <stop offset=".7" stop-color="#eee5c6"/>
      <stop offset=".7" stop-color="#e1d19c"/>
      <stop offset=".7" stop-color="#d1b966"/>
      <stop offset=".7" stop-color="#c1a02f"/>
    </linearGradient>
    <linearGradient id="New_Gradient_Swatch_5-9" data-name="New Gradient Swatch 5" x1="562.3" y1="-61.5" x2="566.6" y2="-64" xlink:href="#New_Gradient_Swatch_5"/>
    <linearGradient id="New_Gradient_Swatch_5_copy-2" data-name="New Gradient Swatch 5 copy" x1="569" y1="-65.5" x2="573.5" y2="-66.8" xlink:href="#New_Gradient_Swatch_5_copy"/>
    <linearGradient id="New_Gradient_Swatch_5-10" data-name="New Gradient Swatch 5" x1="25.1" y1="61.9" x2="124.1" y2="31.3" gradientTransform="translate(8.3 41.3) scale(1)" xlink:href="#New_Gradient_Swatch_5"/>
    <linearGradient id="linear-gradient-20" x1="-209.4" y1="-85.6" x2="-202" y2="-78.2" gradientTransform="translate(298.2 201.2) scale(1)" gradientUnits="userSpaceOnUse">
      <stop offset="0" stop-color="#fff"/>
      <stop offset=".2" stop-color="#e7d91d"/>
      <stop offset=".7" stop-color="#c1a02f"/>
    </linearGradient>
    <linearGradient id="linear-gradient-21" x1="-204.2" y1="-81.2" x2="-209.3" y2="-89.9" xlink:href="#linear-gradient-20"/>
    <linearGradient id="linear-gradient-22" x1="-382.4" y1="-115" x2="-375" y2="-107.6" gradientTransform="translate(372.8 377.2) rotate(24.9) scale(1)" xlink:href="#linear-gradient-20"/>
    <linearGradient id="linear-gradient-23" x1="-377.3" y1="-110.5" x2="-382.3" y2="-119.2" gradientTransform="translate(372.8 377.2) rotate(24.9) scale(1)" xlink:href="#linear-gradient-20"/>
    <linearGradient id="linear-gradient-24" x1="-560.7" y1="-63.2" x2="-553.3" y2="-55.8" gradientTransform="translate(365.1 577.9) rotate(51.2) scale(1)" xlink:href="#linear-gradient-20"/>
    <linearGradient id="linear-gradient-25" x1="-555.6" y1="-58.7" x2="-560.6" y2="-67.5" gradientTransform="translate(365.1 577.9) rotate(51.2) scale(1)" xlink:href="#linear-gradient-20"/>
    <linearGradient id="linear-gradient-26" x1="-693.1" y1="54.9" x2="-685.8" y2="62.3" gradientTransform="translate(273 748.8) rotate(76.4) scale(1)" xlink:href="#linear-gradient-20"/>
    <linearGradient id="linear-gradient-27" x1="-688" y1="59.4" x2="-693" y2="50.7" gradientTransform="translate(273 748.8) rotate(76.4) scale(1)" xlink:href="#linear-gradient-20"/>
    <linearGradient id="linear-gradient-28" x1="-765.2" y1="231.3" x2="-757.8" y2="238.7" gradientTransform="translate(106.2 870.6) rotate(103.3) scale(1)" xlink:href="#linear-gradient-20"/>
    <linearGradient id="linear-gradient-29" x1="-760" y1="235.8" x2="-765" y2="227" gradientTransform="translate(106.2 870.6) rotate(103.3) scale(1)" xlink:href="#linear-gradient-20"/>
    <linearGradient id="linear-gradient-30" x1="-752.9" y1="409.2" x2="-745.5" y2="416.5" gradientTransform="translate(-84 903.4) rotate(128.5) scale(1)" xlink:href="#linear-gradient-20"/>
    <linearGradient id="linear-gradient-31" x1="-747.7" y1="413.6" x2="-752.7" y2="404.8" gradientTransform="translate(-84 903.4) rotate(128.5) scale(1)" xlink:href="#linear-gradient-20"/>
    <linearGradient id="linear-gradient-32" x1="-668" y1="561.6" x2="-660.6" y2="568.9" gradientTransform="translate(-267.5 852.5) rotate(153.3) scale(1)" xlink:href="#linear-gradient-20"/>
    <linearGradient id="linear-gradient-33" x1="-662.8" y1="566" x2="-667.9" y2="557.3" gradientTransform="translate(-267.5 852.5) rotate(153.3) scale(1)" xlink:href="#linear-gradient-20"/>
    <linearGradient id="linear-gradient-34" x1="-516.2" y1="670.2" x2="-508.8" y2="677.6" gradientTransform="translate(-422.1 720.2) rotate(179.8) scale(1)" xlink:href="#linear-gradient-20"/>
    <linearGradient id="linear-gradient-35" x1="-511.1" y1="674.7" x2="-516.1" y2="665.9" gradientTransform="translate(-422.1 720.2) rotate(179.8) scale(1)" xlink:href="#linear-gradient-20"/>
    <linearGradient id="linear-gradient-36" x1="-331.3" y1="699.7" x2="-323.9" y2="707.1" gradientTransform="translate(-501.6 531.4) rotate(-153.6) scale(1)" xlink:href="#linear-gradient-20"/>
    <linearGradient id="linear-gradient-37" x1="-326.2" y1="704.1" x2="-331.2" y2="695.4" gradientTransform="translate(-501.6 531.4) rotate(-153.6) scale(1)" xlink:href="#linear-gradient-20"/>
    <linearGradient id="linear-gradient-38" x1="-154.8" y1="643.9" x2="-147.4" y2="651.3" gradientTransform="translate(-487.9 330) rotate(-127.4) scale(1)" xlink:href="#linear-gradient-20"/>
    <linearGradient id="linear-gradient-39" x1="-149.6" y1="648.4" x2="-154.7" y2="639.6" gradientTransform="translate(-487.9 330) rotate(-127.4) scale(1)" xlink:href="#linear-gradient-20"/>
    <linearGradient id="linear-gradient-40" x1="-26.6" y1="524.4" x2="-19.2" y2="531.8" gradientTransform="translate(-393.7 164.6) rotate(-102.7) scale(1)" xlink:href="#linear-gradient-20"/>
    <linearGradient id="linear-gradient-41" x1="-21.4" y1="528.9" x2="-26.5" y2="520.1" gradientTransform="translate(-393.7 164.6) rotate(-102.7) scale(1)" xlink:href="#linear-gradient-20"/>
    <linearGradient id="linear-gradient-42" x1="41.2" y1="352" x2="48.6" y2="359.4" gradientTransform="translate(-229.1 47.5) rotate(-76.3) scale(1)" xlink:href="#linear-gradient-20"/>
    <linearGradient id="linear-gradient-43" x1="46.4" y1="356.4" x2="41.4" y2="347.6" gradientTransform="translate(-229.1 47.5) rotate(-76.3) scale(1)" xlink:href="#linear-gradient-20"/>
    <linearGradient id="linear-gradient-44" x1="27.2" y1="171.5" x2="34.6" y2="178.9" gradientTransform="translate(-34.2 16.7) rotate(-50.8) scale(1)" xlink:href="#linear-gradient-20"/>
    <linearGradient id="linear-gradient-45" x1="32.3" y1="176" x2="27.3" y2="167.2" gradientTransform="translate(-34.2 16.7) rotate(-50.8) scale(1)" xlink:href="#linear-gradient-20"/>
    <linearGradient id="linear-gradient-46" x1="-61.1" y1="17.2" x2="-53.7" y2="24.6" gradientTransform="translate(151.2 70.6) rotate(-25.5) scale(1)" xlink:href="#linear-gradient-20"/>
    <linearGradient id="linear-gradient-47" x1="-55.8" y1="21.7" x2="-60.9" y2="12.9" gradientTransform="translate(151.2 70.6) rotate(-25.5) scale(1)" xlink:href="#linear-gradient-20"/>
  </defs>
  <g class="cls-100">
    <g>
      <g>
        <g>
          <path class="cls-10" d="m142.4,33.7s-3.6,1.1-6.5,1.4c-2.6.3-6,.5-6,.5-3.1,3.9-42.1,53-42.1,53l51.7-41.7s.7-8.3,2.9-13.1Z"/>
          <polygon class="cls-58" points="139.7 46.9 143.1 47.4 140.5 55.1 88 88.5 139.7 46.9"/>
          <polygon class="cls-2" points="143.3 61.7 148.4 63.8 146.1 68.4 88.1 88.5 143.3 61.7"/>
          <polygon class="cls-11" points="150.6 74.1 151.3 70.5 146.1 68.5 88.2 88.5 150.6 74.1"/>
          <polygon class="cls-8" points="157.1 79.8 158.6 77.2 150.7 74.2 88.2 88.5 157.1 79.8"/>
          <polygon class="cls-12" points="140.6 55.1 144.3 56.6 143.1 61.6 88 88.6 140.6 55.1"/>
        </g>
        <g>
          <path class="cls-7" d="m176,87.9s-6.9,1.1-11.3,3.4c-3.3,1.7-7.4,4.1-7.4,4.1-8.3-.9-68.8-7.7-68.8-7.7l68.4-7.9s4.7,5.2,19.2,8.1Z"/>
          <polygon class="cls-5" points="140.1 128 143.6 127.5 140.9 119.8 88.5 86.4 140.1 128"/>
          <polygon class="cls-40" points="143.7 113.2 148.5 111.1 146.5 106.3 88.5 86.4 143.7 113.2"/>
          <polygon class="cls-52" points="150.7 101 151.5 104.7 146.6 106.2 88.6 86.4 150.7 101"/>
          <polygon class="cls-15" points="157.1 95.4 158.8 99.1 150.7 100.9 88.6 86.4 157.1 95.4"/>
          <polygon class="cls-41" points="141 119.8 144.7 118.2 143.5 113.2 88.4 86.3 141 119.8"/>
        </g>
        <g>
          <g>
            <path class="cls-1" d="m88.4,0s-1.4,7-3.8,11.4c-1.7,3.3-4.3,7.3-4.3,7.3.9,8.3,7.8,69.3,7.8,69.3l8.2-69.1s-5.1-4.4-7.9-18.9Z"/>
            <polygon class="cls-6" points="129.9 35.6 129.1 33.1 121.2 35.6 87.9 87.8 129.9 35.6"/>
            <polygon class="cls-34" points="114.8 33 112.7 28.2 107.9 30.2 88.1 88.2 114.8 33"/>
            <polygon class="cls-4" points="102.1 25.5 106.1 24.9 107.9 30.1 88.1 88.1 102.1 25.5"/>
            <polygon class="cls-3" points="96.4 18.9 99.3 17.4 102.2 25.4 88.1 88.1 96.4 18.9"/>
            <polygon class="cls-27" points="121.3 35.7 119.9 32 114.8 33.1 88 88.3 121.3 35.7"/>
          </g>
          <g>
            <g>
              <path class="cls-47" d="m0,87.8s7,1.1,11.3,3.4c3.3,1.7,7.3,4.3,7.3,4.3,8.3-.9,69.3-7.8,69.3-7.8l-68.9-8.3S14.5,85,0,87.8Z"/>
              <polygon class="cls-30" points="35.4 46.4 32.2 46.9 34.9 54.7 87.6 87.7 35.4 46.4"/>
              <polygon class="cls-43" points="32.1 61.3 27.4 63.5 29.4 68.1 87.5 87.8 32.1 61.3"/>
              <polygon class="cls-53" points="25 73.8 24.1 70.1 29.4 68.1 87.4 87.8 25 73.8"/>
              <polygon class="cls-25" points="18.4 80 17 76.9 24.8 73.8 87.4 87.8 18.4 80"/>
              <polygon class="cls-45" points="34.8 54.7 31.1 56.3 32.4 61.2 87.6 87.9 34.8 54.7"/>
            </g>
            <g>
              <g>
                <path class="cls-14" d="m142.5,141.5s-1.6-4.2-1.9-7.1c-.3-3.3-.4-6.4-.4-6.4-3.9-3.1-52.6-41-52.6-41l41.9,52.4s8.1,0,13,2.1Z"/>
                <polygon class="cls-26" points="129.7 139.7 129.2 142.6 121.4 140 88.1 87.6 129.7 139.7"/>
                <polygon class="cls-51" points="114.8 143 112.7 147.9 108.1 145.9 88 87.9 114.8 143"/>
                <polygon class="cls-38" points="102.4 150.2 106 151.2 108 145.9 88 88 102.4 150.2"/>
                <polygon class="cls-22" points="96.1 156.7 99.3 158.4 102.4 150.6 88 88 96.1 156.7"/>
                <polygon class="cls-50" points="121.4 140.1 119.9 143.8 114.8 142.9 87.9 87.5 121.4 140.1"/>
              </g>
              <g>
                <g>
                  <path class="cls-48" d="m88.4,175.3s1.1-7,3.4-11.3c1.7-3.3,4.2-7.1,4.2-7.1-.9-8.3-7.7-69.5-7.7-69.5l-7.5,69.3s4.7,4.1,7.6,18.6Z"/>
                  <polygon class="cls-13" points="46.8 140.1 47.7 142.9 55.5 140.2 88.5 87.6 46.8 140.1"/>
                  <polygon class="cls-39" points="62 143 64.2 147.7 68.8 145.8 88.5 87.7 62 143"/>
                  <polygon class="cls-42" points="74.5 150 70.9 151 68.9 145.7 88.5 87.7 74.5 150"/>
                  <polygon class="cls-24" points="80.7 156.7 77.7 158.2 74.6 150.4 88.5 87.7 80.7 156.7"/>
                  <polygon class="cls-44" points="55.5 140.3 57 144 62 142.8 88.6 87.5 55.5 140.3"/>
                </g>
                <g>
                  <path class="cls-49" d="m33.9,142.4s3.6-1.5,6.7-2c3.3-.5,6.3-.6,6.3-.6,3.1-3.9,41.5-52.3,41.5-52.3l-52.3,41.8s-.1,8.2-2.3,13.1Z"/>
                  <polygon class="cls-29" points="36.1 129.2 32.7 128.7 35.4 121 88 87.9 36.1 129.2"/>
                  <polygon class="cls-55" points="32.8 114.4 27.8 112.2 29.8 107.6 87.9 87.9 32.8 114.4"/>
                  <polygon class="cls-37" points="25.2 101.9 24.6 105.5 30 107.5 87.9 87.9 25.2 101.9"/>
                  <polygon class="cls-28" points="18.8 95.5 17.4 98.7 25.2 101.9 87.9 87.9 18.8 95.5"/>
                  <polygon class="cls-54" points="35.2 121 31.6 119.4 32.8 114.4 88 87.8 35.2 121"/>
                </g>
              </g>
            </g>
            <g>
              <path class="cls-46" d="m33.2,33.5s1.6,4.2,1.9,7.1c.3,3.3.3,5.6.3,5.6,3.9,3.1,52.6,41.8,52.6,41.8l-41.9-52.4s-8.1,0-13-2.1Z"/>
              <polygon class="cls-21" points="46.2 35.7 47.3 32.7 55 35.4 88.1 88.1 46.2 35.7"/>
              <polygon class="cls-56" points="61.6 32.6 63.8 27.9 68.4 29.9 88.1 88 61.6 32.6"/>
              <polygon class="cls-23" points="80.3 18.9 77.3 17.5 74.1 25.3 88.1 87.9 80.3 18.9"/>
              <polygon class="cls-57" points="55 35.3 56.6 31.6 61.6 32.9 88.2 88.1 55 35.3"/>
              <polygon class="cls-17" points="74.1 25.7 70.5 24.7 68.6 29.8 88.1 87.9 74.1 25.7"/>
            </g>
          </g>
        </g>
      </g>
      <ellipse class="cls-35" cx="88" cy="87.4" rx="57.4" ry="57.6"/>
      <circle class="cls-9" cx="87.9" cy="87.5" r="42.2" transform="translate(-13.5 158.9) rotate(-80)"/>
      <circle class="cls-16" cx="87.7" cy="87.5" r="40.2" transform="translate(-2.2 172.8) rotate(-88.4)"/>
      <path class="cls-60" d="m56.4,124.7c-10.6-8.9-17.4-22.3-17.4-37.3,0-26.9,21.8-48.6,48.6-48.6s48.6,21.8,48.6,48.6-21.8,48.6-48.6,48.6-22.8-4.3-31.3-11.4"/>
      <path class="cls-20" d="m143,87.4c0,30.6-24.7,55.3-55.1,55.3s-55.1-24.8-55.1-55.3,24.7-55.3,55.1-55.3,55.1,24.8,55.1,55.3Z"/>
      <g>
        <g>
          <g>
            <path class="cls-85" d="m94.1,113.9c-1.2.4-2.2.4-2.2.4,0,0,.3,2.1-1.4,5.7-1.8,3.6-4.6,6.6-4.6,6.6,0,0,2.8,0,6.3-1.2,3.5-1.2,4.1-1.9,4.1-1.9l2.4,1.8s2.7-4.2,3.1-8.6c.4-4.5.2-6,.2-6,0,0-2.6,1.7-4.3,2.2-.9.3-2.3.7-3.4,1Z"/>
            <path class="cls-83" d="m93.8,116.8c-.2,1-.7,2.9-1.6,4.6-.7,1.4-2.1,2.8-2.1,2.8,0,0,2.6-.6,4-1.4,1.4-.8,2.3-1.6,2.3-1.6l1.8,1.4s1.5-2,1.9-5.4c.4-2,.3-5.8.3-5.8l-3.2,1.4-3,.9s-.2,1.9-.4,2.9Z"/>
            <path class="cls-61" d="m95.7,113.6s0,.5-.2,2.3c-.3,1.8-.3,1.8-.3,1.8"/>
            <path class="cls-61" d="m97.4,112.9s0,.6-.3,2.5c-.2,1.9-.5,3.1-.5,3.1"/>
            <path class="cls-61" d="m99,112.1s0,.7-.2,2.5c-.2,1.7-.3,2.4-.3,2.4"/>
          </g>
          <g>
            <path class="cls-84" d="m82,113.9c-1.2-.2-2.2-.5-2.2-.5,0,0-.6,2-3.7,4.5-3.1,2.5-7,4.1-7,4.1,0,0,2.6,1.2,6.2,1.5,3.7.3,4.5,0,4.5,0l1.4,2.6s4.2-2.6,6.4-6.5c2.2-3.9,2.7-5.3,2.7-5.3,0,0-3,.4-4.9.2-.9-.1-2.3-.3-3.5-.5Z"/>
            <path class="cls-82" d="m80.5,116.3c-.6.8-1.9,2.3-3.4,3.5-1.3,1-3.1,1.7-3.1,1.7,0,0,2.6.6,4.2.4,1.6-.1,2.7-.4,2.7-.4l1,2.1s2.2-1.2,4-4.1c1.2-1.6,2.7-5.1,2.7-5.1h-3.5s-3.1-.5-3.1-.5c0,0-1,1.6-1.6,2.4Z"/>
            <path class="cls-61" d="m83.6,114.2s-.2.5-1.2,2c-1,1.5-1,1.6-1,1.6"/>
            <path class="cls-61" d="m85.4,114.4s-.3.6-1.3,2.2c-1,1.6-1.7,2.6-1.7,2.6"/>
            <path class="cls-61" d="m87.2,114.3s-.3.7-1.2,2.2c-.9,1.5-1.3,2-1.3,2"/>
          </g>
          <g>
            <path class="cls-80" d="m70.9,108.6c-1-.7-1.7-1.5-1.7-1.5,0,0-1.4,1.6-5.3,2.4-3.9.9-8,.6-8,.6,0,0,1.8,2.2,4.9,4.1,3.1,1.9,4.1,2,4.1,2v3c.1,0,5-.5,8.7-3,3.7-2.5,4.8-3.6,4.8-3.6,0,0-2.9-.9-4.4-2-.8-.5-1.9-1.3-3-2Z"/>
            <path class="cls-74" d="m68.5,110.1c-.9.5-2.7,1.2-4.6,1.6-1.6.3-3.5.2-3.5.2,0,0,2.1,1.7,3.6,2.2,1.5.6,2.7.8,2.7.8v2.3s2.5,0,5.4-1.9c1.8-1,4.7-3.3,4.7-3.3l-3.1-1.6-2.6-1.8s-1.6,1-2.5,1.5Z"/>
            <path class="cls-61" d="m72.2,109.6s-.4.4-1.9,1.3c-1.6.9-1.6.9-1.6.9"/>
            <path class="cls-61" d="m73.8,110.5s-.5.4-2.2,1.4c-1.6,1-2.7,1.6-2.7,1.6"/>
            <path class="cls-61" d="m75.5,111.3s-.6.5-2,1.4c-1.5.9-2,1.3-2,1.3"/>
          </g>
          <g>
            <path class="cls-81" d="m63.3,99.5c-.6-1.1-1-2.1-1-2.1,0,0-1.9.8-5.8,0-3.9-.9-7.5-2.9-7.5-2.9,0,0,.7,2.8,2.7,5.8,2,3.1,2.8,3.5,2.8,3.5l-1.2,2.7s4.7,1.6,9.1,1c4.4-.7,5.8-1.2,5.8-1.2,0,0-2.2-2.1-3.2-3.7-.5-.8-1.2-2-1.8-3.1Z"/>
            <path class="cls-79" d="m60.5,99.8c-1,0-2.9,0-4.9-.5-1.6-.4-3.2-1.4-3.2-1.4,0,0,1.2,2.4,2.3,3.5,1.1,1.2,2.1,1.9,2.1,1.9l-1,2.1s2.3,1,5.7.6c2-.1,5.7-1,5.7-1l-2.1-2.7-1.5-2.7s-1.9.2-2.9.3Z"/>
            <path class="cls-61" d="m64,100.9s-.5.2-2.3.3c-1.8.1-1.9.2-1.9.2"/>
            <path class="cls-61" d="m65.1,102.4s-.6,0-2.5.3c-1.9.2-3.1.3-3.1.3"/>
            <path class="cls-61" d="m66.3,103.8s-.7.2-2.4.4c-1.7.2-2.4.3-2.4.3"/>
          </g>
          <g>
            <path class="cls-78" d="m60.5,87.9c0-1.3,0-2.3,0-2.3,0,0-2.1-.1-5.2-2.7-3.1-2.6-5.4-6-5.4-6,0,0-.7,2.8-.3,6.4.4,3.6.9,4.4.9,4.4l-2.3,1.9s3.4,3.6,7.7,5c4.2,1.4,5.8,1.5,5.8,1.5,0,0-1-2.9-1.2-4.7,0-.9-.1-2.4-.2-3.6Z"/>
            <path class="cls-77" d="m57.9,86.9c-.9-.4-2.6-1.4-4.1-2.7-1.2-1-2.3-2.7-2.3-2.7,0,0,0,2.7.4,4.2.5,1.5,1,2.6,1,2.6l-1.8,1.4s1.6,1.9,4.8,3.1c1.8.8,5.5,1.7,5.5,1.7l-.7-3.4v-3.1c-.1,0-1.9-.6-2.8-1.1Z"/>
            <path class="cls-61" d="m60.5,89.5s-.5,0-2.2-.8c-1.7-.7-1.7-.7-1.7-.7"/>
            <path class="cls-61" d="m60.7,91.3s-.6-.2-2.4-.9c-1.8-.7-2.9-1.2-2.9-1.2"/>
            <path class="cls-61" d="m61.2,93.1s-.7-.2-2.4-.7c-1.6-.6-2.2-.8-2.2-.8"/>
          </g>
          <g>
            <path class="cls-75" d="m63.3,76c.5-1.2,1-2,1-2,0,0-1.8-1-3.5-4.6-1.7-3.6-2.3-7.7-2.3-7.7,0,0-1.8,2.2-3,5.7-1.2,3.5-1,4.4-1,4.4l-2.9.8s1.6,4.7,4.8,7.8c3.2,3.1,4.6,3.9,4.6,3.9,0,0,.3-3,1-4.8.3-.8.9-2.2,1.3-3.3Z"/>
            <path class="cls-72" d="m61.3,73.9c-.7-.8-1.8-2.3-2.6-4.2-.7-1.5-.9-3.4-.9-3.4,0,0-1.2,2.4-1.4,4-.2,1.6-.2,2.8-.2,2.8l-2.2.5s.6,2.4,3,4.8c1.3,1.5,4.3,3.9,4.3,3.9l.8-3.4,1.2-2.9s-1.3-1.3-2-2.1Z"/>
            <path class="cls-61" d="m62.6,77.4s-.4-.3-1.7-1.6c-1.2-1.3-1.3-1.4-1.3-1.4"/>
            <path class="cls-61" d="m62,79.2s-.5-.4-1.8-1.8c-1.3-1.4-2.1-2.3-2.1-2.3"/>
            <path class="cls-61" d="m61.7,81s-.6-.5-1.8-1.7c-1.2-1.2-1.7-1.7-1.7-1.7"/>
          </g>
          <g>
            <path class="cls-76" d="m70.5,66.3c.9-.9,1.8-1.4,1.8-1.4,0,0-1.2-1.7-1.3-5.7,0-4,1.1-8,1.1-8,0,0-2.5,1.3-5.1,3.9-2.5,2.7-2.8,3.5-2.8,3.5l-2.9-.5s-.5,4.9,1.1,9.1c1.7,4.2,2.5,5.4,2.5,5.4,0,0,1.5-2.6,2.9-3.9.7-.6,1.7-1.6,2.6-2.5Z"/>
            <path class="cls-73" d="m69.5,63.6c-.3-1-.6-2.9-.6-4.9,0-1.6.6-3.5.6-3.5,0,0-2.1,1.7-2.9,3-.9,1.3-1.4,2.4-1.4,2.4l-2.2-.5s-.4,2.5.7,5.6c.6,1.9,2.3,5.3,2.3,5.3l2.2-2.7,2.3-2.1s-.7-1.8-.9-2.7Z"/>
            <path class="cls-61" d="m69.3,67.3s-.3-.4-.8-2.2c-.5-1.7-.6-1.8-.6-1.8"/>
            <path class="cls-61" d="m68,68.7s-.2-.6-.9-2.4c-.6-1.8-1-2.9-1-2.9"/>
            <path class="cls-61" d="m67,70.2s-.3-.7-1-2.3c-.6-1.6-.8-2.2-.8-2.2"/>
          </g>
          <g>
            <path class="cls-69" d="m81.3,61.1c1.2-.4,2.2-.5,2.2-.5,0,0-.4-2.1,1.4-5.7,1.8-3.6,4.6-6.6,4.6-6.6,0,0-2.8,0-6.3,1.3-3.5,1.2-4.1,1.9-4.1,1.9l-2.4-1.8s-2.7,4.2-3,8.6c-.4,4.5-.1,6-.1,6,0,0,2.5-1.7,4.3-2.2.9-.3,2.3-.7,3.4-1.1Z"/>
            <path class="cls-66" d="m81.7,58.3c.2-1,.7-2.9,1.6-4.6.7-1.4,2.1-2.8,2.1-2.8,0,0-2.6.6-4,1.4-1.4.8-2.3,1.6-2.3,1.6l-1.8-1.4s-1.5,2-1.9,5.4c-.4,2-.3,5.8-.3,5.8l3.2-1.5,3-.9s.2-1.9.4-2.9Z"/>
            <path class="cls-61" d="m79.7,61.5s0-.5.2-2.3c.3-1.8.3-1.8.3-1.8"/>
            <path class="cls-61" d="m78,62.1s0-.6.3-2.5c.2-1.9.4-3.1.4-3.1"/>
            <path class="cls-61" d="m76.4,63s0-.7.2-2.5c.2-1.7.3-2.4.3-2.4"/>
          </g>
          <g>
            <path class="cls-67" d="m93.5,60.8c1.2.2,2.2.6,2.2.6,0,0,.6-2,3.8-4.4,3.2-2.5,7.1-3.9,7.1-3.9,0,0-2.5-1.3-6.2-1.7-3.6-.4-4.5,0-4.5,0l-1.3-2.6s-4.3,2.5-6.6,6.3c-2.3,3.8-2.8,5.3-2.8,5.3,0,0,3-.4,4.9,0,.9.2,2.3.4,3.5.6Z"/>
            <path class="cls-70" d="m95.1,58.4c.6-.8,1.9-2.2,3.5-3.4,1.3-1,3.1-1.6,3.1-1.6,0,0-2.6-.6-4.2-.5-1.6.1-2.8.4-2.8.4l-1-2.1s-2.2,1.1-4.1,4c-1.2,1.6-2.9,5-2.9,5h3.5c0,.1,3.1.7,3.1.7,0,0,1-1.6,1.6-2.4Z"/>
            <path class="cls-61" d="m91.9,60.4s.2-.5,1.2-2c1.1-1.5,1.1-1.5,1.1-1.5"/>
            <path class="cls-61" d="m90.1,60.2s.3-.5,1.4-2.1c1.1-1.6,1.8-2.5,1.8-2.5"/>
            <path class="cls-61" d="m88.3,60.3s.3-.7,1.3-2.1c.9-1.5,1.3-2,1.3-2"/>
          </g>
          <g>
            <path class="cls-71" d="m104.8,66.2c1,.7,1.7,1.5,1.7,1.5,0,0,1.4-1.5,5.4-2.3,3.9-.8,8.1-.3,8.1-.3,0,0-1.7-2.3-4.8-4.3-3.1-2-4-2.1-4-2.1v-3s-5,.4-8.7,2.8c-3.8,2.4-4.9,3.5-4.9,3.5,0,0,2.9,1,4.4,2.1.7.5,1.9,1.4,2.9,2.1Z"/>
            <path class="cls-68" d="m107.3,64.7c.9-.5,2.7-1.2,4.7-1.5,1.6-.3,3.5,0,3.5,0,0,0-2-1.7-3.5-2.3-1.5-.6-2.6-.9-2.6-.9v-2.3c0,0-2.5,0-5.4,1.7-1.8.9-4.8,3.2-4.8,3.2l3.1,1.6,2.5,1.9s1.6-1,2.5-1.4Z"/>
            <path class="cls-61" d="m103.5,65.1s.4-.4,2-1.2c1.6-.9,1.6-.9,1.6-.9"/>
            <path class="cls-61" d="m102,64.1s.5-.3,2.2-1.3c1.7-1,2.7-1.5,2.7-1.5"/>
            <path class="cls-61" d="m100.3,63.4s.6-.5,2.1-1.4c1.5-.9,2.1-1.2,2.1-1.2"/>
          </g>
          <g>
            <path class="cls-86" d="m112.5,75.5c.6,1.1.9,2.1.9,2.1,0,0,1.9-.8,5.8.1,3.9.9,7.5,3,7.5,3,0,0-.6-2.8-2.6-5.9-2-3.1-2.8-3.6-2.8-3.6l1.2-2.7s-4.6-1.7-9.1-1.1c-4.4.6-5.9,1.1-5.9,1.1,0,0,2.2,2.1,3.1,3.7.5.8,1.2,2,1.8,3.1Z"/>
            <path class="cls-87" d="m115.4,75.2c1,0,2.9,0,4.9.6,1.6.4,3.2,1.4,3.2,1.4,0,0-1.1-2.4-2.2-3.6-1.1-1.2-2-1.9-2-1.9l1-2.1s-2.3-1-5.6-.7c-2,0-5.7.9-5.7.9l2.1,2.8,1.5,2.8s1.9-.2,2.9-.2Z"/>
            <path class="cls-61" d="m111.8,74s.5-.2,2.3-.3c1.8-.1,1.9-.1,1.9-.1"/>
            <path class="cls-61" d="m110.8,72.5s.6,0,2.5-.3c1.9-.2,3.1-.2,3.1-.2"/>
            <path class="cls-61" d="m109.6,71.1s.7-.2,2.5-.4c1.7-.2,2.4-.2,2.4-.2"/>
          </g>
          <g>
            <path class="cls-88" d="m115.1,87.2c0,1.3,0,2.3,0,2.3,0,0,2.1.2,5.2,2.7,3.1,2.6,5.3,6,5.3,6,0,0,.7-2.8.3-6.4-.4-3.7-.9-4.4-.9-4.4l2.3-1.9s-3.4-3.6-7.6-5c-4.2-1.4-5.8-1.6-5.8-1.6,0,0,1,2.9,1.1,4.7,0,.9.1,2.4.2,3.6Z"/>
            <path class="cls-89" d="m117.8,88.2c.9.4,2.6,1.4,4.1,2.7,1.2,1.1,2.3,2.7,2.3,2.7,0,0,0-2.7-.4-4.2-.5-1.5-1-2.6-1-2.6l1.8-1.4s-1.6-1.9-4.8-3.1c-1.8-.8-5.5-1.7-5.5-1.7l.7,3.4v3.1c.1,0,1.9.6,2.8,1.1Z"/>
            <path class="cls-61" d="m115.1,85.6s.5,0,2.2.8c1.7.7,1.7.7,1.7.7"/>
            <path class="cls-61" d="m114.9,83.8s.6.2,2.4.9c1.8.7,2.9,1.2,2.9,1.2"/>
            <path class="cls-61" d="m114.5,82s.7.2,2.4.8c1.6.6,2.2.8,2.2.8"/>
          </g>
          <g>
            <path class="cls-91" d="m112.5,99.3c-.5,1.2-1.1,2-1.1,2,0,0,1.8,1,3.5,4.7,1.7,3.7,2.2,7.8,2.2,7.8,0,0,1.8-2.2,3-5.7,1.2-3.5,1.1-4.4,1.1-4.4l2.9-.7s-1.5-4.7-4.7-7.8c-3.2-3.1-4.5-3.9-4.5-3.9,0,0-.3,3-1,4.7-.3.8-.9,2.2-1.4,3.3Z"/>
            <path class="cls-93" d="m114.5,101.3c.7.8,1.8,2.4,2.6,4.2.6,1.5.9,3.4.9,3.4,0,0,1.2-2.4,1.4-4,.3-1.6.3-2.8.3-2.8l2.2-.5s-.6-2.4-2.9-4.9c-1.3-1.5-4.2-3.9-4.2-3.9l-.9,3.4-1.3,2.9s1.3,1.3,2,2.1Z"/>
            <path class="cls-61" d="m113.3,97.8s.4.3,1.6,1.6c1.2,1.4,1.2,1.4,1.2,1.4"/>
            <path class="cls-61" d="m113.9,96.1s.5.4,1.8,1.8c1.3,1.4,2.1,2.3,2.1,2.3"/>
            <path class="cls-61" d="m114.2,94.3s.6.5,1.8,1.7c1.2,1.2,1.6,1.7,1.6,1.7"/>
          </g>
          <g>
            <path class="cls-92" d="m105.1,108.4c-.9.8-1.8,1.4-1.8,1.4,0,0,1.2,1.7,1.2,5.7,0,4-1.3,8-1.3,8,0,0,2.6-1.2,5.2-3.8,2.6-2.6,2.8-3.5,2.8-3.5l2.9.6s.6-4.9-.9-9.1c-1.6-4.2-2.4-5.5-2.4-5.5,0,0-1.6,2.6-2.9,3.9-.7.6-1.7,1.6-2.6,2.4Z"/>
            <path class="cls-90" d="m106.1,111.1c.3,1,.6,2.9.5,4.9,0,1.6-.7,3.4-.7,3.4,0,0,2.1-1.6,3-3,.9-1.3,1.4-2.4,1.4-2.4l2.2.5s.5-2.5-.6-5.7c-.5-2-2.2-5.4-2.2-5.4l-2.2,2.7-2.4,2.1s.6,1.8.9,2.8Z"/>
            <path class="cls-61" d="m106.4,107.4s.3.4.8,2.2c.5,1.7.5,1.8.5,1.8"/>
            <path class="cls-61" d="m107.7,106.1s.2.6.8,2.4c.6,1.8.9,3,.9,3"/>
            <path class="cls-61" d="m108.8,104.6s.3.7.9,2.3c.6,1.6.8,2.3.8,2.3"/>
          </g>
        </g>
        <g>
          <path class="cls-62" d="m111.9,88c0,13.2-10.7,24-23.9,24s-23.9-10.7-23.9-24,10.7-24,23.9-24,23.9,10.7,23.9,24Z"/>
          <path class="cls-65" d="m115.4,87.9c0,15.1-12.3,27.3-27.4,27.3s-27.4-12.2-27.4-27.3,12.3-27.3,27.4-27.3,27.4,12.2,27.4,27.3Z"/>
          <path class="cls-31" d="m116.3,88c0,15.7-12.6,28.5-28.2,28.5s-28.2-12.8-28.2-28.5,12.6-28.5,28.2-28.5,28.2,12.8,28.2,28.5Z"/>
        </g>
        <ellipse class="cls-19" cx="88" cy="88" rx="29.5" ry="29.6"/>
      </g>
      <g>
        <g>
          <g>
            <g>
              <g>
                <path class="cls-18" d="m86,94.9s.5-.4.6-.4.6.3.6.3v3.1s-.7,0-.7,0l-.6-3.1Z"/>
                <path class="cls-18" d="m84.4,94.6c.1,0,.7.3.7.3l.5,3-.5.2-1.4-3s.4-.4.6-.5Z"/>
                <path class="cls-18" d="m84.8,95.2c0-.2.7-.7.7-.7.1,0,.9.4,1,.7,0,.2.3,2.9.3,2.9h-1.3s-.7-2.4-.6-2.9Z"/>
                <path class="cls-18" d="m82.4,94.4c0,.2,1.4.3,1.7.9.2.4,1,2.8,1,2.8,0,0-.6-.2-1.1-.8-.3-.3-.8-1.7-.9-2-.2-.3-.4-.4-.5-.5-.2-.2-.2-.3-.2-.4Z"/>
                <path class="cls-18" d="m89.6,94.9s-.5-.4-.6-.4-.6.3-.6.3v3.1s.7,0,.7,0l.6-3.1Z"/>
                <path class="cls-18" d="m91.2,94.6c-.1,0-.7.3-.7.3l-.5,3,.5.2,1.4-3s-.4-.4-.6-.5Z"/>
                <path class="cls-18" d="m90.8,95.2c0-.2-.7-.7-.7-.7,0,0-.9.4-1,.7,0,.2-.3,2.9-.3,2.9h1.3s.7-2.4.6-2.9Z"/>
                <path class="cls-18" d="m93.2,94.4c0,.2-1.4.3-1.7.9-.2.4-1,2.8-1,2.8,0,0,.6-.2,1.1-.8.3-.3.8-1.7.9-2,.2-.3.4-.4.5-.5.2-.2.2-.3.2-.4Z"/>
                <path class="cls-18" d="m88.4,98.2s.3-2.4.2-2.9c0-.3-.6-.8-.7-.8"/>
              </g>
              <path class="cls-18" d="m88.4,98.2h-1.1s-.3-2.5-.2-3c0-.3.7-.7.8-.8"/>
            </g>
            <g>
              <path class="cls-18" d="m84.9,97.5s0,0,0,.1c.1,0,.6.1.8.3.2,0,.4.4.4.4h-.6s-.6,0-.8-.4c0-.1,0-.4.1-.4Z"/>
              <path class="cls-18" d="m90.7,97.5s0,0,0,.1c-.1,0-.6.1-.8.3-.2,0-.4.4-.4.4h.6s.6,0,.8-.4c0-.1,0-.5-.1-.4Z"/>
              <path class="cls-18" d="m86.1,98.3s0-.3.3-.4c.2,0,.5-.2.5-.2,0,0,.2.1.5.2.3.1.4.4.4.4h-1.7Z"/>
              <path class="cls-18" d="m89.5,98.3s0-.3-.3-.4c-.2,0-.5-.3-.5-.3,0,0-.2.1-.5.3-.3.1-.4.4-.4.4h1.6Z"/>
            </g>
          </g>
          <g>
            <g>
              <path class="cls-18" d="m89.9,99.4c.5.1.7.5.8.8,0,.1,0,.6.8,1.2.2.1-.8,0-1.3-.1-.4-.2-.5-.5-.5-.5,0,0-.3-.7-.4-1-.1-.3-.4-.4-.4-.4,0,0,.7,0,1,0Z"/>
              <path class="cls-18" d="m88.9,99.4c.4,0,.5.4.6.6,0,.1.3.8.4,1-.1.2-.8.4-.8.4,0,0-.9-.2-1-.3-.1-.1-.2-.6-.2-1,0-.3,0-.6,0-.6,0,0,.9,0,1.1,0Z"/>
            </g>
            <path class="cls-18" d="m85.7,99.4c-.5.1-.7.5-.8.8,0,.1,0,.6-.8,1.2-.2.1.8,0,1.2-.1.4-.2.5-.5.5-.5,0,0,.3-.7.4-1,.1-.3.4-.4.4-.4,0,0-.7-.1-1,0Z"/>
            <path class="cls-18" d="m86.7,99.4c-.4,0-.5.4-.6.5,0,.1-.3.8-.4,1,.1.2.8.4.8.4,0,0,.9-.2,1-.3.1-.1.2-.6.2-1s0-.6,0-.6c0,0-.9,0-1.1,0Z"/>
            <path class="cls-18" d="m84.3,101.3s1.1-.6,1.4-.6,1.2.5,1.2.5v4.2c0,0-1.4.1-1.4.1l-1.2-4.2Z"/>
            <path class="cls-18" d="m82.2,100.8c.2,0,.8.4.8.4l.7,4-.6.2-1.8-3.9s.6-.5.8-.6Z"/>
            <path class="cls-18" d="m82.7,101.7c0-.3,1-1,1.1-1,0,0,1.4.5,1.5.9,0,.2.4,3.8.4,3.8h-2c0,0-1.1-3.1-1-3.7Z"/>
            <path class="cls-18" d="m79.6,100.6c0,.3,1.8.3,2.2,1.1.3.5,1.4,3.7,1.3,3.7,0,0-.9-.3-1.4-1-.3-.4-1-2.2-1.2-2.7-.3-.4-.5-.5-.7-.6-.3-.3-.3-.4-.3-.5Z"/>
            <path class="cls-18" d="m91.2,101.2s-1.1-.5-1.3-.5-1.2.4-1.2.4v4c0,0,1.3,0,1.3,0l1.1-4Z"/>
            <path class="cls-18" d="m93.3,100.8c-.2,0-.8.4-.8.4l-.7,4,.6.2,1.8-3.9s-.6-.5-.8-.6Z"/>
            <path class="cls-18" d="m92.8,101.6c0-.3-1.1-.9-1.1-1,0,0-1.4.5-1.5.9,0,.2-.5,3.8-.5,3.8l2,.2s1.2-3.3,1.1-3.9Z"/>
            <path class="cls-18" d="m95.9,100.6c0,.3-1.8.3-2.2,1.1-.3.5-1.3,3.7-1.3,3.7,0,0,.8-.3,1.4-1.1.3-.4,1-2.2,1.2-2.6.3-.4.5-.5.7-.6.3-.3.3-.4.3-.5Z"/>
            <path class="cls-18" d="m86.3,101.7c.1-.3,1.4-.9,1.5-1,0,0,1.3.7,1.5.9.2.2-.2,4.1-.2,4.1h-2.3s-.7-3.5-.4-4.1Z"/>
          </g>
          <rect class="cls-98" x="83.5" y="109.1" width="8.8" height=".9"/>
          <g>
            <path class="cls-18" d="m90.9,107.1c.7.2,1,.7,1.1,1.1,0,.2,0,.9,1.2,1.7.3.2-1.2,0-1.8-.2-.6-.2-.8-.7-.8-.7,0,0-.4-1.1-.6-1.4-.2-.4-.6-.5-.6-.5,0,0,1-.1,1.4,0Z"/>
            <path class="cls-18" d="m89.5,107.1c.6,0,.7.6.8.8.1.2.4,1.1.5,1.4-.2.3-1.2.6-1.2.6,0,0-1.4-.3-1.5-.5-.1-.2-.2-.9-.2-1.5,0-.5,0-.9,0-.9,0,0,1.4,0,1.6,0Z"/>
          </g>
          <path class="cls-18" d="m84.8,107.1c-.7.2-1,.7-1.1,1.1,0,.2,0,.9-1.2,1.7-.3.2,1.2,0,1.8-.2.6-.2.8-.7.8-.7,0,0,.4-1.1.6-1.4.2-.4.6-.5.6-.5,0,0-1-.1-1.4,0Z"/>
          <g>
            <path class="cls-18" d="m82.9,104.6s0,0,.1.2c.1,0,.8.2,1.1.3.3.1.5.5.5.5,0,0-.5,0-.8,0-.3,0-.8-.1-1-.4-.2-.2,0-.6.2-.5Z"/>
            <path class="cls-18" d="m84.5,105.6c0,0,.1-.4.4-.5.3,0,.7-.3.7-.3,0,0,.3.2.6.3.4.1.5.5.5.5,0,0-2.2,0-2.2,0Z"/>
          </g>
          <path class="cls-18" d="m91.1,105.6s-.1-.4-.4-.5c-.3,0-.7-.3-.7-.3,0,0-.3.2-.6.3-.4.2-.5.5-.5.5h2.2Z"/>
          <path class="cls-18" d="m86.7,105.6s.1-.4.4-.5c.3,0,.7-.3.7-.3,0,0,.3.2.6.3.4.1.5.5.5.5h-2.2Z"/>
          <rect class="cls-59" x="84.7" y="105.6" width="6.1" height=".3"/>
          <path class="cls-18" d="m86.2,107.1c-.6,0-.7.6-.8.8-.1.2-.4,1.1-.5,1.4.2.3,1.2.6,1.2.6,0,0,1.4-.3,1.5-.5.1-.2.2-.9.2-1.5s0-.9,0-.9c0,0-1.3,0-1.6,0Z"/>
          <rect class="cls-59" x="84.7" y="106.8" width="6.2" height=".3"/>
          <rect class="cls-59" x="82.4" y="109.9" width="10.8" height=".4"/>
          <path class="cls-18" d="m92.7,104.6s0,0-.1.2c-.1,0-.8.2-1.1.3-.3.1-.5.5-.5.5,0,0,.5,0,.8,0,.3,0,.8-.1,1-.4.2-.2,0-.6-.2-.5Z"/>
          <g>
            <path class="cls-32" d="m85.2,106.1c0,0-.1-.2-.4-.2-.2,0-.3.1-.4.2,0,.1-.3.2-.3.2,0,0,.2.1.3.2,0,0,.2.2.4.2.2,0,.3-.2.4-.3,0,0,.2-.2.2-.2,0,0-.1,0-.2-.2Z"/>
            <path class="cls-32" d="m85.9,106.1c0,0-.1-.2-.4-.2-.2,0-.3.1-.4.2,0,.1-.3.2-.3.2,0,0,.2.1.3.2,0,0,.2.2.4.2.2,0,.3-.2.4-.3,0,0,.2-.2.2-.2,0,0-.1,0-.2-.2Z"/>
            <path class="cls-32" d="m86.5,106.1c0,0-.1-.2-.4-.2-.2,0-.3.1-.4.2,0,.1-.3.2-.3.2,0,0,.2.1.3.2,0,0,.2.2.4.2.2,0,.3-.2.4-.3,0,0,.2-.2.2-.2,0,0-.1,0-.2-.2Z"/>
            <path class="cls-32" d="m87.2,106.1c0,0-.1-.2-.4-.2-.2,0-.3.1-.4.2,0,.1-.3.2-.3.2,0,0,.2.1.3.2,0,0,.2.2.4.2.2,0,.3-.2.4-.3,0,0,.2-.2.2-.2,0,0-.1,0-.2-.2Z"/>
          </g>
          <g>
            <path class="cls-32" d="m90.2,106.1c0,0,.1-.2.4-.2.2,0,.3.1.4.2,0,.1.3.2.3.2,0,0-.2.1-.3.2,0,0-.2.2-.4.2-.2,0-.4-.2-.4-.3,0,0-.2-.2-.2-.2,0,0,.2,0,.2-.2Z"/>
            <path class="cls-32" d="m89.6,106.1c0,0,.1-.2.4-.2.2,0,.3.1.4.2,0,.1.3.2.3.2,0,0-.2.1-.3.2,0,0-.2.2-.4.2-.2,0-.4-.2-.4-.3,0,0-.2-.2-.2-.2,0,0,.2,0,.2-.2Z"/>
            <path class="cls-32" d="m88.9,106.1c0,0,.1-.2.4-.2.2,0,.3.1.4.2,0,.1.3.2.3.2,0,0-.2.1-.3.2,0,0-.2.2-.4.2-.2,0-.4-.2-.4-.3,0,0-.2-.2-.2-.2,0,0,.1,0,.2-.2Z"/>
            <path class="cls-32" d="m88.3,106.1c0,0,.1-.2.4-.2.2,0,.3.1.4.2,0,.1.3.2.3.2,0,0-.2.1-.3.2,0,0-.2.2-.4.2-.2,0-.4-.2-.4-.3,0,0-.2-.2-.2-.2,0,0,.1,0,.2-.2Z"/>
          </g>
          <g>
            <path class="cls-32" d="m87,106.3c0-.1.2-.2.3-.1,0,0,0,0,0,0,.3-.2.4,0,.4.2,0,.3-.3.2-.4.1,0,0,0,0,0,0-.1,0-.2,0-.3-.1Z"/>
            <path class="cls-32" d="m87.8,106.9c-.1,0-.2-.2-.2-.2,0,0,0,0,0,0-.3-.2,0-.3.3-.3.4,0,.3.3.2.3,0,0,0,0,0,0,0,.1-.1.2-.2.2Z"/>
            <path class="cls-32" d="m88.6,106.3c0,.1-.2.2-.2.1,0,0,0,0,0,0-.3.2-.4,0-.4-.2,0-.3.3-.3.4-.2,0,0,0,0,0,0,.1,0,.2,0,.3.1Z"/>
            <path class="cls-32" d="m87.8,105.7c.1,0,.2.2.2.2,0,0,0,0,0,0,.2.2,0,.3-.3.3-.4,0-.3-.3-.2-.3,0,0,0,0,0,0,0,0,.1-.1.2-.2Z"/>
            <path class="cls-36" d="m88.1,106.3c0,.1-.1.2-.3.2s-.3-.1-.3-.2.1-.2.3-.2.3.1.3.2Z"/>
          </g>
          <g>
            <polygon class="cls-32" points="90.1 98.5 85.5 98.5 85.5 98.3 90.1 98.3 90.1 98.5"/>
            <rect class="cls-59" x="85.5" y="98.5" width="4.5" height=".6"/>
            <polygon class="cls-32" points="90.1 99.4 85.5 99.4 85.5 99.2 90.1 99.2 90.1 99.4"/>
          </g>
          <g>
            <path class="cls-32" d="m85.9,98.7c0,0,0-.2-.3-.2-.2,0-.3.1-.3.2,0,0-.2.2-.2.2,0,0,.2.1.2.1,0,0,.2.2.3.2.2,0,.3-.1.3-.2,0,0,.2-.1.2-.1,0,0-.1,0-.2-.1Z"/>
            <path class="cls-32" d="m86.4,98.7c0,0,0-.2-.3-.2-.2,0-.3.1-.3.2,0,0-.2.2-.2.2,0,0,.2.1.2.1,0,0,.2.2.3.2.2,0,.3-.1.3-.2,0,0,.2-.1.2-.1,0,0-.1,0-.2-.1Z"/>
            <path class="cls-32" d="m87,98.7c0,0,0-.2-.3-.2-.2,0-.3.1-.3.2,0,0-.2.2-.2.2,0,0,.2.1.2.1,0,0,.2.2.3.2.2,0,.3-.1.3-.2,0,0,.2-.1.2-.1,0,0-.1,0-.2-.1Z"/>
            <path class="cls-32" d="m87.6,98.7c0,0,0-.2-.3-.2-.2,0-.3.1-.3.2,0,0-.2.2-.2.2,0,0,.2.1.2.1,0,0,.2.2.3.2.2,0,.3-.1.3-.2,0,0,.2-.1.2-.1,0,0-.1,0-.2-.1Z"/>
            <path class="cls-32" d="m89.7,98.7c0,0,0-.2.3-.2.2,0,.3.1.3.2,0,0,.2.2.2.2,0,0-.2.1-.2.1,0,0-.2.2-.3.2-.2,0-.3-.1-.3-.2,0,0-.2-.1-.2-.1,0,0,.1,0,.2-.1Z"/>
            <path class="cls-32" d="m89.1,98.7c0,0,0-.2.3-.2.2,0,.3.1.3.2,0,0,.2.2.2.2,0,0-.2.1-.2.1,0,0-.2.2-.3.2-.2,0-.3-.1-.3-.2,0,0-.2-.1-.2-.1,0,0,.1,0,.2-.1Z"/>
            <path class="cls-32" d="m88.5,98.7c0,0,0-.2.3-.2.2,0,.3.1.3.2,0,0,.2.2.2.2,0,0-.2.1-.2.1,0,0-.2.2-.3.2-.2,0-.3-.1-.3-.2,0,0-.2-.1-.2-.1,0,0,.1,0,.2-.1Z"/>
            <path class="cls-32" d="m88,98.7c0,0,0-.2.3-.2.2,0,.3.1.3.2,0,0,.2.2.2.2,0,0-.2.1-.2.1,0,0-.2.2-.3.2-.2,0-.3-.1-.3-.2,0,0-.2-.1-.2-.1,0,0,.1,0,.2-.1Z"/>
          </g>
          <g>
            <path class="cls-36" d="m87.3,98.8c0,0,.1-.1.2,0,0,0,0,0,0,0,.2-.1.3,0,.2.1,0,.2-.2.1-.3,0,0,0,0,0,0,0,0,0-.1,0-.2,0Z"/>
            <path class="cls-36" d="m87.8,99.3c0,0-.1-.1-.1-.1,0,0,0,0,0,0-.2-.1,0-.2.2-.2.3,0,.2.2.2.2,0,0,0,0,0,0,0,0,0,0-.1.1Z"/>
            <path class="cls-36" d="m88.3,98.8c0,0-.1.1-.2,0,0,0,0,0,0,0-.2.1-.3,0-.3-.1,0-.2.2-.2.2-.1,0,0,0,0,0,0,0,0,.1,0,.2,0Z"/>
            <path class="cls-36" d="m87.8,98.5c0,0,.1,0,.1.1,0,0,0,0,0,0,.1.1,0,.2-.2.2-.3,0-.2-.2-.1-.2,0,0,0,0,0,0,0,0,0,0,.1-.1Z"/>
            <path class="cls-36" d="m88,98.8c0,0,0,.2-.2.2s-.2,0-.2-.2,0-.2.2-.2.2,0,.2.2Z"/>
          </g>
        </g>
        <g>
          <g>
            <polygon class="cls-99" points="88 69.5 87.4 66.6 88 65.5 88.5 66.6 88 69.5"/>
            <polygon class="cls-99" points="87.4 69.7 86.3 67.7 85.2 67.4 85.5 68.3 87.4 69.7"/>
            <polygon class="cls-99" points="86.9 71.2 84.1 74.4 82.4 74.9 83.3 73.3 86.9 71.2"/>
            <polygon class="cls-99" points="86.8 70.7 84.1 71.7 82.4 71.4 84 70.8 86.8 70.7"/>
            <polygon class="cls-99" points="87.1 70.3 84.4 70 83.5 69.2 84.8 69.1 87.1 70.3"/>
            <polygon class="cls-99" points="88.5 69.7 89.6 67.7 90.7 67.3 90.4 68.3 88.5 69.7"/>
          </g>
          <polygon class="cls-99" points="89.1 71.1 91.8 74.2 93.6 74.8 92.6 73.2 89.1 71.1"/>
          <polygon class="cls-99" points="89.1 70.6 91.9 71.5 93.5 71.3 91.9 70.6 89.1 70.6"/>
          <polygon class="cls-99" points="88.9 70.2 91.6 69.9 92.4 69.1 91.1 69 88.9 70.2"/>
        </g>
        <g>
          <path class="cls-96" d="m75.4,87.7h4.8s-1.2,3.8-4.9,3.8-4.8-3.8-4.8-3.8h4.8Z"/>
          <polyline class="cls-64" points="80.1 87.7 75.4 79.6 70.6 87.8"/>
          <line class="cls-97" x1="75.4" y1="79.9" x2="75.4" y2="87.8"/>
        </g>
        <path class="cls-95" d="m82.3,76.4c0,.2,0,.9.3,1.2.3.4.9.6,1.4.5.5,0,.6-.1.8-.3.1-.2.1-.3,0-.5-.2-.1-.4-.1-.4-.1,0,0,.2-.1.6-.1.6,0,.9.3.9.6,0,.2,0,.8-.8.9-.8,0-1.5,0-2.5-.3-1-.4-2.3-.9-2.7-1.1-.3-.1-1.5-.6-2.3-.7-.8,0-1.3,0-1.8,0-.5.1-.8.3-1.3.6-.4.3-.6.7-.6,1.1s.3.6.5.8c.3.2.7.3.9.3.2,0,.7,0,1-.3.3-.3.3-.4.3-.6,0-.2-.2-.4-.5-.4-.3,0-.5,0-.6.2-.1.2,0,.4,0,.4,0,0,0,.1.2.1.2,0-.4.3-.8,0-.2-.2-.3-.5-.2-.8.1-.3.4-.5.9-.7.6-.2,1.2-.3,1.5-.3.5,0,1.1.1,1.6.2.5.1.8.3,1.5.7.7.3,1.1.6,1.7.8.6.2,1.4.5,2,.5.7,0,1.2,0,1.8,0,.6-.2,1.1-.5,1.2-.8.2-.3.2-.8,0-1-.1-.3-.2-.4-.6-.7-.4-.2-.9-.3-1.3-.3-.4,0-.6.1-.9.1-.3,0-.6,0-.8,0-.5,0-.7-.3-.9-.5,0,0,0,.1,0,.3Z"/>
        <path class="cls-95" d="m93.6,76.4c0,.2,0,.9-.3,1.2-.3.4-.9.6-1.4.5-.5,0-.6-.1-.7-.3-.1-.2-.1-.3,0-.5.2-.1.4-.1.4-.1,0,0-.2-.1-.6-.1-.6,0-.9.3-.9.6,0,.2,0,.8.8.9.8,0,1.5,0,2.5-.3,1-.4,2.3-.9,2.7-1.1.3-.1,1.5-.6,2.3-.7.8,0,1.3,0,1.8,0,.5.1.8.3,1.3.6.4.3.6.7.6,1.1s-.3.6-.5.8c-.3.2-.7.3-.9.3-.2,0-.7,0-1-.3-.3-.3-.3-.4-.3-.6,0-.2.2-.4.5-.4.3,0,.5,0,.6.2.1.2,0,.4,0,.4,0,0,0,.1-.2.1-.2,0,.4.3.8,0,.2-.2.3-.5.2-.8-.1-.3-.4-.5-.9-.7-.6-.2-1.2-.3-1.5-.3-.5,0-1.1.1-1.6.2-.5.1-.8.3-1.5.7-.7.3-1.1.6-1.7.8-.6.2-1.4.5-2,.5-.7,0-1.2,0-1.8,0-.6-.2-1.1-.5-1.2-.8-.2-.3-.2-.8,0-1,.1-.3.2-.4.6-.7.4-.2.9-.3,1.3-.3.4,0,.6.1.9.1.3,0,.6,0,.8,0,.5,0,.7-.3.9-.5,0,0,0,.1,0,.3Z"/>
        <g>
          <path class="cls-95" d="m88,70.1s-.6.4-.8.7c0,.2-.1.3,0,.6.2.2.4.3.8.3.4,0,.7,0,.8-.3.1-.2.1-.4,0-.6-.2-.3-.8-.7-.8-.7Z"/>
          <path class="cls-95" d="m87.6,71.6s-.3,0-.3.3c0,.3.4.4.8.4.4,0,.8,0,.8-.4,0-.3-.3-.3-.3-.3,0,0-.2,0-.4,0s-.5,0-.5,0Z"/>
          <path class="cls-95" d="m88,72.3c-.9,0-1,.5-1,.7,0,.2.3,2.9.3,3.3,0,.4-.3,1.3-.3,1.3,0,0,0,.4-.1,1.1,0,.7,0,1.1,0,1.6,0,.5.4,1.5.4,2.2s-.5,2-.6,2.8c-.1.8-.2,1.2-.2,2.2,0,.9,0,1.6.2,2.6.2,1,1.3,4.1,1.3,4.1,0,0,1.1-3.3,1.2-4.2.1-.8.2-1.6.2-2.6s-.1-1.5-.3-2.3c-.1-.8-.6-2.1-.6-2.8,0-.7.3-1.6.4-2.2.1-.6,0-.9,0-1.6,0-.7-.2-1.1-.2-1.1,0,0-.1-.7-.2-1.2,0-.5.3-3.3.3-3.4s0-.7-.9-.7Z"/>
          <path class="cls-94" d="m87.3,71.5s.2.2.4.1c.2,0,.3-.9.3-.9,0,0,0,.8.3.9.2,0,.4-.1.4-.1h-.1c0,.1-.3.2-.3.2h-.3s-.3,0-.3,0h-.2c0,0-.1-.2-.1-.2Z"/>
          <path class="cls-94" d="m87.3,72.2s.2.2.4.2c.2,0,.3-.4.3-.4,0,0,0,.3.3.4.2,0,.4-.2.4-.2h-.1c0,.1-.3.2-.3.2h-.3s-.3,0-.3,0h-.2c0,0-.1-.2-.1-.2Z"/>
          <path class="cls-31" d="m86.7,79.6s.8-.5,1.4-.5c.6,0,1.2.4,1.2.4"/>
        </g>
        <g>
          <path class="cls-96" d="m100.7,87.7h4.8s-1.2,3.8-4.9,3.8-4.8-3.8-4.8-3.8h4.8Z"/>
          <polyline class="cls-64" points="105.4 87.7 100.7 79.6 95.9 87.7"/>
          <line class="cls-97" x1="100.7" y1="79.9" x2="100.7" y2="87.7"/>
        </g>
      </g>
      <g>
        <path class="cls-94" d="m86.2,135.1c0,.3-.2.6-.5.6-.3,0-.5-.3-.5-.6,0-.3.2-.6.5-.6.3,0,.5.3.5.6Zm4.5,3.9v-8s-1.1,0-1.1,0v7.8c0,.7-.3.9-1.1.9h-1.7s0-3.2,0-3.2c0-.6.3-.8.3-1.4,0-.8-.6-1.4-1.4-1.4-.8,0-1.4.6-1.4,1.4,0,.7.5,1.2,1.2,1.4.1,0,.2,0,.3,0,0,.1-.1.2-.1.4v2.9s-.9,0-.9,0v1s3.8,0,3.8,0c1.5,0,2.1-.5,2.2-1.7Z"/>
        <path class="cls-94" d="m92.7,140.8c-.4,0-.8-.4-.8-.8,0-.4.4-.8.8-.8.4,0,.8.4.8.8,0,.4-.4.8-.8.8Z"/>
        <path class="cls-94" d="m97.1,138.7c0,.3-.1.6-.4.6-.3,0-.5-.1-.6-.4,0-.3.1-.6.4-.6.3,0,.6.1.6.4Zm3.4.6l-.9-4.5c-.2-.7-.5-1.2-1.1-1.5.4-.3.7-.8.6-1.4l-1.3.3c.1.4,0,.7-.2.8-.4,0-.7,0-1.1,0-1.3.3-2,1.2-2.3,2.3h1.1c.1-.5.5-1.2,1.4-1.4,1.2-.2,1.7.4,1.9,1.2v.5c.1.2.5,1.4.5,1.4h0s-.4-.8-.8-1.2c-.5-.5-1.3-.8-2-.6-1.1.3-1.6,1.8-1.3,3.1.4,1.8,1.5,2,2.1,1.9.8-.2,1.3-.9,1.1-1.7-.2-.8-.9-1.3-1.7-1.1-.2,0-.4.2-.5.3-.2-.5,0-1.4.6-1.6.9-.2,2,1.1,3,3.5l1.1-.2Z"/>
        <path class="cls-94" d="m102.8,138.9c-.4,0-.8-.2-.9-.7,0-.4.2-.8.7-.9.4,0,.8.2.9.7,0,.4-.2.8-.7.9Z"/>
        <path class="cls-94" d="m81.3,140.4c-.4,0-.7-.5-.6-.9,0-.4.5-.7.9-.6.4,0,.7.5.6.9,0,.4-.5.7-.9.6Z"/>
        <g>
          <path class="cls-94" d="m55.8,119.3c.2-.2.5-.2.7,0,.2.2.2.5,0,.7-.2.2-.5.2-.7,0-.2-.2-.2-.5,0-.7Zm-1.1-2.9l-2.9,2.8c-.5.5-.7,1-.7,1.5-.4-.1-.9-.2-1.3.2l.8.9c.3-.3.6-.3.7-.2.1.3.3.6.6.8.8.8,1.9,1,2.8.6l-.4-.9c-.6.2-1.3.3-1.8-.3-.7-.8-.5-1.5,0-2l.3-.3c.1-.1.8-1,.8-1h0s-.4.7-.6,1.2c-.2.6,0,1.3.5,1.8.8.7,2.1.4,3-.4,1.2-1.1.8-2,.4-2.4-.5-.5-1.3-.5-1.8,0-.5.5-.5,1.3,0,1.8.1.2.3.2.4.2-.3.4-1.1.6-1.4.3-.6-.6-.1-2,1.2-3.9l-.7-.7Z"/>
          <path class="cls-94" d="m48.7,121.9c.2-.1.5-.1.6.1.2.2.1.5,0,.6-.2.1-.5.1-.6,0-.2-.2-.1-.5,0-.6Zm-.5-.6c-.5.4-.6,1.2-.2,1.7.4.5,1.2.6,1.7.2.5-.4.6-1.2.2-1.7-.4-.5-1.2-.6-1.7-.2Zm3.6-8.6l-3.3,2.5c-1,.8-1.1,2-.2,3.1.7,1,1.8,1.1,2.8.8l-.3-1c-.7.3-1.4,0-1.8-.4-.5-.6-.4-1.3.2-1.8l3.3-2.5-.6-.8Z"/>
          <path class="cls-94" d="m46.5,113.5c.2-.1.5-.1.7.1.1.2,0,.5-.2.6-.2.1-.5.1-.7-.1-.1-.3,0-.5.2-.7Zm1.2-5.5c-.4.2-.6.6-.5,1,0,0-.4-.1-.8,0l-2.9,1.7.5.9,2.8-1.6c.8-.4,1.3.6,2.6,1.2l-2.2,1.3c-.5.3-.7,0-1.2.4-.6.3-.8,1.1-.4,1.7.3.6,1.1.8,1.7.5.5-.3.7-1,.5-1.5,0-.1,0-.2-.1-.2.1,0,.2,0,.4,0l2.9-1.7-.5-.9c-.5,0-1.1-.3-1.5-.6.6-.3.7-1,.4-1.5-.4-.6-1.1-.8-1.6-.4Zm.4.7c.2-.1.5-.1.6.1.1.2,0,.5-.2.6-.2.1-.5,0-.6-.1-.1-.2,0-.5.2-.6Z"/>
          <path class="cls-94" d="m42.5,113.3c.2,0,.4,0,.5.1,0,.2,0,.4-.2.5-.2,0-.4,0-.5-.1,0-.2,0-.4.2-.5Zm-2.4-2.6l.4.8c1-.4,1.8,0,2.3,1.1-.2,0-.4,0-.6,0-.5.3-.7.9-.5,1.4.3.5.9.7,1.4.5.7-.4.8-1.4.3-2.5-.7-1.4-2-1.8-3.3-1.4Z"/>
          <path class="cls-94" d="m47.1,103.8l-3.7,1.6c-.8.3-.9,1.1-.6,1.9.2.4.4.6.7.9-.1-.5-.2-.9-.2-1.3l.7-.3c.4.7,1,.9,1.5.7l2.7-1.2.4.9-2.6,1.1c-.5.2-1.2.2-1.7-.3,0,.5.2,1,.4,1.4l-.6.3c-.7-.5-1.5-.9-2-2-.5-1.2-.3-2.5.9-3l3.9-1.7.4.9Z"/>
          <path class="cls-94" d="m40.9,100.8c.3,0,.5,0,.6.3,0,.3,0,.5-.3.6-.2,0-.5,0-.6-.3,0-.3,0-.5.3-.6Zm4.5-2.3l-4.7,1.5c-.7.2-1,.9-.8,1.6.2.7.9,1.1,1.6.9.7-.2,1-.9.8-1.6,0-.1-.1-.2-.1-.3l2.2-.7-2.2,3.6.7.6,2.8-4.7-.3-.9Z"/>
          <path class="cls-94" d="m44.6,95l-4,.8c-.7.1-1.1.7-1,1.5.1.6.6,1.1,1.4,1.1l-.2,1c-1-.2-1.9-.8-2.1-2-.3-1.4.3-2.4,1.6-2.6l4.1-.8.2,1Z"/>
          <path class="cls-94" d="m39.2,92.4c.3,0,.5.1.5.4,0,.3-.2.5-.5.5-.2,0-.5-.1-.5-.4,0-.3.2-.5.5-.5Zm3.5-4.4c-.4,0-.8.3-.9.6,0,0-.3-.3-.7-.3l-3.3.2v1c0,0,3.3-.2,3.3-.2.9,0,.9,1.1,1.9,2.2l-2.5.2c-.5,0-.7-.2-1.3-.2-.7,0-1.2.7-1.1,1.4,0,.7.6,1.2,1.3,1.2.6,0,1.1-.5,1.1-1.1,0-.1,0-.2,0-.3,0,0,.2.1.4,0l3.4-.3v-1c-.5-.2-.9-.8-1.2-1.2.7,0,1-.6,1-1.2,0-.7-.6-1.2-1.3-1.1Zm0,.8c.3,0,.5.1.5.4,0,.3-.2.4-.4.4-.2,0-.5-.1-.5-.4,0-.2.2-.4.4-.4Z"/>
          <path class="cls-94" d="m40.5,84.4c.3,0,.4.2.4.5,0,.3-.2.4-.5.4-.3,0-.4-.2-.4-.5,0-.3.2-.4.5-.4Zm3.7-1.8l-4.1-.2c-1.4,0-2.2,1-2.3,2.4,0,1.4.8,2.5,1.9,2.6.9,0,1.7-.1,2.5-.2.4,0,.8,0,1,0,.2,0,.5,0,.7.1v-1c-.4-.1-.9-.2-1.3-.2-.5,0-1.1-.2-1.5-.4.3-.2.4-.5.4-.7,0-.6-.5-1.2-1.1-1.2-.6,0-1.1.4-1.1,1.1,0,.7.5,1.3,1.4,1.6-.2,0-.6,0-1,0-.6,0-1.2-.6-1.1-1.5,0-1.1.7-1.5,1.5-1.5l4,.2v-1Z"/>
          <path class="cls-94" d="m44.5,75c.3,0,.4.3.4.5,0,.3-.3.4-.6.3-.2,0-.4-.3-.4-.5,0-.3.3-.4.6-.3Zm.2-.7c-.4,0-.8,0-1.1.4-.2-.3-.4-.4-.8-.5l-3.1-.7-.2,1,3,.6c.9.2.7,1.1,1.2,2l-2.9-.6c-1.1-.2-2,.6-2.3,1.8-.2,1.2.3,2,.6,2.8h.7c0-.3.3-.9.4-1.3.1.6.5,1.1,1.1,1.2l1.7.4c.7.1,1.3-.3,1.4-1,.1-.7-.3-1.3-.9-1.5-.7-.1-1.3.3-1.4,1,0,.1,0,.2,0,.2h-.4c-.6-.2-1-.7-.9-1.5h-.7c-.2.2-.5.6-.6,1.1,0-.3-.2-.7-.2-1.1.1-.8.6-1.2,1.3-1.1l4.2.9.2-1c-.3-.2-.6-.6-.7-.9.6,0,1-.4,1.1-.9.1-.6-.3-1.3-.9-1.4Zm-1.2,5.5c.3,0,.5.3.4.6,0,.3-.3.4-.6.3-.2,0-.5-.3-.4-.5,0-.3.3-.4.6-.3Z"/>
          <path class="cls-94" d="m41.7,71.1c.2,0,.3.3.2.5,0,.2-.3.3-.5.2-.2,0-.3-.3-.2-.5,0-.2.3-.3.5-.2Zm-.1-3l-.3.9c.8.3,1.1.9,1.1,1.4,0,0-.2-.2-.3-.2-.6-.2-1.2.1-1.5.8-.2.6,0,1.3.7,1.5.6.2,1.4-.1,1.8-1.2.7-1.9-.4-2.9-1.4-3.2Zm3.5,1.3l-.3.9c.8.3,1.1.9,1.1,1.4,0,0-.2-.2-.3-.2-.6-.2-1.2.1-1.5.8-.2.6,0,1.3.7,1.5.6.2,1.4-.1,1.8-1.2.7-1.9-.4-2.9-1.4-3.2Zm.1,3c.2,0,.3.3.2.5,0,.2-.3.3-.5.2-.2,0-.3-.3-.2-.5,0-.2.3-.3.5-.2Z"/>
          <path class="cls-94" d="m49.2,66.4l-3.6-1.8c-.8-.4-1.4,0-1.8.8-.2.4-.2.7-.2,1.1.3-.4.6-.7.8-1l.6.3c-.3.7,0,1.3.5,1.6l2.6,1.3-.5.9-2.6-1.3c-.5-.3-.9-.8-.9-1.5-.3.4-.6.8-.8,1.2l-.6-.3c0-.9-.3-1.7.3-2.8.6-1.2,1.7-1.8,2.9-1.3l3.8,1.9-.4.9Z"/>
          <path class="cls-94" d="m50.7,61.7c.2.2.3.5.2.7-.2.2-.5.3-.7.1-.2-.1-.3-.4-.2-.7.2-.2.5-.3.7-.1Zm-2.9-3.6l-.9.3c0,.2.1.4,0,.6-.2.4-.7.4-1.1,1-.6,1,0,1.7-.1,2.7l.6.4c.5-1,1.7-3,2.7-2.3l.6.4s-.1.1-.2.2c-.4.6-.2,1.4.3,1.8.6.4,1.4.2,1.8-.4.4-.6.3-1.4-.3-1.8l-1.7-1.1c-1.2-.8-2.5.7-3,1.6,0-.1-.2-.6.1-1,.4-.6.8-.6,1.2-1.1.3-.4.2-.9.1-1.3Z"/>
          <path class="cls-94" d="m53.7,57.8c.2.2.2.5,0,.7-.2.2-.5.2-.7,0-.2-.2-.3-.5,0-.7.2-.2.5-.2.7,0Zm-2.5-4l-.9.2c0,.2,0,.4,0,.6-.3.3-.7.3-1.2.9-.7.9-.3,1.7-.4,2.7l.5.4c.6-.9,2-2.8,3-2l.6.5s-.1.1-.2.2c-.5.5-.4,1.4.1,1.8.6.5,1.3.4,1.8-.2.5-.6.4-1.3-.1-1.8l-1.6-1.3c-1.1-.9-2.6.4-3.2,1.3,0-.1-.1-.6.2-1,.5-.5.9-.5,1.3-.9.3-.4.3-.9.3-1.3Z"/>
          <path class="cls-94" d="m53.3,52.7c.2.2.2.5,0,.7-.2.2-.5.1-.7,0-.2-.2-.2-.5,0-.7.2-.2.5-.1.7,0Zm6.1,1.2l-4.2-4.5-.7.7,3.3,3.6c-.8,0-1.5.2-2,.5l-1.8-2c-.5-.5-1.2-.5-1.7,0-.5.5-.5,1.2,0,1.7.5.5,1.2.5,1.7,0,0,0,.1-.2.1-.2l1,1c-.5.6-.5,1.3,0,1.8.5.5,1.3.5,1.8,0,.4-.4.5-1,.2-1.5-.1-.2-.3-.3-.4-.4.6-.2,1.6-.3,2.2-.2l.7-.7Zm-3.3,1.5c.2.2.2.5,0,.7-.2.2-.5.1-.7,0-.2-.2-.2-.5,0-.7.2-.2.5-.1.7,0Z"/>
          <path class="cls-94" d="m62.9,51.3l-2.4-3.3c-.5-.7-1.2-.7-2-.2-.4.2-.5.5-.7.9.5-.2.9-.4,1.2-.5l.4.6c-.6.5-.7,1.1-.3,1.6l1.7,2.4-.8.6-1.7-2.3c-.3-.5-.4-1.1,0-1.7-.5.2-.9.4-1.3.7l-.4-.5c.4-.8.5-1.7,1.5-2.4,1.1-.8,2.4-.8,3.1.2l2.4,3.4-.8.6Z"/>
          <path class="cls-94" d="m66.9,48.9l-2-3.6c-.4-.6-1-.8-1.7-.5-.5.3-.8.9-.6,1.7l-1,.2c-.2-1,.2-2,1.2-2.6,1.2-.7,2.4-.5,3,.7l2,3.6-.9.5Z"/>
          <path class="cls-94" d="m70.9,45.7c.1.3,0,.6-.3.7-.3.1-.5,0-.6-.3-.1-.2,0-.5.2-.7.3-.1.5,0,.7.3Zm-.4-4.6l-.9-.3c0,.2-.1.4-.3.5-.4.2-.7,0-1.5.3-1.1.5-1,1.4-1.6,2.2l.3.6c1-.5,3-1.6,3.5-.4l.3.7s-.2,0-.3,0c-.7.3-1,1-.7,1.7.3.7,1,.9,1.7.6.7-.3,1-1,.7-1.7l-.8-1.9c-.6-1.3-2.5-.8-3.4-.3,0-.1.2-.6.6-.8.6-.3,1,0,1.6-.3.4-.2.7-.6.8-1Z"/>
          <path class="cls-94" d="m72.6,41c0,.3,0,.5-.3.6-.3,0-.5-.1-.6-.4,0-.2,0-.5.3-.6.3,0,.5.1.6.4Zm4.8,2.2l-2-6.8-1,.3,1.9,6.6c.2.6,0,.9-.7,1.1l-1.5.4-.8-2.8c-.2-.5,0-.7,0-1.3-.2-.6-.9-1-1.6-.8-.7.2-1,.9-.9,1.5.2.6.8.9,1.4.8.1,0,.2,0,.3,0,0,.1,0,.2,0,.4l.7,2.4-.8.2.2.8,3.3-1c1.3-.4,1.7-1,1.4-2Z"/>
          <path class="cls-94" d="m72.7,36.8c0,.2,0,.4-.3.5-.2,0-.4,0-.5-.3,0-.2,0-.4.3-.5.2,0,.4,0,.5.3Zm2.4-1l-.9.2c.1.8-.4,1.5-1.1,1.8.2-.4.3-.8.2-1.1-.1-.5-.6-.9-1.2-.8-.6.1-.9.7-.8,1.2.1.4.5.7.9.8-.1.2-.3.4-.6.6v.5c.3,0,.4,0,.5,0,2.1-.5,3.1-1.7,2.9-3.1Z"/>
          <path class="cls-94" d="m79.7,41.3c0,.3,0,.5-.4.6-.3,0-.5-.2-.5-.4,0-.3,0-.5.4-.6.3,0,.5.1.5.4Zm3.1,1.1l-.4-2.6c-.2-1.3-1.4-1.9-2.8-1.6-1.4.2-2.1,1.1-2.5,2.2h1c.2-.6.7-1.2,1.6-1.4.8-.1,1.5.3,1.7,1l.4,2.5c0,.5,0,.7-.6.8l-1.7.3-.2-1s.1,0,.2,0c.7-.1,1.1-.7,1-1.4-.1-.7-.7-1.1-1.4-1-.7.1-1.1.7-1,1.4l.5,3,3-.5c1.1-.2,1.4-.7,1.3-1.7Z"/>
          <path class="cls-94" d="m86.5,38.6c0,.3-.2.5-.5.5-.3,0-.5-.2-.5-.5,0-.3.2-.5.4-.5.3,0,.5.2.5.5Zm1.1,4.9l-.3-4.9c0-.7-.7-1.2-1.4-1.2-.7,0-1.3.6-1.2,1.3,0,.7.6,1.2,1.4,1.2.1,0,.2,0,.3,0v2.3c.1,0-2.9-3-2.9-3l-.7.6,3.9,3.9h.9Z"/>
          <path class="cls-94" d="m92.1,43.7l.2-4.1c0-.9-.5-1.3-1.4-1.4-.4,0-.7,0-1.1.2.5.1.9.3,1.2.4v.7c-.8,0-1.3.5-1.3,1.1l-.2,2.9h-1c0,0,.2-2.9.2-2.9,0-.6.4-1.1,1-1.4-.5-.2-1-.2-1.4-.3v-.7c.8-.4,1.5-1,2.7-.9,1.4,0,2.4.9,2.3,2.1l-.2,4.2h-1Z"/>
          <path class="cls-94" d="m91.8,35.3c0,.2-.2.4-.4.3-.2,0-.3-.2-.3-.4,0-.2.2-.4.4-.3.2,0,.3.2.3.4Zm3.5-.6h-.9c-.2.9-1.1,1.3-2.1,1.2.1-.2.2-.3.3-.6,0-.6-.3-1.1-.9-1.2-.6,0-1.1.3-1.2.9,0,.8.7,1.5,1.9,1.6,1.5.2,2.6-.7,3-2Z"/>
          <path class="cls-94" d="m95.5,39.1c0,.3-.3.5-.5.4-.3,0-.4-.3-.4-.6,0-.2.3-.5.5-.4.3,0,.4.3.4.6Zm3.4,4.5c0-.4-.1-.8-.4-1.1,0,0,.4-.2.4-.6l.6-3.3-1-.2-.6,3.2c-.2.9-1.3.6-2.6,1.2l.4-2.5c0-.5.4-.6.5-1.2.1-.7-.3-1.3-1-1.4-.7-.1-1.3.3-1.4,1-.1.6.3,1.2.8,1.4.1,0,.2,0,.3,0,0,0-.2.2-.2.4l-.6,3.4,1,.2c.3-.4,1-.6,1.5-.8-.1.7.4,1.2.9,1.3.7.1,1.3-.3,1.4-1Zm-.8-.1c0,.3-.2.4-.5.4-.3,0-.4-.3-.3-.5,0-.2.2-.4.5-.4.2,0,.4.3.3.5Z"/>
          <path class="cls-94" d="m104.4,45.3c0,.3-.3.4-.6.3-.3,0-.3-.4-.3-.6,0-.2.3-.4.6-.3.3,0,.4.4.3.6Zm.7.2c.2-.7-.2-1.3-.8-1.6-.1,0-.2,0-.2,0l1.2-3.6-1-.3-1.5,4.8c-.2.7.1,1.3.8,1.5.7.2,1.4-.1,1.6-.8Zm-2.7-.9c.2-.7-.1-1.3-.8-1.6-.1,0-.2,0-.2,0l1.2-3.6-1-.3-1.5,4.8c-.2.7.1,1.3.8,1.5.7.2,1.4-.1,1.6-.8Zm-.7-.2c0,.3-.3.4-.6.3-.3,0-.3-.4-.3-.6,0-.2.3-.4.6-.3.3,0,.4.4.3.6Z"/>
          <path class="cls-94" d="m107,46.5c-.1.2-.4.4-.6.2-.2-.1-.3-.4-.2-.6.1-.2.4-.3.6-.2.2,0,.3.4.2.6Zm2.1,2.3l1.7-3.7c.6-1.2,0-2.4-1.3-3-1-.5-2.1-.2-2.9.4l.7.7c.4-.4,1.1-.7,1.8-.3.9.5,1,1.2.7,1.9l-.2.4c0,.2-.4,1.2-.4,1.2h0s.2-.8,0-1.3c0-.7-.5-1.2-1.1-1.5-1-.4-2.1.4-2.6,1.5-.7,1.5,0,2.2.4,2.4.6.3,1.4,0,1.7-.6.3-.6,0-1.4-.6-1.7-.2,0-.4,0-.5,0,.2-.5.8-1,1.3-.8.8.3.8,1.8.3,4l.9.4Z"/>
          <path class="cls-94" d="m113.6,45.7c-.1.2-.3.2-.5.1-.2-.1-.2-.3-.1-.5.1-.2.3-.2.5-.1.2.1.2.3.1.5Zm2.9.5l-.8-.5c-.4.7-1.1.9-1.6.7,0,0,.2-.1.3-.2.3-.5.2-1.2-.4-1.6-.5-.3-1.3-.2-1.6.3-.3.5-.2,1.4.8,2,1.7,1.1,2.9.2,3.5-.7Zm-2,3.1l-.8-.5c-.4.7-1.1.9-1.6.7,0,0,.2-.1.3-.2.3-.5.2-1.2-.4-1.6-.5-.3-1.3-.2-1.6.3-.3.5-.2,1.4.8,2,1.7,1.1,2.9.2,3.5-.7Zm-2.9-.5c-.1.2-.4.2-.5.1-.2-.1-.2-.3-.1-.5.1-.2.3-.2.5-.1.2.1.2.3.1.5Z"/>
          <path class="cls-94" d="m117.7,48.5c-.2.2-.5.3-.7,0-.2-.2-.2-.5,0-.7.2-.2.5-.3.7-.1.2.2.2.5,0,.7Zm.9,5.2l4.5-5.4-.8-.6-4.4,5.3c-.4.5-.7.5-1.3,0l-1.2-1,1.8-2.2c.4-.4.7-.3,1-.8.4-.5.3-1.3-.2-1.7-.5-.4-1.3-.4-1.7.1-.4.5-.3,1.1,0,1.6,0,0,.1.1.2.2-.1,0-.2,0-.3.2l-1.6,2-.6-.5-.5.7,2.6,2.2c1,.9,1.8.8,2.4,0Z"/>
          <path class="cls-94" d="m121.2,56.9c-.2.2-.5.2-.7,0-.2-.2-.1-.5,0-.7.2-.2.5-.2.7,0,.2.2.2.5,0,.7Zm4.2-2v-.9c-.2,0-.5,0-.7-.1-.3-.3-.2-.7-.8-1.3-.8-.9-1.7-.5-2.6-.8l-.5.5c.8.7,2.5,2.3,1.6,3.2l-.5.5s0-.2-.2-.2c-.5-.5-1.3-.5-1.8,0-.5.5-.5,1.3,0,1.8.5.5,1.3.6,1.8,0l1.5-1.4c1-1-.1-2.6-.9-3.3.1,0,.6,0,1,.3.5.5.4,1,.8,1.4.3.3.8.4,1.2.4Z"/>
          <path class="cls-94" d="m123.2,61.3l3.3-2.5c.6-.4.7-1.1.2-1.8-.4-.5-1.1-.7-1.8-.4l-.3-1c1-.3,2-.1,2.8.8.8,1.1.8,2.3-.2,3.1l-3.3,2.5-.6-.8Z"/>
          <path class="cls-94" d="m129.2,61.2c-.2.1-.5.1-.7-.1-.1-.2,0-.5.2-.6.2-.1.5-.1.7.1.1.3,0,.5-.2.7Zm-1,5.2l4-2.3-.5-.9-3.8,2.2c-.6.3-.9.2-1.2-.4l-.8-1.3,2.5-1.4c.5-.3.7,0,1.2-.4.6-.3.8-1.1.4-1.7-.3-.6-1.1-.8-1.7-.5-.5.3-.7,1-.5,1.5,0,.1,0,.2.1.2-.1,0-.2,0-.4,0l-2.2,1.3-.4-.7-.7.4,1.7,2.9c.7,1.2,1.4,1.4,2.3.9Z"/>
          <path class="cls-94" d="m132.3,67.1c-.3.1-.5,0-.6-.2-.1-.3,0-.5.3-.6.2,0,.5,0,.6.2.1.3,0,.5-.3.6Zm-1.6,5l6.5-2.7-.4-.9-6.3,2.6c-.6.3-.9,0-1.1-.5l-.6-1.4,2.6-1.1c.5-.2.7,0,1.3-.2.6-.3.9-1,.6-1.6-.3-.6-1-.9-1.6-.7-.6.2-.8.9-.7,1.4,0,.1,0,.2,0,.2-.1,0-.2,0-.4,0l-2.3,1-.3-.7-.8.3,1.3,3.1c.5,1.2,1.2,1.6,2.1,1.2Z"/>
          <path class="cls-94" d="m131.4,76.1c-.3,0-.5,0-.6-.3s.1-.5.4-.6c.3,0,.5,0,.6.3,0,.3,0,.5-.4.6Zm4.7.2l.4-.8c-.2,0-.4-.2-.5-.4-.1-.4.2-.7,0-1.5-.3-1.1-1.3-1.2-2-1.9l-.7.2c.4,1,1.2,3.2,0,3.6l-.7.2s0-.2,0-.3c-.2-.7-.9-1.1-1.6-.9-.7.2-1.1.9-.9,1.6.2.7.9,1.1,1.6.9l2-.6c1.4-.4,1.1-2.4.8-3.3,0,0,.6.3.7.7.2.7-.1,1,0,1.6.1.5.5.8.9.9Z"/>
          <path class="cls-94" d="m131.2,80.9l4.1-.7c.7-.1,1.1-.7,1-1.5-.1-.6-.6-1.1-1.4-1.2l.2-1c1,.2,1.9.8,2.1,2,.2,1.4-.4,2.4-1.6,2.6l-4.1.7-.2-1Z"/>
          <path class="cls-94" d="m136.5,83.8c-.3,0-.5-.1-.5-.4,0-.3.2-.5.5-.5.2,0,.5.1.5.4,0,.3-.2.5-.5.5Zm-4.8,3.9l6.1-.3v-1c0,0-4.9.2-4.9.2.5-.6.8-1.3,1-1.9h2.7c.7-.2,1.2-.7,1.1-1.4,0-.7-.6-1.2-1.3-1.2-.7,0-1.2.6-1.2,1.3,0,.1,0,.2,0,.2h-1.4c-.1-.7-.6-1.2-1.3-1.2-.7,0-1.2.6-1.2,1.3,0,.6.4,1.1,1,1.2.2,0,.4,0,.5,0-.2.6-.8,1.4-1.3,1.8v1Zm1-3.5c-.3,0-.5-.2-.5-.4,0-.3.2-.5.5-.5.3,0,.5.2.5.4,0,.3-.2.5-.5.5Z"/>
          <path class="cls-94" d="m136.6,90.7c-.2,0-.4-.2-.4-.5,0-.3.2-.5.5-.4.3,0,.5.2.4.5,0,.3-.2.5-.5.4Zm-3.8,2.7l4.7.4v-1c0,0-4.4-.3-4.4-.3-.6,0-.8-.4-.8-1v-1.7c.1,0,.9,0,.9,0,.6,0,1,.4,1,1v.8c0,0,.8,0,.8,0v-.9c0-.3.2-.5.4-.5,0,.7.4,1.3,1.1,1.3.7,0,1.2-.5,1.3-1.2,0-.8-.5-1.4-1.3-1.5-.8,0-1.4.4-1.7.9-.2-.6-.7-.9-1.3-1h-1.8c0-.1-.2,2.9-.2,2.9,0,1,.4,1.7,1.3,1.8Z"/>
          <path class="cls-94" d="m130.7,96.8l4,.8c.7.1,1.3-.3,1.5-1,.1-.6-.2-1.3-.9-1.6l.5-.9c.9.5,1.5,1.4,1.2,2.6-.3,1.4-1.2,2.1-2.4,1.9l-4.1-.8.2-1Z"/>
          <path class="cls-94" d="m130.8,101.1c-.3,0-.4-.3-.4-.6,0-.3.4-.4.6-.3.2,0,.4.3.4.6,0,.3-.4.4-.6.3Zm-.2.8c.7.2,1.3-.2,1.5-.9,0-.1,0-.2,0-.2l3.7,1,.3-1-4.8-1.4c-.7-.2-1.3.2-1.5.9-.2.7.2,1.3.8,1.5Z"/>
          <path class="cls-94" d="m129.8,103.9c-.3-.1-.4-.4-.3-.6,0-.2.4-.3.6-.2.3.1.4.4.3.6,0,.2-.4.4-.6.3Zm-2.1,2.2l3.8,1.5c.6.2,1.2.2,1.7,0,0,.4.2.9.8,1.1l.4-1.1c-.4-.1-.5-.4-.5-.6.2-.2.4-.5.5-.9.4-1.1,0-2.1-.6-2.8l-.6.7c.4.4.8,1,.5,1.8-.4,1-1.1,1.1-1.8.8l-.4-.2c-.2,0-1.2-.3-1.2-.3h0s.7,0,1.3,0c.7-.1,1.2-.6,1.4-1.2.3-1-.5-2.1-1.7-2.5-1.5-.6-2.2.1-2.4.6-.3.7,0,1.4.7,1.7.6.3,1.4,0,1.6-.7,0-.2,0-.4,0-.5.5.1,1,.7.9,1.2-.3.8-1.8,1-4,.5l-.4.9Z"/>
          <path class="cls-94" d="m131.2,110.2c-.2-.1-.4-.4-.2-.7.1-.2.4-.3.7-.1.2.1.4.4.2.6-.1.3-.4.3-.7.2Zm-6.6,1.6l5.3,3,.5-.9-2-1.1c-.2-.1-1.6-.8-1.6-.8h0s1.6.4,1.6.4l2.7.5.4-.7-1.8-2-1.2-1.1h0s1,.7,1.3.8h.2c.5.4.4.7,1,1,.6.3,1.3,0,1.7-.5.3-.6.1-1.4-.4-1.7-.5-.3-1.2-.1-1.6.3,0,.1-.1.2-.1.2,0-.1-.1-.2-.3-.3l-3-1.7-.5.8,3.1,3.6-4.7-.8-.5.9Z"/>
          <path class="cls-94" d="m121.8,115.6l3.2,2.4c.5.4,1,.4,1.3.2v-1.1c-.1,0,1.1-.3,1.1-.3.1-.3,0-.9-.4-1.2-.6-.5-1.5-.7-2.4-1.3.1.4.2.9.2,1.1.4-.2.9-.2,1.2,0,.5.4.6,1.1.2,1.6-.4.5-1.1.7-1.6.3-.3-.2-.4-.6-.5-.9-.2-1-.4-2.3-.7-2.9l.6-.8q.9.7,1.5,1.1c.6.4,1.4.5,2.1,1.1.9.7.9,1.9.5,2.8l-.9.2v.9c-.7.7-1.7.9-2.6.2l-3.4-2.6.6-.8Zm3.9,1c.1-.2,0-.5-.1-.6-.2-.1-.4-.1-.6,0-.2.2-.1.5,0,.6.2.1.5.1.6,0Z"/>
          <path class="cls-94" d="m129.4,117.7c.3-.3.4-.5.7-.9l.5.4c0,.7.4,1.5-.3,2.4-.6.7-1.1.8-2.3,1.2-.2,0-.3.1-.5.2l-.7-.6c1-1,1.9-2,2.6-2.8Zm.2,1.6c.3-.4.4-.8.4-1.1,0,.1-.2.3-.3.4-.3.4-.9,1-1.4,1.5.4-.1.9-.3,1.3-.8Z"/>
          <path class="cls-94" d="m121.5,121.1c-.2-.2-.2-.4,0-.6.2-.2.5-.2.6,0,.2.1.2.4,0,.6-.2.2-.5.2-.6,0Zm-3.9-.9l2.9,2.8c1,1,2.4.7,3.4-.4.9-.9,1.1-2.4.3-3.2-.7-.7-1.4-.8-2-1.3-.5-.4-1-.9-1.3-1.3l-.7.7c.2.7.4,2.1.5,3.1,0,.3.1.7.4,1,.5.4,1.2.4,1.7,0,.4-.5.4-1.2,0-1.6-.3-.3-.8-.4-1.2-.2,0-.1,0-.8-.2-1.1.8.8,1.6.9,2.2,1.5.4.4.5,1.3-.2,1.9-.7.8-1.6.7-2.1.2l-2.8-2.8-.7.7Z"/>
        </g>
        <path class="cls-94" d="m76,133.7c0,.3-.3.5-.6.4-.3,0-.4-.4-.4-.7,0-.3.3-.5.6-.4.3,0,.4.4.4.7Zm3.6,4.8l1.7-7.8-1.1-.2-1.7,7.6c-.2.7-.5.9-1.2.7l-1.7-.4.7-3.2c.1-.6.5-.7.6-1.3.2-.7-.3-1.5-1.1-1.6-.8-.2-1.5.3-1.7,1-.1.7.2,1.3.9,1.6.1,0,.2,0,.3,0-.1,0-.2.2-.2.4l-.6,2.8-.9-.2-.2.9,3.7.8c1.5.3,2.2,0,2.5-1.2Z"/>
      </g>
      <g>
        <g>
          <path class="cls-63" d="m54.2,127.1c4.5,3.8,9.5,6.9,15,9.1"/>
          <path class="cls-63" d="m58.4,122.5c4,3.3,8.6,5.9,13.5,7.8"/>
          <path class="cls-33" d="m56.3,124.7c4.3,3.6,9,6.5,14.2,8.5"/>
        </g>
        <g>
          <path class="cls-63" d="m120.8,127.2c-4.5,3.8-9.5,6.9-15,9.1"/>
          <path class="cls-63" d="m116.6,122.7c-4,3.3-8.6,5.9-13.5,7.8"/>
          <path class="cls-33" d="m118.7,124.9c-4.3,3.6-9,6.5-14.2,8.5"/>
        </g>
      </g>
    </g>
  </g>
</svg>