<?xml version="1.0" encoding="UTF-8"?>
<svg id="Layer_1" data-name="Layer 1" xmlns="http://www.w3.org/2000/svg" xmlns:xlink="http://www.w3.org/1999/xlink" viewBox="0 0 263.6 96.4">
  <defs>
    <style>
      .cls-1 {
        fill: none;
      }

      .cls-2 {
        fill: #f89925;
      }

      .cls-3 {
        fill: #f89927;
      }

      .cls-4 {
        fill: #f89e27;
      }

      .cls-5 {
        fill: #f89e29;
      }

      .cls-6 {
        fill: #f89d27;
      }

      .cls-7 {
        fill: #f89b26;
      }

      .cls-8 {
        fill: #f58820;
      }

      .cls-9 {
        fill: #faa62c;
      }

      .cls-10 {
        fill: #faae32;
      }

      .cls-11 {
        fill: #faac31;
      }

      .cls-12 {
        fill: #faad32;
      }

      .cls-13 {
        fill: #faa32b;
      }

      .cls-14 {
        fill: #faaa2f;
      }

      .cls-15 {
        fill: #faa72d;
      }

      .cls-16 {
        fill: #faa72e;
      }

      .cls-17 {
        fill: #faa42c;
      }

      .cls-18 {
        fill: #faa92d;
      }

      .cls-19 {
        fill: #f89826;
      }

      .cls-20 {
        fill: #f9a02a;
      }

      .cls-21 {
        fill: #f99f29;
      }

      .cls-22 {
        fill: #f99c27;
      }

      .cls-23 {
        fill: #f9a129;
      }

      .cls-24 {
        fill: #f9a22b;
      }

      .cls-25 {
        fill: #6a7072;
      }

      .cls-26 {
        fill: #696e72;
      }

      .cls-27 {
        fill: #686e70;
      }

      .cls-28 {
        fill: #676d6f;
      }

      .cls-29 {
        fill: #f68e22;
      }

      .cls-30 {
        fill: #f79525;
      }

      .cls-31 {
        fill: #f79423;
      }

      .cls-32 {
        fill: #f78c23;
      }

      .cls-33 {
        fill: #f79324;
      }

      .cls-34 {
        fill: #f79225;
      }

      .cls-35 {
        fill: #f79627;
      }

      .cls-36 {
        fill: #f78f22;
      }

      .cls-37 {
        fill: #f78e23;
      }

      .cls-38 {
        fill: #f79125;
      }

      .cls-39 {
        fill: #f79023;
      }

      .cls-40 {
        fill: #f68b21;
      }

      .cls-41 {
        fill: #f68a22;
      }

      .cls-42 {
        fill: #f68922;
      }

      .cls-43 {
        fill: #f69123;
      }

      .cls-44 {
        fill: #fbb431;
      }

      .cls-45 {
        fill: #fbb432;
      }

      .cls-46 {
        fill: #fbb233;
      }

      .cls-47 {
        fill: #fcb332;
      }

      .cls-48 {
        fill: #fcb433;
      }

      .cls-49 {
        fill: #fcb733;
      }

      .cls-50 {
        fill: #fcb634;
      }

      .cls-51 {
        fill: #fbae31;
      }

      .cls-52 {
        fill: #fbaf33;
      }

      .cls-53 {
        fill: #fbb032;
      }

      .cls-54 {
        fill: #fbb632;
      }

      .cls-55 {
        fill: #fbb834;
      }

      .cls-56 {
        fill: #fbab31;
      }

      .cls-57 {
        fill: #fbab2f;
      }

      .cls-58 {
        fill: #74767a;
      }

      .cls-59 {
        fill: #656a6e;
      }

      .cls-60 {
        fill: #6c6f73;
      }

      .cls-61 {
        fill: #666c6f;
      }

      .cls-62 {
        fill: #737679;
      }

      .cls-63 {
        fill: #221f1f;
      }

      .cls-64 {
        fill: #707477;
      }

      .cls-65 {
        fill: #707476;
      }

      .cls-66 {
        fill: #717478;
      }

      .cls-67 {
        fill: #6f7376;
      }

      .cls-68 {
        fill: #545d5f;
      }

      .cls-69 {
        fill: #6e7275;
      }

      .cls-70 {
        fill: #6d7173;
      }

      .cls-71 {
        fill: #64696b;
      }

      .cls-72 {
        fill: #63696c;
      }

      .cls-73 {
        fill: #63686b;
      }

      .cls-74 {
        fill: #5b6265;
      }

      .cls-75 {
        fill: #565e60;
      }

      .cls-76 {
        fill: #5c6366;
      }

      .cls-77 {
        fill: #5a6164;
      }

      .cls-78 {
        fill: #586063;
      }

      .cls-79 {
        fill: #575f62;
      }

      .cls-80 {
        fill: #5f6669;
      }

      .cls-81 {
        fill: #75777b;
      }

      .cls-82 {
        fill: #76797c;
      }

      .cls-83 {
        fill: #797c7f;
      }

      .cls-84 {
        fill: #77797c;
      }

      .cls-85 {
        fill: #777a7d;
      }

      .cls-86 {
        fill: #5e6668;
      }

      .cls-87 {
        fill: #5d6467;
      }

      .cls-88 {
        fill: #60676a;
      }

      .cls-89 {
        fill: #727579;
      }

      .cls-90 {
        fill: #787a7e;
      }

      .cls-91 {
        fill: #7a7d7f;
      }

      .cls-92 {
        clip-path: url(#clippath-3);
      }

      .cls-93 {
        clip-path: url(#clippath-2);
      }

      .cls-94 {
        filter: url(#drop-shadow-2);
      }
    </style>
    <filter id="drop-shadow-2" filterUnits="userSpaceOnUse">
      <feOffset dx="1" dy="1"/>
      <feGaussianBlur result="blur" stdDeviation="1"/>
      <feFlood flood-color="#231f20" flood-opacity=".4"/>
      <feComposite in2="blur" operator="in"/>
      <feComposite in="SourceGraphic"/>
    </filter>
    <clipPath id="clippath-2">
      <path class="cls-1" d="m47.4,83.8l41.1-38.2s-7.8.3-10-1.8l-31.1,40Z"/>
    </clipPath>
    <clipPath id="clippath-3">
      <path class="cls-1" d="m109.1,11.3c-3.7-2.4-8.8-6-12.9-7.3h.1s-11-4-21,.3h0c-2,.7-4,1.6-5.9,2.6-5,2.7-9.5,6.1-13.8,9.6-4.4,3.6-8.7,7.3-13.1,10.8-3.4,2.8-7.1,5.2-11.2,6.9-4.9,2.1-9.9,2.7-15.1,1.2-4.4-1.2-8.3-3.4-11.8-6.3-.6-.5-1.4-1.1-2-1.5l45.1,56.1L109.1,11.3Z"/>
    </clipPath>
  </defs>
  <g class="cls-94">
    <g>
      <g>
        <path class="cls-91" d="m105.7,37.4c-3.3,3.1-7.6,5.6-12,7.1-5.1,1.7-10.1,1.5-15.1-.3-4.2-1.5-8-3.6-11.6-6.2-4.6-3.3-9.2-6.6-13.8-9.9-4.6-3.3-9.2-6.4-14.4-8.7-2-.9-4-1.7-6.1-2.2h0c-10.3-3.7-21,1-21,1h.1c-4.2,1.6-8,3.9-11.6,6.5,0,0-.2,0-.3.1,20.6,25.6,37.1,46,57.6,71.6l49.8-60.6c-.6.5-1.2,1-1.8,1.6Z"/>
        <g class="cls-93">
          <rect class="cls-68" x="47.4" y="43.9" width=".9" height="40"/>
          <rect class="cls-75" x="48.4" y="43.9" width=".9" height="40"/>
          <rect class="cls-79" x="49.3" y="43.9" width=".9" height="40"/>
          <rect class="cls-78" x="50.2" y="43.9" width=".9" height="40"/>
          <rect class="cls-77" x="51.2" y="43.9" width=".9" height="40"/>
          <rect class="cls-74" x="52.1" y="43.9" width=".9" height="40"/>
          <rect class="cls-76" x="53" y="43.9" width=".9" height="40"/>
          <rect class="cls-87" x="54" y="43.9" width=".9" height="40"/>
          <rect class="cls-86" x="54.9" y="43.9" width=".9" height="40"/>
          <rect class="cls-80" x="55.8" y="43.9" width=".9" height="40"/>
          <rect class="cls-88" x="56.8" y="43.9" width=".9" height="40"/>
          <rect class="cls-73" x="57.7" y="43.9" width=".9" height="40"/>
          <rect class="cls-72" x="58.6" y="43.9" width=".9" height="40"/>
          <rect class="cls-71" x="59.6" y="43.9" width=".9" height="40"/>
          <rect class="cls-59" x="60.5" y="43.9" width=".9" height="40"/>
          <rect class="cls-61" x="61.4" y="43.9" width=".9" height="40"/>
          <rect class="cls-28" x="62.4" y="43.9" width=".9" height="40"/>
          <rect class="cls-27" x="63.3" y="43.9" width=".9" height="40"/>
          <rect class="cls-26" x="64.2" y="43.9" width=".9" height="40"/>
          <rect class="cls-25" x="65.2" y="43.9" width=".9" height="40"/>
          <rect class="cls-60" x="66.1" y="43.9" width=".9" height="40"/>
          <rect class="cls-70" x="67.1" y="43.9" width=".9" height="40"/>
          <rect class="cls-69" x="68" y="43.9" width=".9" height="40"/>
          <rect class="cls-67" x="68.9" y="43.9" width=".9" height="40"/>
          <rect class="cls-65" x="69.9" y="43.9" width=".9" height="40"/>
          <rect class="cls-64" x="70.8" y="43.9" width=".9" height="40"/>
          <rect class="cls-66" x="71.7" y="43.9" width=".9" height="40"/>
          <rect class="cls-89" x="72.7" y="43.9" width=".9" height="40"/>
          <rect class="cls-62" x="73.6" y="43.9" width=".9" height="40"/>
          <rect class="cls-58" x="74.5" y="43.9" width=".9" height="40"/>
          <rect class="cls-81" x="75.5" y="43.9" width=".9" height="40"/>
          <rect class="cls-81" x="76.4" y="43.9" width=".9" height="40"/>
          <rect class="cls-82" x="77.3" y="43.9" width=".9" height="40"/>
          <rect class="cls-82" x="78.3" y="43.9" width=".9" height="40"/>
          <rect class="cls-84" x="79.2" y="43.9" width=".9" height="40"/>
          <rect class="cls-85" x="80.1" y="43.9" width=".9" height="40"/>
          <rect class="cls-90" x="81.1" y="43.9" width=".9" height="40"/>
          <rect class="cls-90" x="82" y="43.9" width=".9" height="40"/>
          <rect class="cls-83" x="82.9" y="43.9" width=".9" height="40"/>
          <rect class="cls-83" x="83.9" y="43.9" width=".9" height="40"/>
          <rect class="cls-91" x="84.8" y="43.9" width=".9" height="40"/>
          <rect class="cls-91" x="85.7" y="43.9" width=".9" height="40"/>
          <rect class="cls-91" x="86.7" y="43.9" width=".9" height="40"/>
          <rect class="cls-91" x="87.6" y="43.9" width=".9" height="40"/>
        </g>
        <g class="cls-92">
          <polygon class="cls-8" points="2.3 31.1 51.6 83.8 2.3 83.8 2.3 31.1"/>
          <polygon class="cls-8" points="2.3 29 53.6 83.8 51.6 83.8 2.3 31.1 2.3 29"/>
          <polygon class="cls-42" points="2.3 26.8 55.6 83.8 53.6 83.8 2.3 29 2.3 26.8"/>
          <polygon class="cls-42" points="2.3 24.7 57.6 83.8 55.6 83.8 2.3 26.8 2.3 24.7"/>
          <polygon class="cls-42" points="2.3 22.5 59.6 83.8 57.6 83.8 2.3 24.7 2.3 22.5"/>
          <polygon class="cls-41" points="2.3 20.4 61.6 83.8 59.6 83.8 2.3 22.5 2.3 20.4"/>
          <polygon class="cls-40" points="2.3 18.2 63.6 83.8 61.6 83.8 2.3 20.4 2.3 18.2"/>
          <polygon class="cls-40" points="2.3 16.1 65.6 83.8 63.6 83.8 2.3 18.2 2.3 16.1"/>
          <polygon class="cls-32" points="2.3 14 67.6 83.8 65.6 83.8 2.3 16.1 2.3 14"/>
          <polygon class="cls-29" points="2.3 11.8 69.6 83.8 67.6 83.8 2.3 14 2.3 11.8"/>
          <polygon class="cls-29" points="2.3 9.7 70.7 82.9 69.7 83.8 69.6 83.8 2.3 11.8 2.3 9.7"/>
          <polygon class="cls-37" points="2.3 7.5 71.8 81.9 70.7 82.9 2.3 9.7 2.3 7.5"/>
          <polygon class="cls-36" points="2.3 6.9 3.1 6.2 72.9 80.9 71.8 81.9 2.3 7.5 2.3 6.9"/>
          <rect class="cls-36" x="37.8" y="-8.1" width="1.5" height="102.2" transform="translate(-19 37.9) rotate(-43.1)"/>
          <rect class="cls-39" x="38.9" y="-9.1" width="1.5" height="102.2" transform="translate(-18 38.3) rotate(-43.1)"/>
          <rect class="cls-43" x="39.9" y="-10.1" width="1.5" height="102.2" transform="translate(-17.1 38.8) rotate(-43.1)"/>
          <rect class="cls-38" x="41" y="-11" width="1.5" height="102.2" transform="translate(-16.1 39.3) rotate(-43.1)"/>
          <rect class="cls-34" x="42.1" y="-12" width="1.5" height="102.2" transform="translate(-15.1 39.7) rotate(-43.1)"/>
          <rect class="cls-33" x="43.1" y="-13" width="1.5" height="102.2" transform="translate(-14.2 40.2) rotate(-43.1)"/>
          <polygon class="cls-33" points="9.5 .2 9.7 0 11.3 0 80.3 73.9 79.3 74.9 9.5 .2"/>
          <polygon class="cls-31" points="13.3 0 81.4 72.9 80.3 73.9 11.3 0 13.3 0"/>
          <polygon class="cls-30" points="15.3 0 82.5 71.9 81.4 72.9 13.3 0 15.3 0"/>
          <polygon class="cls-30" points="17.3 0 83.5 70.9 82.5 71.9 15.3 0 17.3 0"/>
          <polygon class="cls-30" points="19.3 0 84.6 69.9 83.5 70.9 17.3 0 19.3 0"/>
          <polygon class="cls-35" points="21.3 0 85.7 68.9 84.6 69.9 19.3 0 21.3 0"/>
          <polygon class="cls-19" points="23.3 0 86.8 67.9 85.7 68.9 21.3 0 23.3 0"/>
          <polygon class="cls-19" points="25.3 0 87.8 66.9 86.8 67.9 23.3 0 25.3 0"/>
          <polygon class="cls-2" points="27.3 0 88.9 65.9 87.8 66.9 25.3 0 27.3 0"/>
          <polygon class="cls-3" points="29.3 0 90 64.9 88.9 65.9 27.3 0 29.3 0"/>
          <polygon class="cls-3" points="31.3 0 91 63.9 90 64.9 29.3 0 31.3 0"/>
          <polygon class="cls-7" points="33.3 0 92.1 62.9 91 63.9 31.3 0 33.3 0"/>
          <polygon class="cls-22" points="35.3 0 93.2 61.9 92.1 62.9 33.3 0 35.3 0"/>
          <polygon class="cls-6" points="37.3 0 94.2 60.9 93.2 61.9 35.3 0 37.3 0"/>
          <polygon class="cls-4" points="39.3 0 95.3 59.9 94.2 60.9 37.3 0 39.3 0"/>
          <polygon class="cls-5" points="41.3 0 96.4 58.9 95.3 59.9 39.3 0 41.3 0"/>
          <polygon class="cls-21" points="43.3 0 97.4 57.9 96.4 58.9 41.3 0 43.3 0"/>
          <polygon class="cls-20" points="45.3 0 98.5 56.9 97.4 57.9 43.3 0 45.3 0"/>
          <polygon class="cls-20" points="47.4 0 99.6 55.9 98.5 56.9 45.3 0 47.4 0"/>
          <polygon class="cls-23" points="49.4 0 100.6 54.9 99.6 55.9 47.4 0 49.4 0"/>
          <polygon class="cls-24" points="51.4 0 101.7 53.9 100.6 54.9 49.4 0 51.4 0"/>
          <polygon class="cls-24" points="53.4 0 102.8 52.9 101.7 53.9 51.4 0 53.4 0"/>
          <polygon class="cls-13" points="55.4 0 103.9 51.9 102.8 52.9 53.4 0 55.4 0"/>
          <polygon class="cls-17" points="57.4 0 104.9 50.9 103.9 51.9 55.4 0 57.4 0"/>
          <polygon class="cls-9" points="59.4 0 106 49.9 104.9 50.9 57.4 0 59.4 0"/>
          <polygon class="cls-9" points="61.4 0 107.1 48.9 106 49.9 59.4 0 61.4 0"/>
          <polygon class="cls-9" points="63.4 0 108.1 47.9 107.1 48.9 61.4 0 63.4 0"/>
          <polygon class="cls-15" points="65.4 0 109.1 46.8 109.1 47 108.1 47.9 63.4 0 65.4 0"/>
          <polygon class="cls-16" points="67.4 0 109.1 44.7 109.1 46.8 65.4 0 67.4 0"/>
          <polygon class="cls-18" points="69.4 0 109.1 42.5 109.1 44.7 67.4 0 69.4 0"/>
          <polygon class="cls-18" points="71.4 0 109.1 40.4 109.1 42.5 69.4 0 71.4 0"/>
          <polygon class="cls-14" points="73.4 0 109.1 38.2 109.1 40.4 71.4 0 73.4 0"/>
          <polygon class="cls-57" points="75.4 0 109.1 36.1 109.1 38.2 73.4 0 75.4 0"/>
          <polygon class="cls-56" points="77.4 0 109.1 34 109.1 36.1 75.4 0 77.4 0"/>
          <polygon class="cls-11" points="79.4 0 109.1 31.8 109.1 34 77.4 0 79.4 0"/>
          <polygon class="cls-12" points="81.4 0 109.1 29.7 109.1 31.8 79.4 0 81.4 0"/>
          <polygon class="cls-10" points="83.4 0 109.1 27.5 109.1 29.7 81.4 0 83.4 0"/>
          <polygon class="cls-51" points="85.4 0 109.1 25.4 109.1 27.5 83.4 0 85.4 0"/>
          <polygon class="cls-52" points="87.4 0 109.1 23.2 109.1 25.4 85.4 0 87.4 0"/>
          <polygon class="cls-53" points="89.4 0 109.1 21.1 109.1 23.2 87.4 0 89.4 0"/>
          <polygon class="cls-46" points="91.4 0 109.1 19 109.1 21.1 89.4 0 91.4 0"/>
          <polygon class="cls-47" points="93.4 0 109.1 16.8 109.1 19 91.4 0 93.4 0"/>
          <polygon class="cls-44" points="95.4 0 109.1 14.7 109.1 16.8 93.4 0 95.4 0"/>
          <polygon class="cls-48" points="97.4 0 109.1 12.5 109.1 14.7 95.4 0 97.4 0"/>
          <polygon class="cls-45" points="99.4 0 109.1 10.4 109.1 12.5 97.4 0 99.4 0"/>
          <polygon class="cls-54" points="101.4 0 109.1 8.2 109.1 10.4 99.4 0 101.4 0"/>
          <polygon class="cls-50" points="103.4 0 109.1 6.1 109.1 8.2 101.4 0 103.4 0"/>
          <polygon class="cls-49" points="105.4 0 109.1 4 109.1 6.1 103.4 0 105.4 0"/>
          <polygon class="cls-55" points="107.4 0 109.1 1.8 109.1 4 105.4 0 107.4 0"/>
          <polygon class="cls-55" points="109.1 1.8 107.4 0 109.1 0 109.1 1.8"/>
        </g>
      </g>
      <g>
        <path class="cls-8" d="m111.7,96.1c0,.1,0,.2-.1.2,0,0-.1,0-.3,0h-.9c-.2,0-.3,0-.3,0,0,0,0-.1-.1-.2l-2.2-6.8c0-.2,0-.4,0-.4,0,0,.2,0,.3,0h.7c.1,0,.2,0,.3,0,0,0,0,.1.1.3.1.5.3.9.4,1.3.1.4.3.8.4,1.3.1.4.3.8.4,1.3.1.4.3.9.4,1.3l1.6-5.2c0-.1,0-.2.1-.3,0,0,.1,0,.2,0h.7c.2,0,.3,0,.3,0,0,0,0,.2,0,.3l-2.2,6.9Z"/>
        <path class="cls-8" d="m121.2,96.4c-.2,0-.3,0-.3,0,0,0,0-.2,0-.3v-6.8c0-.1,0-.2,0-.3,0,0,.2,0,.3,0h.7c.2,0,.3,0,.3,0,0,0,0,.2,0,.3v6.8c0,.1,0,.2,0,.3,0,0-.1,0-.3,0h-.7Z"/>
        <path class="cls-8" d="m131.6,96.4c-.6,0-1.1,0-1.5-.1-.4,0-.7-.2-.8-.3,0,0,0-.1,0-.3,0-.1,0-.3,0-.4,0-.1,0-.3.1-.4,0-.1,0-.2.1-.2.2,0,.5.2.8.2.3,0,.6.1,1.1.1s.8,0,1.1-.2c.3-.1.5-.4.5-.7s-.1-.5-.3-.7c-.2-.2-.6-.4-1.1-.6-.3-.1-.6-.2-.8-.4-.3-.1-.5-.3-.7-.5-.2-.2-.3-.4-.5-.6-.1-.2-.2-.5-.2-.9s0-.5.2-.8c.1-.2.3-.5.5-.6.2-.2.5-.3.8-.4.3-.1.8-.2,1.2-.2s.6,0,.8,0c.2,0,.4,0,.5,0,.1,0,.2,0,.3,0,0,0,.2,0,.2,0,0,0,0,.1,0,.2s0,.3,0,.4c0,.2,0,.3-.2.4,0,.1-.1.2-.2.1-.2,0-.4,0-.6-.2-.3,0-.5,0-.8,0-.5,0-.9,0-1.1.2-.2.1-.3.3-.3.6s.1.5.3.6c.2.2.6.3,1,.5.7.3,1.3.6,1.7,1,.4.4.5.9.5,1.4s0,.8-.2,1.1c-.2.3-.4.5-.7.7-.3.2-.6.3-.9.4-.4,0-.7.1-1.1.1Z"/>
        <path class="cls-8" d="m141.9,96.4c-.2,0-.3,0-.3,0,0,0,0-.2,0-.3v-6.8c0-.1,0-.2,0-.3,0,0,.2,0,.3,0h.7c.2,0,.3,0,.3,0,0,0,0,.2,0,.3v6.8c0,.1,0,.2,0,.3,0,0-.1,0-.3,0h-.7Z"/>
        <path class="cls-8" d="m153.4,96.4c-.3,0-.6,0-.9,0-.3,0-.7-.1-.9-.3s-.5-.4-.7-.7c-.2-.3-.3-.7-.3-1.2v-2.9c0-.9.2-1.6.7-2,.5-.4,1.2-.6,2.2-.6s.8,0,1.1.1c.4,0,.7.2.9.4.3.2.5.5.6.8.1.3.2.8.2,1.3v2.7c0,.4,0,.8-.1,1.1,0,.3-.2.5-.4.7-.2.2-.3.3-.5.4-.2.1-.4.2-.6.2-.2,0-.4,0-.6,0-.2,0-.4,0-.5,0Zm1.4-5.1c0-.5-.1-.9-.4-1.1-.2-.2-.6-.3-1-.3s-1,.1-1.2.4c-.2.3-.3.6-.3,1.1v2.6c0,.2,0,.4.1.6,0,.2.2.3.3.4.1,0,.3.2.5.2.2,0,.4,0,.5,0s.4,0,.6,0c.2,0,.3,0,.5-.2.1-.1.2-.2.3-.4,0-.2.1-.4.1-.7v-2.5Z"/>
        <path class="cls-8" d="m168.6,96.4c-.1,0-.2,0-.3,0,0,0-.1-.1-.2-.3l-3-4.8v4.7c0,.2,0,.3,0,.4,0,0-.1.1-.3.1h-.6c0,0-.2,0-.3,0,0,0-.1-.2-.1-.4v-6.7s0,0,0-.1c0,0,0-.1,0-.2,0,0,0,0,0-.1,0,0,.1,0,.2,0h.6c.2,0,.3,0,.3,0,0,0,.1,0,.2.1,0,0,0,0,0,0s0,0,.1.2c0,0,.2.2.3.5.1.2.3.5.5.9.2.4.5.8.9,1.4.4.6.8,1.3,1.3,2.1h0v-.2c0,0,0-.2,0-.4,0-.2,0-.5,0-.8v-3.3c0-.1,0-.2,0-.3,0-.1.1-.2.2-.1h.7c.2,0,.3,0,.3.1,0,0,0,.2,0,.4v6.6c0,.2,0,.3,0,.4,0,0-.1.1-.3.1h-.6Z"/>
        <path class="cls-91" d="m188.2,93.8s0,0,0,0v2.1c0,.2,0,.3,0,.4,0,0-.2,0-.3,0h-.7c-.2,0-.3,0-.3-.1,0,0,0-.2,0-.4v-6.7c0-.1,0-.2,0-.3s.2,0,.3,0h2.1c1,0,1.8.2,2.2.6.5.4.7,1,.7,1.8s-.2,1.4-.7,1.9c-.4.4-1.1.6-2.1.6h-1.2Zm0-3.8s0,0,0,0v2.5s0,0,0,0h1.3c.3,0,.6-.1.8-.3.2-.2.3-.6.3-1s-.1-.7-.4-.9-.6-.3-1.1-.3h-1Z"/>
        <path class="cls-91" d="m203.3,96.4c-.1,0-.2,0-.2,0,0,0,0-.1-.1-.2l-.4-1.4h-2.4l-.4,1.3c0,.1,0,.2-.1.3,0,0-.1,0-.3,0h-.7c-.1,0-.2,0-.3,0,0,0,0-.2,0-.4l2.1-6.7c0-.1.1-.3.2-.3,0,0,.2,0,.3,0h.8c.2,0,.3,0,.3,0,0,0,.1.2.2.3l2.1,6.7c0,.2,0,.4,0,.4,0,0-.2,0-.4,0h-.7Zm-2-5.5l-.9,2.7h1.7l-.8-2.7Z"/>
        <path class="cls-91" d="m213.5,96.4c-.6,0-1.1,0-1.5-.1-.4,0-.7-.2-.8-.3,0,0,0-.1,0-.3,0-.1,0-.3,0-.4,0-.1,0-.3.1-.4,0-.1,0-.2.1-.2.2,0,.5.2.8.2.3,0,.6.1,1.1.1s.8,0,1.1-.2c.3-.1.5-.4.5-.7s-.1-.5-.3-.7c-.2-.2-.6-.4-1.1-.6-.3-.1-.6-.2-.8-.4-.3-.1-.5-.3-.7-.5-.2-.2-.3-.4-.5-.6-.1-.2-.2-.5-.2-.9s0-.5.2-.8c.1-.2.3-.5.5-.6.2-.2.5-.3.9-.4.3-.1.8-.2,1.2-.2s.6,0,.8,0c.2,0,.4,0,.5,0,.1,0,.2,0,.3,0,0,0,.2,0,.2,0,0,0,0,.1,0,.2s0,.3,0,.4c0,.2,0,.3-.2.4,0,.1-.1.2-.2.1-.2,0-.4,0-.6-.2-.3,0-.5,0-.8,0-.5,0-.9,0-1.1.2-.2.1-.3.3-.3.6s.1.5.3.6c.2.2.6.3,1,.5.7.3,1.3.6,1.7,1,.4.4.5.9.5,1.4s0,.8-.2,1.1c-.2.3-.4.5-.7.7-.3.2-.6.3-.9.4-.4,0-.7.1-1.1.1Z"/>
        <path class="cls-91" d="m225.6,96.4c-.6,0-1.1,0-1.5-.1-.4,0-.7-.2-.8-.3,0,0,0-.1,0-.3,0-.1,0-.3,0-.4,0-.1,0-.3.1-.4,0-.1,0-.2.1-.2.2,0,.5.2.8.2.3,0,.6.1,1.1.1s.8,0,1.1-.2c.3-.1.5-.4.5-.7s-.1-.5-.3-.7c-.2-.2-.6-.4-1.1-.6-.3-.1-.6-.2-.8-.4-.3-.1-.5-.3-.7-.5-.2-.2-.3-.4-.5-.6-.1-.2-.2-.5-.2-.9s0-.5.2-.8c.1-.2.3-.5.5-.6.2-.2.5-.3.9-.4.3-.1.8-.2,1.2-.2s.6,0,.8,0c.2,0,.4,0,.5,0,.1,0,.2,0,.3,0s.2,0,.2,0c0,0,0,.1,0,.2s0,.3,0,.4c0,.2,0,.3-.2.4,0,.1-.1.2-.2.1-.2,0-.4,0-.6-.2-.3,0-.5,0-.8,0-.5,0-.9,0-1.1.2-.2.1-.3.3-.3.6s.1.5.3.6c.2.2.6.3,1,.5.7.3,1.3.6,1.7,1,.4.4.5.9.5,1.4s0,.8-.2,1.1c-.2.3-.4.5-.7.7-.3.2-.6.3-.9.4-.4,0-.7.1-1.1.1Z"/>
        <path class="cls-91" d="m235.9,96.4c-.2,0-.3,0-.3,0,0,0,0-.2,0-.3v-6.8c0-.1,0-.2,0-.3,0,0,.2,0,.3,0h.7c.2,0,.3,0,.3,0,0,0,0,.2,0,.3v6.8c0,.1,0,.2,0,.3,0,0-.1,0-.3,0h-.7Z"/>
        <path class="cls-91" d="m247.4,96.4c-.3,0-.6,0-.9,0-.3,0-.7-.1-.9-.3s-.5-.4-.7-.7c-.2-.3-.3-.7-.3-1.2v-2.9c0-.9.2-1.6.7-2,.5-.4,1.2-.6,2.2-.6s.8,0,1.1.1c.4,0,.7.2.9.4.3.2.5.5.6.8.1.3.2.8.2,1.3v2.7c0,.4,0,.8-.1,1.1,0,.3-.2.5-.4.7-.2.2-.3.3-.5.4-.2.1-.4.2-.6.2-.2,0-.4,0-.6,0-.2,0-.4,0-.5,0Zm1.4-5.1c0-.5-.1-.9-.4-1.1-.2-.2-.6-.3-1-.3s-1,.1-1.2.4c-.2.3-.3.6-.3,1.1v2.6c0,.2,0,.4.1.6,0,.2.2.3.3.4.1,0,.3.2.5.2.2,0,.4,0,.5,0s.4,0,.6,0c.2,0,.3,0,.5-.2.1-.1.2-.2.3-.4,0-.2.1-.4.1-.7v-2.5Z"/>
        <path class="cls-91" d="m262.6,96.4c-.1,0-.2,0-.3,0,0,0-.1-.1-.2-.3l-3-4.8v4.7c0,.2,0,.3,0,.4s-.1.1-.3.1h-.6c0,0-.2,0-.3,0,0,0-.1-.2-.1-.4v-6.7s0,0,0-.1c0,0,0-.1,0-.2,0,0,0,0,0-.1,0,0,.1,0,.2,0h.6c.2,0,.3,0,.3,0,0,0,.1,0,.2.1,0,0,0,0,0,0,0,0,0,0,.1.2,0,0,.2.2.3.5.1.2.3.5.5.9.2.4.5.8.9,1.4.4.6.8,1.3,1.3,2.1h0v-.2c0,0,0-.2,0-.4,0-.2,0-.5,0-.8v-3.3c0-.1,0-.2,0-.3,0-.1.1-.2.2-.1h.7c.2,0,.3,0,.3.1,0,0,0,.2,0,.4v6.6c0,.2,0,.3,0,.4,0,0-.1.1-.3.1h-.6Z"/>
      </g>
      <g>
        <path class="cls-8" d="m108,83.1l-.8-47.4h16.9l-2.1,32.1,17.4-32.1h16.6l-29.2,47.4h-18.9Z"/>
        <path class="cls-8" d="m150.2,83.1l13.2-47.4h16l-13.3,47.4h-15.8Z"/>
        <path class="cls-91" d="m174.9,83.1l13.9-47.4h19.4c12.9,0,19.3,3.3,19.3,9.9s-.8,5.9-2.5,8.8c-1.7,3.1-4.1,5.5-7,7.2-4,2.3-9.1,3.4-15.5,3.4s-3.1-.1-6.6-.4l-5.9,18.5h-15.2Zm23.8-26.9h1.7c6.3,0,9.9-2,10.8-6.1v-2.4c.3-2.4-2.8-3.6-9.1-3.6l-3.4,12.1Z"/>
        <path class="cls-91" d="m215.9,83.1l29.1-47.4h18l-.5,47.9-14.8-.4.8-8.9h-12.6l-4.9,8.9h-15.2Zm33.2-18l2.3-21.4-11.1,21.4h8.9Z"/>
      </g>
      <path class="cls-63" d="m181,92.4c0,1.6-1.3,2.8-2.8,2.8s-2.8-1.3-2.8-2.8,1.3-2.8,2.8-2.8,2.8,1.3,2.8,2.8Z"/>
    </g>
  </g>
</svg>