<?xml version="1.0" encoding="UTF-8"?>
<svg id="Layer_1" data-name="Layer 1" xmlns="http://www.w3.org/2000/svg" xmlns:xlink="http://www.w3.org/1999/xlink" viewBox="0 0 355.6 150">
  <defs>
    <style>
      .cls-1 {
        fill: none;
      }

      .cls-2 {
        fill: #eb2227;
      }

      .cls-3 {
        fill: #fff;
      }

      .cls-4 {
        fill: #231f20;
      }

      .cls-5 {
        clip-path: url(#clippath-1);
      }

      .cls-6 {
        filter: url(#drop-shadow-7);
      }
    </style>
    <filter id="drop-shadow-7" filterUnits="userSpaceOnUse">
      <feOffset dx="1" dy="1"/>
      <feGaussianBlur result="blur" stdDeviation="1"/>
      <feFlood flood-color="#231f20" flood-opacity=".4"/>
      <feComposite in2="blur" operator="in"/>
      <feComposite in="SourceGraphic"/>
    </filter>
    <clipPath id="clippath-1">
      <rect class="cls-1" x="92.4" y="18.5" width="16.2" height="16.2" transform="translate(13.4 83.4) rotate(-47.9)"/>
    </clipPath>
  </defs>
  <g class="cls-6">
    <path class="cls-3" d="m21.6,112.9c-1-.9-2.2-1.6-3.6-2-1.4-.5-2.9-.7-4.5-.7-2.9,0-5.5.8-7.7,2.5v-2H.3v28.6h5.5v-18.5c0-1.5.8-2.7,2.3-3.7,1.7-1.1,3.5-1.7,5.3-1.7s3.3.5,4.4,1.4c1,.9,1.6,2.3,1.6,4v18.5h5.5v-18.9c0-1.5-.3-3-.8-4.2-.6-1.2-1.4-2.3-2.4-3.2Z"/>
    <polygon class="cls-3" points="24.6 101 19.4 101 19.4 104.2 3.4 104.2 3.4 108.8 24.6 108.8 24.6 101"/>
    <rect class="cls-3" x="19.4" y="92.7" width="5.3" height="7.2"/>
    <path class="cls-3" d="m137.3,98.9l-4-3.5-3.6,3.9,7.5,6.2,3.3-2.8.2.2c-2.1,2.2-3.1,4.8-3.1,7.6v28.7h5.5v-29.4c0-2.9,1.1-5.3,3.3-7.1l.6-.5-5.8-6.6-4,3.2Z"/>
    <path class="cls-3" d="m167,129.1c0,1.7-.5,3-1.6,4-1.1,1-2.5,1.4-4.4,1.4s-3.6-.6-5.2-1.6c-1.6-1-2.3-2.3-2.3-3.7v-18.5h-5.5v28.6h5.5v-2c2.3,1.6,4.9,2.5,7.7,2.5s6-.9,8.1-2.8c2.1-1.9,3.2-4.4,3.2-7.4v-18.9h-5.5v18.5Z"/>
    <rect class="cls-3" x="167.2" y="99.7" width="5.5" height="8.9"/>
    <path class="cls-3" d="m202.2,111.6l.5-.6-4.5-3-2.7,3c-1.6-.6-3.3-.8-5-.8-3.1,0-5.9.7-8.2,2.1-2.3,1.4-4,3.6-4.9,6.3l-.3.9h5.8l.2-.4c1.3-2.5,3.8-3.8,7.5-3.8s2.8.3,4,1c1.1.6,1.9,1.3,2.3,2.1v2.4c-2.1-1.4-4.7-2.1-7.7-2.1s-7.1,1.1-9.5,3.4c-2.3,2.2-3.5,4.9-3.5,8s.9,4.8,2.7,6.7c1.9,1.9,4.2,2.8,6.9,2.8s5.1-.8,6.9-2.3l.5-.5-3.2-4-.5.3c-1.1.7-2.4,1.1-3.7,1.1s-2.1-.4-2.9-1.2c-.8-.8-1.2-1.8-1.2-3,0-1.7.7-3.2,2-4.4,1.3-1.2,3.2-1.8,5.5-1.8s3.4.4,4.8,1.1c1.3.7,2.3,1.6,2.9,2.7v11.5h5.5v-22c-.5-1.3-1.2-2.4-2.1-3.4.3-.3.5-.6.8-.9.4-.4.8-.9,1.2-1.4Z"/>
    <path class="cls-3" d="m227.1,129.7c0,1.5-.6,2.5-1.9,3.4-1.3.9-3,1.4-4.9,1.4s-3.5-.4-4.8-1.3c-1.4-.9-2-2-2-3.5v-19.1h-5.5v19.1c0,2.9,1.2,5.3,3.7,7.2,2.4,1.9,5.3,2.8,8.6,2.8s6.2-.9,8.5-2.8c2.5-1.9,3.7-4.3,3.7-7.2v-19.1h-5.5v19.1Z"/>
    <path class="cls-3" d="m34.9,98.9l-4-3.5-3.6,3.9,7.5,6.2,3.3-2.8.2.2c-2.1,2.2-3.1,4.8-3.1,7.6v28.7h5.5v-29.4c0-2.9,1.1-5.3,3.3-7.1l.6-.5-5.8-6.6-4,3.2Z"/>
    <path class="cls-3" d="m64.7,129.1c0,1.7-.5,3-1.6,4-1.1,1-2.5,1.4-4.4,1.4s-3.6-.6-5.2-1.6c-1.6-1-2.3-2.3-2.3-3.7v-18.5h-5.5v28.6h5.5v-2c2.3,1.6,4.9,2.5,7.7,2.5s6-.9,8.1-2.8c2.1-1.9,3.2-4.4,3.2-7.4v-18.9h-5.5v18.5Z"/>
    <rect class="cls-3" x="64.7" y="99.7" width="5.5" height="8.9"/>
    <path class="cls-3" d="m87.9,110.1c-4,0-7.4,1.6-10.1,4.7-2.6,3.1-4,6.7-4.1,10.8,0,4.2.9,7.6,2.8,10.1,1.9,2.6,4.8,3.9,8.4,3.9s5.4-1.2,7.3-3.5l.4-.5-3.9-3.5-.5.6c-1,1.1-2,1.7-3.3,1.7-1.9,0-3.3-.8-4.3-2.6-1-1.5-1.5-3.6-1.4-6.1,0-2.7.9-5.1,2.5-7.1,1.7-2.1,3.9-3.2,6.5-3.2s4.5.9,5.7,2.8v21.1h5.5v-22.9c-2.3-4.1-6.2-6.2-11.5-6.2Z"/>
    <polygon class="cls-3" points="99.1 101 93.9 101 93.9 104.2 92.6 104.2 92.6 101 88 101 88 104.2 77.9 104.2 77.9 108.8 99.1 108.8 99.1 101"/>
    <rect class="cls-3" x="93.9" y="92.7" width="5.3" height="7.2"/>
    <path class="cls-3" d="m124,129.1c0,1.7-.5,3-1.6,4-1.1,1-2.5,1.4-4.4,1.4s-3.6-.6-5.2-1.6c-1.6-1-2.3-2.3-2.3-3.7v-18.5h-5.5v28.6h5.5v-2c2.3,1.6,4.9,2.5,7.7,2.5s6-.9,8.1-2.8c2.1-1.9,3.2-4.4,3.2-7.4v-18.9h-5.5v18.5Z"/>
    <path class="cls-3" d="m240.5,98.9l-4-3.5-3.6,3.9,7.5,6.2,3.3-2.8.2.2c-2.1,2.2-3.1,4.8-3.1,7.6v28.7h5.5v-29.4c0-2.9,1.1-5.3,3.3-7.1l.6-.5-5.8-6.6-4,3.2Z"/>
    <path class="cls-3" d="m270.2,129.1c0,1.7-.5,3-1.6,4-1.1,1-2.5,1.4-4.4,1.4s-3.6-.6-5.2-1.6c-1.6-1-2.3-2.3-2.3-3.7v-18.5h-5.5v28.6h5.5v-2c2.3,1.6,4.9,2.5,7.7,2.5s6-.9,8.1-2.8c2.1-1.9,3.2-4.4,3.2-7.4v-18.9h-5.5v18.5Z"/>
    <rect class="cls-3" x="270.2" y="99.7" width="5.5" height="8.9"/>
    <rect class="cls-3" x="281" y="110.6" width="5.5" height="28.6"/>
    <path class="cls-3" d="m316.5,111.6l.5-.6-4.5-3-2.7,3c-1.6-.6-3.3-.8-5-.8-3.1,0-5.9.7-8.2,2.1-2.3,1.4-4,3.6-4.9,6.3l-.3.9h5.8l.2-.4c1.3-2.5,3.8-3.8,7.5-3.8s2.8.3,4,1c1.1.6,1.9,1.3,2.3,2.1v2.4c-2.1-1.4-4.7-2.1-7.7-2.1s-7.1,1.1-9.5,3.4c-2.3,2.2-3.5,4.9-3.5,8s.9,4.8,2.7,6.7c1.9,1.9,4.2,2.8,6.9,2.8s5.1-.8,6.9-2.3l.5-.5-3.2-4-.5.3c-1.1.7-2.4,1.1-3.7,1.1s-2.1-.4-2.9-1.2c-.8-.8-1.2-1.8-1.2-3,0-1.7.7-3.2,2-4.4,1.3-1.2,3.2-1.8,5.5-1.8s3.4.4,4.8,1.1c1.3.7,2.3,1.6,2.9,2.7v11.5h5.5v-22c-.5-1.3-1.2-2.4-2.1-3.4.3-.3.5-.6.8-.9.4-.5.8-.9,1.2-1.4Z"/>
    <polygon class="cls-3" points="350 110.6 345.4 127.9 339.4 110.6 334.8 110.6 328.9 127.9 324.2 110.6 318.6 110.6 326.2 138.9 326.3 139.2 330.5 139.2 337.1 120.2 343.6 139.2 348 139.2 355.6 110.6 350 110.6"/>
    <path class="cls-3" d="m198.1,142.1v3.8c0,.4-.2.9-1.4.9s-.7,0-1.1-.3v-4.4h-6.1v3.5h1.8v2.3h0c1.3,1.5,3.1,2.2,5.3,2.2s2.8-.4,3.9-1.1c1.1-.7,1.7-1.7,1.7-2.9v-4h-4.3Z"/>
    <path class="cls-4" d="m121.3,36.7c0,9.1-2.8,16.6-8.5,22.6-5.6,5.9-13,8.8-22.3,8.8s-16.7-2.9-22.3-8.8c-5.7-6-8.5-13.5-8.5-22.6s.2-5.4.6-7.1h23.8v8.5h-15.3c.2,3.1.9,6,2,8.6,1.1,2.6,2.6,4.9,4.5,6.8,1.9,1.9,4.1,3.4,6.7,4.5,2.6,1.1,5.5,1.6,8.5,1.6s6.2-.6,8.8-1.7c2.6-1.1,4.9-2.7,6.8-4.8,1.9-2.1,3.4-4.5,4.5-7.3,1.1-2.8,1.6-5.8,1.6-9.2s-.5-6.4-1.6-9.2c-1.1-2.8-2.5-5.2-4.4-7.3-1.9-2.1-4.1-3.7-6.8-4.8-2.7-1.1-5.6-1.7-8.9-1.7-8.5,0-14.8,3.8-19.1,11.5h-9.8c5.7-13.3,15.3-20,28.9-20s16.7,2.9,22.3,8.8c5.7,6,8.5,13.5,8.5,22.6Z"/>
    <path class="cls-4" d="m90.6,68.6c-9.4,0-17.1-3-22.7-9-5.7-6-8.7-13.8-8.7-23s.2-5.5.6-7.3v-.5h25v9.7h-15.2c.2,2.8.9,5.4,1.9,7.8,1.1,2.5,2.5,4.8,4.3,6.6,1.8,1.8,4,3.3,6.5,4.3,2.5,1,5.3,1.5,8.2,1.5s6-.5,8.5-1.6c2.5-1.1,4.8-2.6,6.6-4.6,1.9-2,3.3-4.4,4.3-7.1,1-2.7,1.5-5.7,1.5-8.9s-.5-6.2-1.5-8.9c-1-2.7-2.5-5.1-4.3-7.1-1.8-2-4-3.5-6.6-4.6-2.6-1.1-5.5-1.6-8.6-1.6-8.2,0-14.4,3.8-18.5,11.2l-.2.3h-11.2l.4-.9c5.7-13.5,15.7-20.4,29.5-20.4s17.1,3,22.7,9c5.7,6.1,8.7,13.8,8.7,23s-2.9,16.9-8.7,23c-5.6,6-13.3,9-22.7,9Zm-29.6-38.5c-.3,1.6-.5,3.8-.5,6.5,0,8.9,2.8,16.3,8.3,22.1,5.4,5.7,12.7,8.6,21.8,8.6s16.4-2.9,21.8-8.6c5.5-5.8,8.3-13.3,8.3-22.1s-2.8-16.3-8.3-22.1c-5.4-5.7-12.7-8.6-21.8-8.6-13,0-22.4,6.3-28,18.7h8.5c4.3-7.6,10.9-11.5,19.4-11.5s6.4.6,9.1,1.7c2.7,1.1,5.1,2.8,7,4.9,1.9,2.1,3.4,4.6,4.5,7.5,1.1,2.8,1.6,6,1.6,9.4s-.5,6.6-1.6,9.4c-1.1,2.8-2.6,5.4-4.6,7.5-2,2.1-4.3,3.8-7,4.9-2.7,1.1-5.7,1.7-9,1.7s-6-.6-8.7-1.6c-2.7-1.1-5-2.6-7-4.6-1.9-2-3.5-4.3-4.6-7-1.1-2.7-1.8-5.6-2-8.8v-.7s15.3,0,15.3,0v-7.2h-22.6Z"/>
    <path class="cls-3" d="m39.4,46.5c0,3.4-1.2,6.3-3.6,8.6-2.4,2.3-5.6,3.5-9.6,3.5s-8.2-1.5-10.9-4.4c-2.7-2.9-4.1-6.7-4.1-11.2,0-7,5.2-14.3,15.3-21.9l.9-.7L14.5,4l-9.2,5.8,7.6,10.2C4.3,25.7,0,33.4,0,43s2.5,13.7,7.4,18.6c5.1,4.9,11.4,7.4,18.8,7.4s12.9-2.1,17.4-6.3c4.6-4.3,7-9.8,7-16.2V5.3h-11.2v41.2Z"/>
    <path class="cls-3" d="m172.9,47.3c0,3.4-1.5,6-4.4,8-3.1,2.1-6.8,3.1-11.1,3.1s-7.9-1-10.9-3c-3.1-2-4.7-4.7-4.7-8.2V5.3h-11.2v42c0,6.3,2.7,11.6,8,15.7,5.3,4.1,11.6,6.1,18.8,6.1s13.6-2.1,18.7-6.1c5.4-4.1,8.1-9.4,8.1-15.7V5.3h-11.2v42Z"/>
    <path class="cls-3" d="m210.5,17.9h0c3-2,6.7-3,10.9-3s8,1.1,11.1,3.1c3,2,4.5,4.7,4.5,8v42h11.2V26.1c0-6.3-2.7-11.6-8.1-15.7-5.1-4.1-11.4-6.1-18.7-6.1s-13.3,2-18.5,6c-5.5,4.2-8.3,9.6-8.3,15.8v42h11.2v-26.5h19.1v-10.6h-19.1v-4.8c0-3.5,1.5-6.2,4.7-8.2Z"/>
    <polygon class="cls-3" points="232.9 80.1 238.2 80.1 238.2 89.3 248.2 89.3 248.2 71.3 232.9 71.3 232.9 80.1"/>
    <path class="cls-3" d="m343.9,5.3v40.8c0,3.5-1.5,6.3-4.7,8.7-3.3,2.5-7,3.7-10.9,3.7s-7.1-1-9.3-3c-2.2-2-3.3-4.7-3.3-8.1v-21.5c0-6.8-2.7-12.2-8.2-16.2-4.8-3.6-11.1-5.4-18.7-5.4-11.4,0-20.4,4.6-26.6,13.6l-.2.3v49.9h20.3v-10.5h-9.1V21.3c3.6-4.3,8.8-6.4,15.6-6.4s8.4,1.1,11.3,3.3c2.9,2.1,4.3,5.1,4.3,9v20.1c0,6.4,2.1,11.7,6.3,15.8,4.2,4,9.8,6.1,16.7,6.1s11.5-2,16.3-5.8v4.8h11.2V5.3h-11.2Z"/>
    <circle class="cls-3" cx="90.7" cy="36.6" r="36.6" transform="translate(34.5 116.7) rotate(-76.9)"/>
    <rect class="cls-4" x="109.3" y="44.4" width=".9" height="4.9"/>
    <rect class="cls-4" x="110.7" y="44.4" width=".9" height="4.9"/>
    <rect class="cls-4" x="71.5" y="44.4" width="36.9" height="4.9"/>
    <path class="cls-4" d="m109.7,43.8c-.2,0-.4-.2-.4-.4v-1.8h0s-.1-.8-2.3-1.3c-.3,0-7.1-1.7-9.2-4.6-.1-.2,0-.4,0-.6.2-.1.4,0,.6,0,1.9,2.7,8.6,4.3,8.7,4.3,2.8.7,2.9,1.9,2.9,2.1v1.8c0,.2-.2.4-.4.4Z"/>
    <path class="cls-4" d="m111.2,43.8c-.2,0-.4-.2-.4-.4v-3h0s-.3-1.4-3.5-2.7c-5-1.9-7.7-3.7-8.8-5.9-.1-.2,0-.5.2-.6.2-.1.5,0,.6.2,1,2,3.6,3.7,8.3,5.5,3.7,1.4,4,3.2,4,3.4v3c0,.2-.2.4-.4.4Z"/>
    <path class="cls-2" d="m90.7,2.4c-18.9,0-34.3,15.3-34.3,34.3s15.4,34.3,34.3,34.3,34.3-15.4,34.3-34.3S109.7,2.4,90.7,2.4Zm0,59.6c-14,0-25.4-11.4-25.4-25.4s11.4-25.4,25.4-25.4,25.4,11.4,25.4,25.4-11.4,25.4-25.4,25.4Z"/>
    <path class="cls-4" d="m87.8,20h-3.5v8c-2.2.5-3.9,2.5-3.9,4.8v22.6h11.3v-22.6c0-2.4-1.7-4.4-3.9-4.8v-8Z"/>
    <polygon class="cls-4" points="87.8 16.4 84.3 16.4 84.3 19.2 87.8 19.2 87.8 18.8 87.8 16.4"/>
    <polygon class="cls-4" points="70.6 30 75 35.1 79.4 30 70.6 30"/>
    <rect class="cls-4" x="74.5" y="33.3" width="1" height="5.7"/>
    <rect class="cls-4" x="72.8" y="38.7" width="4.6" height=".7"/>
    <rect class="cls-2" x="85.4" y="3.9" width="9.1" height="65.4" transform="translate(.5 74.3) rotate(-45)"/>
    <path d="m99.2,25.3s0,0,0,0c0,0,0,0,0,0h-.4s0,0,0,0v.8s0,0,0,0c0,0,0,0,0,0h.4s0,0,0,0c0,0,0,0,0,0v-.8Zm0,.8"/>
    <path d="m101.1,25.3s0,0,0,0c0,0,0,0,0,0h-.4c0,0,0,0,0,0v.8s0,0,0,0c0,0,0,0,0,0h.4s0,0,0,0c0,0,0,0,0,0v-.8Zm0,.8"/>
    <g class="cls-5">
      <path d="m97.4,25.3s0,0,0,0c0,0,0,0,0,0h-.4s0,0,0,0v.8s0,0,0,0c0,0,0,0,0,0h.4s0,0,0,0c0,0,0,0,0,0v-.8Zm0,.8"/>
      <path d="m91.5,29.1s0,0,0,.1c0,0,0,0,.1,0h1.6c0,0,.2-.1.2-.2v-1.5s.8,0,.8,0v2.2s0,0,0,.1c0,0,0,0,.1,0l12.9-.2c.1,0,.2,0,.2-.2v-2.4s2.6,0,2.6,0c0,0,0,0,0,0l1.5-.9s0,0,0,0c0,0,0-.1,0-.2,0,0,0-.1-.2-.1h-4.1c0,0,0-2.2,0-2.2,0,0,0,0,0-.1,0,0,0,0-.1,0l-12.9.2c-.1,0-.2,0-.2.2v2.5s-.8,0-.8,0v-1.6c0,0,0,0-.1-.1,0,0,0,0-.1,0h-1.6c0,0-.2.1-.2.2v4.3h.1Zm3.8-4.4l11.1-.2v4.1c0,0-11,.2-11,.2v-4.1Zm0,4.1"/>
    </g>
    <path d="m106,25s0,0,0-.1c0,0,0,0-.1,0h-2.8c0,0,0,.1-.1.1h0c-.6.8-1.4,1.5-1.7,1.7-.5.2-1.2,1-1.6,1.4-.1.1-.2.2-.2.2,0,0,0,.1,0,.2,0,0,0,.1.2.1l6.4-.2s0,0,.1,0c0,0,0,0,0-.1v-3.2h0Zm0,0"/>
  </g>
</svg>