<?xml version="1.0" encoding="UTF-8"?>
<svg id="Layer_1" data-name="Layer 1" xmlns="http://www.w3.org/2000/svg" xmlns:xlink="http://www.w3.org/1999/xlink" viewBox="0 0 555.5 93.1">
  <defs>
    <style>
      .cls-1 {
        fill: #fff;
      }

      .cls-2 {
        filter: url(#drop-shadow-2);
      }

      .cls-3 {
        filter: url(#drop-shadow-1);
      }
    </style>
    <filter id="drop-shadow-1" filterUnits="userSpaceOnUse">
      <feOffset dx="1" dy="1"/>
      <feGaussianBlur result="blur" stdDeviation="1"/>
      <feFlood flood-color="#231f20" flood-opacity=".4"/>
      <feComposite in2="blur" operator="in"/>
      <feComposite in="SourceGraphic"/>
    </filter>
    <filter id="drop-shadow-2" filterUnits="userSpaceOnUse">
      <feOffset dx="1" dy="1"/>
      <feGaussianBlur result="blur-2" stdDeviation="1"/>
      <feFlood flood-color="#231f20" flood-opacity=".4"/>
      <feComposite in2="blur-2" operator="in"/>
      <feComposite in="SourceGraphic"/>
    </filter>
  </defs>
  <g class="cls-3">
    <path class="cls-1" d="m23.5,93.1c-3.2,0-5.6-.4-7-1.3-1.8-.8-3.3-2.7-4.5-5.5L0,57.3l8.1-3.3,13,31.2c.9,2,1.8,3.1,2.7,3.1s1-.9,1-2.8v-25.6h-.5c-2.9,0-5.3-.9-7.2-2.7-2-1.8-2.9-4.1-2.9-6.8s.9-4.8,2.8-6.7c1.9-1.9,4.3-2.9,7.4-2.9s5.8,1,7.8,2.9c1.9,2,2.9,4.5,2.9,7.5v31.8c0,6.8-3.8,10.2-11.4,10.2Zm5.1-42.7c0-2.9-1.4-4.3-4.3-4.3s-4.3,1.4-4.3,4.3,1.4,4.3,4.3,4.3,4.3-1.4,4.3-4.3Z"/>
    <path class="cls-1" d="m71.8,92.3v-36.9c0-2.4-.9-4.4-2.7-6.1-1.8-1.7-4.2-2.5-7.1-2.5s-5.7,1.1-7.8,3.3c-2.1,2.2-3.1,4.9-3.1,8s.8,5.7,2.4,8.9c1.7,3.4,2.5,5.8,2.5,7.2v.6c.8-2,2.2-4.2,4.3-6.5-1.9-.3-3.4-1.1-4.6-2.5-1.2-1.4-1.8-3-1.8-4.9s.8-3.8,2.4-5.4c1.6-1.6,3.5-2.4,5.8-2.4s4.7.7,6.4,2.2c1.6,1.5,2.4,3.4,2.4,5.8s-.3,2-.8,3.2c-.5,1.2-1.2,2.4-2,3.8-.8,1.3-1.8,2.7-2.8,4.1-1,1.4-2,2.8-3.1,4.3-3.1,4.4-5.3,9.7-6.4,15.8h-9.9v-18.1c0-2-.6-4.6-1.7-7.6-1.1-3.1-1.7-6-1.7-8.8,0-4.8,1.8-8.9,5.5-12.2,3.7-3.3,8.6-5,14.6-5s10.6,1.4,14.1,4.3c3.5,2.9,5.2,6.5,5.2,10.9v36.4h-10.2Zm-6.4-31.3c0-2.2-1.1-3.3-3.3-3.3s-3.3,1.1-3.3,3.3,1.1,3.3,3.3,3.3,3.3-1.1,3.3-3.3Z"/>
    <path class="cls-1" d="m113.7,83.4c0,2.5-.9,4.8-2.8,6.7-1.9,2-4.3,2.9-7.4,2.9s-5.8-1-7.8-2.9c-2-1.9-2.9-4.5-2.9-7.5v-41.2h10.2v32.4h.5c2.9,0,5.3.9,7.2,2.7,1.9,1.8,2.9,4.1,2.9,6.8Zm-5.8,0c0-2.9-1.4-4.3-4.3-4.3s-4.3,1.4-4.3,4.3,1.4,4.3,4.3,4.3,4.3-1.4,4.3-4.3Z"/>
    <path class="cls-1" d="m159.1,50.1c0,2.8-1.1,5.2-3.4,7.1.8,1.1,1.1,2.5,1.1,4.3v30.8h-10.2v-32.7l-13.4,32.7h-9.5v-32.4h-.5c-2.9,0-5.3-.9-7.2-2.7-2-1.8-2.9-4.1-2.9-6.8s.9-4.8,2.8-6.7c1.9-1.9,4.3-2.9,7.4-2.9s5.8,1,7.8,2.9c1.9,2,2.9,4.5,2.9,7.5v13.2c0,1.2-.1,3-.4,5.5-.3,2.5-.7,5.6-1.3,9.4h.1c.3-1.1.7-2.4,1.2-3.9.5-1.5,1-3.2,1.7-5.1l5.7-14.2c-1.5-1.5-2.3-3.5-2.3-5.8s1-4.7,3-6.6c2-1.9,4.4-2.8,7.2-2.8s5.2.9,7.2,2.8c2,1.9,3,4.1,3,6.6Zm-31.5.3c0-2.9-1.4-4.3-4.3-4.3s-4.3,1.4-4.3,4.3,1.4,4.3,4.3,4.3,4.3-1.4,4.3-4.3Zm25.7,0c0-2.9-1.4-4.3-4.3-4.3s-4.3,1.4-4.3,4.3,1.4,4.3,4.3,4.3,4.3-1.4,4.3-4.3Z"/>
    <path class="cls-1" d="m191.1,92.3v-16.7c0-3.1-.8-5.8-2.4-8.1-1.9-2.7-4.3-4.2-7.2-4.6-3.7-.4-5.6,1.1-5.6,4.7v6.1h.5c2.8,0,5.2.9,7.2,2.8,2,1.9,3,4.1,3,6.7s-1,5-2.9,6.9c-1.9,1.9-4.3,2.8-7.3,2.8s-5.7-.9-7.7-2.8c-2-1.9-3-4.3-3-7.2v-13c0-3.6,1.2-6.5,3.5-8.6,2.3-2.1,5.3-3.3,8.8-3.7,5-.4,9.4.8,13.1,3.8v-9c0-4.6-2.5-6.9-7.6-6.9s-7.6,1.9-7.6,5.6v3.1h-10.2v-1.5c0-3.8,1.7-6.8,5.1-8.8,3.4-2.1,7.6-3.1,12.7-3.1s9.6,1.1,12.9,3.4c3.3,2.3,4.9,5.5,4.9,9.7v38.5h-10.2Zm-10.6-8.9c0-2.9-1.4-4.3-4.3-4.3s-4.3,1.4-4.3,4.3,1.4,4.3,4.3,4.3,4.3-1.4,4.3-4.3Z"/>
    <path class="cls-1" d="m200.7,30c-4.5,3.6-10.3,5.3-17.3,5.3s-1.3,0-2,0c-.6,0-1.3-.1-2-.2,1.7-1.4,2.9-3.3,3.6-5.5-.7.2-1.2.3-1.5.3-2.3,0-4.2-.8-5.8-2.3-1.6-1.5-2.4-3.4-2.4-5.7s.8-4.2,2.5-5.8c1.7-1.6,3.6-2.4,5.8-2.4,5.3,0,8.2,2.7,8.8,8.1.4,3.2,0,5.8-1.5,7.8,2.5-.4,4.6-1.8,6.1-4.1,1.5-2.3,2.3-4.9,2.3-7.7v-1.1c0-.3,0-.7-.1-1.1h9.9c.3,6-1.8,10.9-6.2,14.5Zm-16-8.1c0-2.2-1.1-3.3-3.3-3.3s-3.3,1.1-3.3,3.3,1.1,3.3,3.3,3.3,3.3-1.1,3.3-3.3Z"/>
    <path class="cls-1" d="m230.6,92.3v-40.8c0-4-2.1-6-6.4-6s-6.4,1.9-6.4,5.6v3.1h-10.2v-1.5c0-3.8,1.5-6.8,4.6-8.8,3.1-2.1,7.1-3.1,11.9-3.1s8.8,1,11.9,3.1c3.1,2.1,4.6,5.1,4.6,9.2v39.3h-10.2Z"/>
  </g>
  <g class="cls-2">
    <path class="cls-1" d="m272.8,83.3c0,2.5-.9,4.8-2.8,6.7-1.9,2-4.3,2.9-7.4,2.9s-5.8-1-7.8-2.9c-2-1.9-2.9-4.5-2.9-7.5v-41.2h10.2v32.4h.5c2.9,0,5.3.9,7.2,2.7,1.9,1.8,2.9,4.1,2.9,6.8Zm-5.8,0c0-2.9-1.4-4.3-4.3-4.3s-4.3,1.4-4.3,4.3,1.4,4.3,4.3,4.3,4.3-1.4,4.3-4.3Z"/>
    <path class="cls-1" d="m304,92.2v-16.7c0-3.1-.8-5.8-2.4-8.1-1.9-2.7-4.3-4.2-7.2-4.6-3.7-.4-5.6,1.1-5.6,4.7v6.1h.5c2.8,0,5.2.9,7.2,2.8,2,1.9,3,4.1,3,6.7s-1,5-2.9,6.9c-1.9,1.9-4.3,2.8-7.3,2.8s-5.7-.9-7.7-2.8c-2-1.9-3-4.3-3-7.2v-13c0-3.6,1.2-6.5,3.5-8.6,2.3-2.1,5.3-3.3,8.8-3.7,5-.4,9.4.8,13.1,3.8v-9c0-4.6-2.5-6.9-7.6-6.9s-7.6,1.9-7.6,5.6v3.1h-10.2v-1.5c0-3.8,1.7-6.8,5.1-8.8,3.4-2.1,7.6-3.1,12.7-3.1s9.6,1.1,12.9,3.4c3.3,2.3,4.9,5.5,4.9,9.7v38.5h-10.2Zm-10.6-8.9c0-2.9-1.4-4.3-4.3-4.3s-4.3,1.4-4.3,4.3,1.4,4.3,4.3,4.3,4.3-1.4,4.3-4.3Z"/>
    <path class="cls-1" d="m294.1,32.9c-6.5,0-12.4,1-17.6,3.1,0-4.9,1.5-8.8,4.6-11.7,3.1-2.9,7.2-4.3,12.3-4.3s7.2.8,10.6,2.4v-5.8h10.2v19.7c-6.4-2.2-13.1-3.3-20.1-3.3Zm10-2.5c-1.8-4.1-5.1-6.1-10-6.1s-7.1,1.9-8,5.6c2.5-.7,5-1,7.6-1,3.7,0,7.2.5,10.4,1.5Z"/>
    <path class="cls-1" d="m304,12.7V0h10.2v12.7h-10.2Z"/>
    <path class="cls-1" d="m353.3,89.9c-3.1,2-7.3,3.1-12.5,3.1s-9.2-1-12.5-3.1c-3.6-2.3-5.3-5.6-5.3-9.8v-6.9c0-1.9.8-3.8,2.5-5.5,1.5-1.4,3.2-2.2,5-2.3-2-.3-3.6-.9-5-2-1.7-1.3-2.5-3-2.5-5.1v-7.4c0-3.1,1-5.6,2.9-7.5,2-1.9,4.5-2.9,7.8-2.9s5.5,1,7.4,2.9c1.9,2,2.8,4.2,2.8,6.7s-1,5-2.9,6.8c-2,1.8-4.4,2.7-7.2,2.7h-.5v.5c0,1.5,3.2,2.3,9.7,2.3v5.2c-6.4,0-9.7,1.8-9.7,5.5v8c0,4.6,2.5,6.9,7.6,6.9s7.6-2.3,7.6-6.9v-39.9h10.2v38.8c0,4.2-1.8,7.5-5.3,9.8Zm-15.3-39.7c0-2.9-1.4-4.3-4.3-4.3s-4.3,1.4-4.3,4.3,1.4,4.3,4.3,4.3,4.3-1.4,4.3-4.3Z"/>
    <path class="cls-1" d="m387.9,93c-3.2,0-5.6-.4-7-1.3-1.8-.8-3.3-2.7-4.5-5.5l-12.1-29,8.1-3.3,13,31.2c.9,2,1.8,3.1,2.7,3.1s1-.9,1-2.8v-25.6h-.5c-2.9,0-5.3-.9-7.2-2.7-2-1.8-2.9-4.1-2.9-6.8s.9-4.8,2.8-6.7c1.9-1.9,4.3-2.9,7.4-2.9s5.8,1,7.8,2.9c1.9,2,2.9,4.5,2.9,7.5v31.8c0,6.8-3.8,10.2-11.4,10.2Zm5.1-42.7c0-2.9-1.4-4.3-4.3-4.3s-4.3,1.4-4.3,4.3,1.4,4.3,4.3,4.3,4.3-1.4,4.3-4.3Z"/>
    <path class="cls-1" d="m443.5,92.2l-8.6-41.3-8.5,41.3h-11.2v-32.4h-.5c-2.9,0-5.3-.9-7.2-2.7-2-1.8-2.9-4.1-2.9-6.8s.9-4.8,2.8-6.7c1.9-1.9,4.3-2.9,7.4-2.9s5.8,1,7.8,2.9c1.9,2,2.9,4.5,2.9,7.5v5c0,.6,0,2.5-.3,5.7-.2,3.2-.4,7.8-.8,13.9h.1c.3-1.4.6-3.2,1-5.2.4-2,.8-4.4,1.3-7.1l4.6-21.9h7.1l4.6,21.9c.5,2.5,1.3,6.6,2.3,12.3h.1l-1-19.6v-14.6h10.2v50.9h-11.1Zm-24.5-42c0-2.9-1.4-4.3-4.3-4.3s-4.3,1.4-4.3,4.3,1.4,4.3,4.3,4.3,4.3-1.4,4.3-4.3Z"/>
    <path class="cls-1" d="m506.7,83.4c0,2.6-1,4.9-3,6.7-2,1.9-4.4,2.8-7.2,2.8s-5.1-.9-7.1-2.7c-2-1.8-3-3.9-3.1-6.4-3.1,1.1-5.1,3.9-6,8.3h-10v-32.4h-.5c-2.9,0-5.3-.9-7.2-2.7-2-1.8-2.9-4.1-2.9-6.8s.9-4.8,2.8-6.7c1.9-1.9,4.3-2.9,7.4-2.9s5.8,1,7.8,2.9c1.9,2,2.9,4.5,2.9,7.5v28.5c.8-.6,2.5-1.4,5.1-2.3,2.6-.9,4.4-1.7,5.3-2.4,1.5-1.2,2.3-2.8,2.3-4.8v-28.6h10.2v29.8c0,1.7-.5,3.1-1.5,4.3,3.2,1.8,4.8,4.5,4.8,8Zm-32.6-33.2c0-2.9-1.4-4.3-4.3-4.3s-4.3,1.4-4.3,4.3,1.4,4.3,4.3,4.3,4.3-1.4,4.3-4.3Zm26.7,33.2c0-2.9-1.4-4.3-4.3-4.3s-4.3,1.4-4.3,4.3,1.4,4.3,4.3,4.3,4.3-1.4,4.3-4.3Z"/>
    <path class="cls-1" d="m511.2,24.5c-1.1,2.2-2.5,4.1-4.3,5.6-1.8,1.5-4,2.7-6.5,3.6-2.5.8-5.3,1.3-8.1,1.3-4.8,0-8.7-1-11.6-2.9-2.9-1.9-4.3-4.3-4.3-7.3s.9-4.3,2.6-5.9c1.7-1.6,3.8-2.4,6.2-2.4s4.5.8,6.2,2.3c1.7,1.5,2.5,3.4,2.5,5.7s-.8,4.5-2.5,5.5c3.3.3,6-.4,8-2.2,2-1.8,3.1-4.6,3.1-8.5v-1.1c0-.4,0-.8-.1-1.2h10.7c0,2.8-.5,5.3-1.6,7.5Zm-22.4,0c0-2.4-1.2-3.6-3.7-3.6s-3.6,1.2-3.6,3.6,1.2,3.6,3.6,3.6,3.7-1.2,3.7-3.6Z"/>
    <path class="cls-1" d="m555.5,83.4c0,2.6-1,4.9-3,6.7-2,1.9-4.4,2.8-7.2,2.8s-5.1-.9-7.1-2.7c-2-1.8-3-3.9-3.1-6.4-3.1,1.1-5.1,3.9-6,8.3h-10v-32.4h-.5c-2.9,0-5.3-.9-7.2-2.7-2-1.8-2.9-4.1-2.9-6.8s.9-4.8,2.8-6.7c1.9-1.9,4.3-2.9,7.4-2.9s5.8,1,7.8,2.9c1.9,2,2.9,4.5,2.9,7.5v28.5c.8-.6,2.5-1.4,5.1-2.3,2.6-.9,4.4-1.7,5.3-2.4,1.5-1.2,2.3-2.8,2.3-4.8v-28.6h10.2v29.8c0,1.7-.5,3.1-1.5,4.3,3.2,1.8,4.8,4.5,4.8,8Zm-32.6-33.2c0-2.9-1.4-4.3-4.3-4.3s-4.3,1.4-4.3,4.3,1.4,4.3,4.3,4.3,4.3-1.4,4.3-4.3Zm26.7,33.2c0-2.9-1.4-4.3-4.3-4.3s-4.3,1.4-4.3,4.3,1.4,4.3,4.3,4.3,4.3-1.4,4.3-4.3Z"/>
  </g>
</svg>