<?xml version="1.0" encoding="UTF-8"?>
<svg id="Layer_1" data-name="Layer 1" xmlns="http://www.w3.org/2000/svg" xmlns:xlink="http://www.w3.org/1999/xlink" viewBox="0 0 176.8 156.3">
  <defs>
    <style>
      .cls-1 {
        fill: #f9ad1c;
      }

      .cls-2 {
        fill: #eb5627;
      }

      .cls-3 {
        fill: #fff;
      }

      .cls-4 {
        fill: #ee6925;
      }

      .cls-5 {
        fill: #1b6835;
      }

      .cls-6 {
        fill: #4375b7;
      }

      .cls-7 {
        fill: #959595;
      }

      .cls-8 {
        fill: #5ab947;
      }

      .cls-9 {
        fill: #493518;
      }

      .cls-10 {
        fill: #3b54a2;
      }

      .cls-11 {
        fill: #25a7e0;
      }

      .cls-12 {
        filter: url(#drop-shadow-1);
      }
    </style>
    <filter id="drop-shadow-1" filterUnits="userSpaceOnUse">
      <feOffset dx="1" dy="1"/>
      <feGaussianBlur result="blur" stdDeviation="1"/>
      <feFlood flood-color="#231f20" flood-opacity=".4"/>
      <feComposite in2="blur" operator="in"/>
      <feComposite in="SourceGraphic"/>
    </filter>
  </defs>
  <g id="_1" data-name="1" class="cls-12">
    <g>
      <g>
        <ellipse class="cls-3" cx="77.7" cy="51.2" rx="51.1" ry="51.2"/>
        <path class="cls-8" d="m54.3,5.7c1.8-.9,4-1.9,6.6-2.8,3.3-1.1,5.8-1.7,6.6-1.9,2.6-.5,7.2-1.3,13.1-1,4.8.3,8.4,1.1,10.2,1.6,4.2,1.1,7.5,2.6,9.7,3.7,3.1,1.6,5.5,3.2,7.4,4.7,2.9,1.9,5,3.9,6.4,5.3,2.7,2.8,4.3,5.2,6,7.8,1.3,2,2.6,4,3.9,6.9,1.4,3.1,2.2,5.9,2.7,7.9.9,2.9,1.3,5.5,1.5,7.5,0,.8.5,4.6.1,9.7-.3,3.5-.9,6.2-1.1,7.3-.6,2.8-1.4,4.7-2.1,6.7,0,0-.7,1.9-2,4.6-1.1,2.3-1.7,3.2-2.7,3.9-.4.3-1.3.9-2.6.9-2,0-3.4-1.9-3.9-2.5-1.5-1.9-1.9-4.3-1.8-8.1.1-4.5,1-7.5,1.8-10.9,1.4-5.8,2.4-9.8,2.8-14.3.4-4.5.7-9.7-1.7-15.7-2.2-5.5-5.6-8.8-6.5-9.7-5.7-5.4-12.2-6.5-14-6.8-1.3-.2-4.3-.1-10.3,0-6.8.1-7.3.3-11,.3-3.8,0-7.8-.1-11.6-1.3-1.9-.6-4.7-1.7-7.7-4.1Z"/>
        <path class="cls-6" d="m53.2,6.3s3,4.3,9.1,5.2c6.1,1,21.2.8,21.2.8l1.8,10.2c0,1.4,0,3.7-1.3,6.2-1.8,3.7-4.9,5.5-7.5,6.9-2.7,1.5-4.9,2.1-9.2,3.2-4.3,1.1-8.1,1.8-12.8,2.6-5.9,1-7.1,1-9.5,2.1-3.3,1.4-5.9,3.5-7,4.6-4.7,5.1-3.2,17.1,4.3,29-.6,0-1.3.2-1.9.3-.6,0-1.4.1-2.4.1-1,0-1.7,0-2.7-.4-.4-.2-1.6-.6-2.5-1.6-.5-.5-.8-1.2-1.3-2.5-1-2.3-1.5-3.4-1.5-3.5-.4-1-1-2.6-1.7-5.2-.7-2.8-1.3-5.2-1.7-8.3-.5-4.7,0-8.3.2-10.4.2-1.7.8-6.3,2.9-12,2.9-7.9,6.9-13,7.9-14.2,1-1.3,4.3-5.4,9.8-9.4,2.3-1.7,4.3-2.9,5.9-3.8Z"/>
        <path class="cls-4" d="m34.3,78.4c.4.7,1,1.5,1.7,2.6,1,1.4,1.8,2.4,2.9,3.6,1.1,1.3,3.1,3.5,4.5,4.9,2.4,2.4,6.4,5.7,11.3,8.2,8.5,4.4,16.4,4.7,20.7,4.9,8,.3,14.8-1.3,19.5-2.9-.7,0-1.4,0-2.2-.1,0,0-.8-.2-2.2-.9-2.9-1.4-4.9-2.9-5.7-3.6-4.4-3.6-7.3-6.5-11.1-9.6-3.8-3.2-5.7-4.8-7.9-5.8-2.2-1-7.4-3.4-12.9-2.2-2.1.5-4.4,1.5-8.6,2-1.4.2-2.3.2-2.9.2-3,0-5.4-.6-7-1.1Z"/>
        <path class="cls-7" d="m40.4,59.6c.2-.7.7-1.8,1.5-3,2.1-3.1,5.1-4.3,6.6-5,4.3-1.8,10.2-4.7,17.8-8.3-4.1.9-7.5,1.5-9.8,1.8-4.3.6-7.4.8-11.2,2.6-1.6.8-2.9,1.6-4,3.1-.4.6-1.6,2.2-1.8,4.7-.1,1.9.5,3.4.8,4.1Z"/>
        <path class="cls-7" d="m97.9,16.7c1.3.3,3.1,1,5,2.1,2.7,1.7,4.3,3.6,5.5,5.1,1.4,1.7,3.1,3.9,4.2,7.3.4,1.3.9,3.2.9,5.5,0,.8,0,1.6-1,6.5-.9,4.7-1.6,7.2-2.3,11.8,0,.1,0,.2,0,.2.5-6.6.2-11.7-.1-15.3-.2-2.6-.6-5-1.2-7.5-.7-2.8-1.2-4.8-2.6-7.1-1.4-2.4-3.1-4-4.7-5.5-1.4-1.4-2.7-2.4-3.7-3.1Z"/>
        <path class="cls-7" d="m72.8,79.8c3,.4,5.4,1.2,7,1.9,0,0,3.2,1.5,7.2,3.8,2,1.2,2.5,1.5,4.1,2.4,2.5,1.3,3.7,2,5,2.2,1.1.2,2.9.5,7-1.2,5.8-2.5,10.4-6.3,13.3-9-.6,1.1-1.5,2.6-2.8,4.2-1.3,1.6-4.4,5.3-9.8,8.1-1.9,1-3.2,1.6-5.1,2-4.7,1-8.8-.7-9.4-1-1.8-.8-4.4-3.3-9.7-8.2-.5-.5-1.6-1.5-3.3-2.7-1.5-1.1-2.8-1.9-3.6-2.3Z"/>
        <polygon class="cls-8" points="135.1 .3 137 4.2 141.4 4.9 138.2 7.9 138.9 12.3 135.1 10.2 131.2 12.3 131.9 7.9 128.8 4.9 133.1 4.2 135.1 .3"/>
        <polygon class="cls-4" points="141.4 83.7 143.3 87.7 147.7 88.3 144.5 91.4 145.3 95.7 141.4 93.7 137.5 95.7 138.2 91.4 135.1 88.3 139.4 87.7 141.4 83.7"/>
        <polygon class="cls-6" points="152.8 33.5 156.4 40.7 164.3 41.8 158.6 47.4 159.9 55.3 152.8 51.6 145.7 55.3 147.1 47.4 141.4 41.8 149.3 40.7 152.8 33.5"/>
      </g>
      <g id="Font">
        <g id="SDN">
          <g>
            <path class="cls-5" d="m8.8,131H3.7l-2.9-2.2v-2.3h3.7v2.3h3.5v-4.7l-4-.2-3.2-2.2v-4.8l2.9-2.2h4.8l3,2.2v2.3h-3.5v-2.3h-3.5v4.6l4.1.3,3.1,2.2v4.8l-2.9,2.2Z"/>
            <path class="cls-5" d="m21.9,131h-8v-16.3h7.9l3,2.2v11.9l-2.9,2.2Zm-.8-14.1h-3.5v12h3.5v-12Z"/>
            <path class="cls-5" d="m34.9,131l-4.5-9.1h-.1v9.1h-3.4v-16.3h3l4.5,9h.1v-9h3.4v16.3h-3Z"/>
          </g>
          <g>
            <path class="cls-8" d="m8,130.3H2.9l-2.9-2.2v-2.3h3.7v2.3h3.5v-4.7l-4-.2-3.2-2.2v-4.8l2.9-2.2h4.8l3,2.2v2.3h-3.5v-2.3h-3.5v4.6l4.1.3,3.1,2.2v4.8l-2.9,2.2Z"/>
            <path class="cls-8" d="m21.1,130.3h-8v-16.3h7.9l3,2.2v11.9l-2.9,2.2Zm-.8-14.1h-3.5v12h3.5v-12Z"/>
            <path class="cls-8" d="m34.1,130.3l-4.5-9.1h-.1v9.1h-3.4v-16.3h3l4.5,9h.1v-9h3.4v16.3h-3Z"/>
          </g>
        </g>
        <g id="Futsal">
          <g>
            <path class="cls-9" d="m46.2,116.8v4.4h3.4v2.2h-3.4v7.6h-3.3v-16.3h7.5v2.2h-4.2Z"/>
            <path class="cls-9" d="m58.2,131h-4.3l-2.5-2.2v-14.1h3.2v14.2h3v-14.2h3.1v14.1l-2.5,2.2Z"/>
            <path class="cls-9" d="m67.3,116.8v14.2h-3.2v-14.2h-2.5v-2.2h8.1v2.2h-2.5Z"/>
            <path class="cls-9" d="m77.5,131h-4.3l-2.5-2.2v-2.3h3.2v2.3h2.9v-4.7l-3.4-.2-2.7-2.2v-4.8l2.5-2.2h4.1l2.6,2.2v2.3h-3v-2.3h-2.9v4.6l3.5.3,2.7,2.2v4.8l-2.5,2.2Z"/>
            <path class="cls-9" d="m87.7,131l-.5-3.2h-3.3l-.5,3.2h-3l2.5-16.3h5.3l2.6,16.3h-3.1Zm-1.9-13.7h-.5l-1.1,8.4h2.8l-1.2-8.4Z"/>
            <path class="cls-9" d="m91.4,131v-16.3h3.3v14.2h4.1v2.2h-7.3Z"/>
          </g>
          <g>
            <path class="cls-1" d="m45.5,116.2v4.4h3.4v2.2h-3.4v7.6h-3.3v-16.3h7.5v2.2h-4.2Z"/>
            <path class="cls-1" d="m57.5,130.3h-4.3l-2.5-2.2v-14.1h3.2v14.2h3v-14.2h3.1v14.1l-2.5,2.2Z"/>
            <path class="cls-1" d="m66.7,116.2v14.2h-3.2v-14.2h-2.5v-2.2h8.1v2.2h-2.5Z"/>
            <path class="cls-1" d="m76.8,130.3h-4.3l-2.5-2.2v-2.3h3.2v2.3h2.9v-4.7l-3.4-.2-2.7-2.2v-4.8l2.5-2.2h4.1l2.6,2.2v2.3h-3v-2.3h-2.9v4.6l3.5.3,2.7,2.2v4.8l-2.5,2.2Z"/>
            <path class="cls-1" d="m87,130.3l-.5-3.2h-3.3l-.5,3.2h-3l2.5-16.3h5.3l2.6,16.3h-3.1Zm-1.9-13.7h-.5l-1.1,8.4h2.8l-1.2-8.4Z"/>
            <path class="cls-1" d="m90.8,130.3v-16.3h3.3v14.2h4.1v2.2h-7.3Z"/>
          </g>
        </g>
        <g id="No">
          <g>
            <path class="cls-9" d="m110.7,131l-3.8-9.1h-.1v9.1h-2.9v-16.3h2.6l3.8,9h.1v-9h2.9v16.3h-2.5Z"/>
            <path class="cls-9" d="m121.9,131h-4.3l-2.5-2.2v-11.9l2.5-2.2h4.2l2.6,2.2v11.9l-2.4,2.2Zm-.7-14.2h-3v12h3v-12Z"/>
          </g>
          <g>
            <path class="cls-1" d="m110,130.3l-3.8-9.1h-.1v9.1h-2.9v-16.3h2.6l3.8,9h.1v-9h2.9v16.3h-2.5Z"/>
            <path class="cls-1" d="m121.2,130.3h-4.3l-2.5-2.2v-11.9l2.5-2.2h4.2l2.6,2.2v11.9l-2.4,2.2Zm-.7-14.2h-3v12h3v-12Z"/>
          </g>
        </g>
        <g id="L">
          <path class="cls-9" d="m131.3,131v-16.3h3.3v14.2h4.1v2.2h-7.3Z"/>
          <path class="cls-1" d="m130.6,130.3v-16.3h3.3v14.2h4.1v2.2h-7.3Z"/>
        </g>
        <g id="Cup">
          <g>
            <path class="cls-9" d="m152.4,131h-4l-2.7-2.2v-11.9l2.5-2.2h4.2l2.5,2.2v3.4h-3v-3.4h-3v12h3v-4.2h3v4.1l-2.5,2.2Z"/>
            <path class="cls-9" d="m163.4,131h-4.3l-2.5-2.2v-14.1h3.2v14.2h3v-14.2h3.1v14.1l-2.5,2.2Z"/>
            <path class="cls-9" d="m174.2,125.1h-3.1v5.9h-3.2v-16.3h6.3l2.6,2.2v6l-2.6,2.2Zm-.4-8.2h-2.8v6h2.8v-6Z"/>
          </g>
          <g>
            <path class="cls-1" d="m151.7,130.3h-4l-2.7-2.2v-11.9l2.5-2.2h4.2l2.5,2.2v3.4h-3v-3.4h-3v12h3v-4.2h3v4.1l-2.5,2.2Z"/>
            <path class="cls-1" d="m162.7,130.3h-4.3l-2.5-2.2v-14.1h3.2v14.2h3v-14.2h3.1v14.1l-2.5,2.2Z"/>
            <path class="cls-1" d="m173.5,124.4h-3.1v5.9h-3.2v-16.3h6.3l2.6,2.2v6l-2.6,2.2Zm-.4-8.2h-2.8v6h2.8v-6Z"/>
          </g>
        </g>
      </g>
      <g id="Font_Logo" data-name="Font+Logo">
        <g id="INSPIRED_BY" data-name="INSPIRED BY">
          <g>
            <path class="cls-10" d="m.4,156.3v-7.3h1.4v7.3H.4Z"/>
            <path class="cls-10" d="m5.7,156.3l-1.7-4.1h0v4.1h-1.3v-7.3h1.1l1.7,4h0v-4h1.3v7.3h-1.1Z"/>
            <path class="cls-10" d="m10.6,156.3h-1.9l-1.1-1v-1h1.4v1h1.3v-2.1h-1.5c0-.1-1.2-1.1-1.2-1.1v-2.1l1.1-1h1.8l1.1,1v1h-1.3v-1h-1.3v2.1h1.5c0,.1,1.2,1.1,1.2,1.1v2.2l-1.1,1Z"/>
            <path class="cls-10" d="m15.4,153.6h-1.4v2.7h-1.4v-7.3h2.8l1.2,1v2.7l-1.2,1Zm-.2-3.7h-1.2v2.7h1.2v-2.7Z"/>
            <path class="cls-10" d="m17.1,156.3v-7.3h1.4v7.3h-1.4Z"/>
            <path class="cls-10" d="m22.2,156.3v-3.1h-1.3v3.1h-1.4v-7.3h2.9l1.2,1v1.8l-.7.9.7.9v2.7h-1.4Zm0-6.3h-1.3v2.2h1.3v-2.2Z"/>
            <path class="cls-10" d="m24.4,156.3v-7.3h3.1v1h-1.7v2h1.4v1h-1.4v2.4h1.7v1h-3.2Z"/>
            <path class="cls-10" d="m31.3,156.3h-3v-7.3h3l1.2,1v5.3l-1.1,1Zm-.3-6.3h-1.3v5.4h1.3v-5.4Z"/>
            <path class="cls-10" d="m41.4,156.3h-3v-7.3h3l1,.8v1.9l-.7.9.9.9v1.9l-1.1,1Zm-.3-6.3h-1.3v2.1h1.3v-2.1Zm0,3.1h-1.3v2.2h1.3v-2.2Z"/>
            <path class="cls-10" d="m45.9,153.2v3.1h-1.4v-3.1s-1.6-4.2-1.6-4.2h1.4l.9,2.8h0l.9-2.8h1.4l-1.6,4.2Z"/>
          </g>
          <g>
            <path class="cls-11" d="m0,155.7v-7.3h1.4v7.3H0Z"/>
            <path class="cls-11" d="m5.4,155.7l-1.7-4.1h0v4.1h-1.3v-7.3h1.1l1.7,4h0v-4h1.3v7.3h-1.1Z"/>
            <path class="cls-11" d="m10.3,155.7h-1.9l-1.1-1v-1h1.4v1h1.3v-2.1h-1.5c0-.1-1.2-1.1-1.2-1.1v-2.1l1.1-1h1.8l1.1,1v1h-1.3v-1h-1.3v2.1h1.5c0,.1,1.2,1.1,1.2,1.1v2.2l-1.1,1Z"/>
            <path class="cls-11" d="m15.1,153h-1.4v2.7h-1.4v-7.3h2.8l1.2,1v2.7l-1.2,1Zm-.2-3.7h-1.2v2.7h1.2v-2.7Z"/>
            <path class="cls-11" d="m16.8,155.7v-7.3h1.4v7.3h-1.4Z"/>
            <path class="cls-11" d="m21.9,155.7v-3.1h-1.3v3.1h-1.4v-7.3h2.9l1.2,1v1.8l-.7.9.7.9v2.7h-1.4Zm0-6.3h-1.3v2.2h1.3v-2.2Z"/>
            <path class="cls-11" d="m24.1,155.7v-7.3h3.1v1h-1.7v2h1.4v1h-1.4v2.4h1.7v1h-3.2Z"/>
            <path class="cls-11" d="m31,155.7h-3v-7.3h3l1.2,1v5.3l-1.1,1Zm-.3-6.3h-1.3v5.4h1.3v-5.4Z"/>
            <path class="cls-11" d="m41.1,155.7h-3v-7.3h3l1,.8v1.9l-.7.9.9.9v1.9l-1.1,1Zm-.3-6.3h-1.3v2.1h1.3v-2.1Zm0,3.1h-1.3v2.2h1.3v-2.2Z"/>
            <path class="cls-11" d="m45.6,152.6v3.1h-1.4v-3.1s-1.6-4.2-1.6-4.2h1.4l.9,2.8h0l.9-2.8h1.4l-1.6,4.2Z"/>
          </g>
        </g>
        <g>
          <g>
            <path class="cls-2" d="m176.8,133.8s-9,3.4-13.5,8.9c-4.5,5.5-.5,9.6-.5,9.6-2.3-7.6,5.5-13.4,14-18.5Z"/>
            <path class="cls-2" d="m165.2,155s-8.6-8.7,9.9-17.4c0,0-14.2,8.9-9.9,17.4Z"/>
            <path class="cls-2" d="m166.7,156.3s-5.4-6.7,4.6-13.1c0,0-6.7,6-4.6,13.1Z"/>
            <path class="cls-2" d="m160.2,148.1s-.4-1.1-.4-1.8c0-.7-.1-1.6-.6-2.3-.5-.6-1.2-1-2.1-1.1,0,0,.9-1.2,2.1-1.2,1.2,0,1.5.5,1.9.6.4.2.7.3.7.3,0,0-.8.9-1.2,2.1-.3,1.2-.4,2.1-.3,3.3Z"/>
          </g>
          <g>
            <path class="cls-2" d="m67.6,142.3h-4.9l-3.4,13.7h-4.5l3.4-13.7h-4.9l.9-3.4h14.2l-.9,3.4Z"/>
            <path class="cls-2" d="m78.3,156h-4.2l1.8-7.7c.1-.6.1-1.1,0-1.4-.1-.3-.3-.5-.6-.6-.3,0-.6,0-1,0-.4.1-.7.3-1.1.6-.4.3-.7.6-1,1-.3.4-.5.8-.6,1.2l-1.7,6.9h-4.2l4.2-17.1h4l-1.5,6.2c.9-.7,1.8-1.2,2.9-1.5,1-.3,2-.3,2.8-.1.8.2,1.5.6,1.9,1.3.5.7.5,1.5.3,2.7l-2.1,8.5Z"/>
            <path class="cls-2" d="m94.5,151.4c0,.2-.1.5-.2.9-.1.4-.2.8-.3,1.2-.1.4-.2.8-.2,1.2,0,.4,0,.6,0,.8l.3.5h-4.3c-.2-.3-.3-.6-.2-1-.7.6-1.5.9-2.3,1.1-.8.2-1.6.3-2.5.3s-1.4,0-2-.3c-.6-.2-1-.5-1.3-.8-.3-.4-.5-.8-.7-1.2-.1-.5,0-1,0-1.5.2-.9.7-1.7,1.5-2.3.8-.6,1.7-1,2.7-1.3,1-.3,2.1-.5,3.2-.6,1.1,0,2-.1,2.9-.1v-.7c.2-.3.2-.5,0-.6-.1-.2-.3-.3-.5-.4-.2,0-.5-.2-.7-.2-.3,0-.5,0-.8,0-1.4,0-2.4.6-2.9,1.7l-3.6-.4c.4-.8.9-1.5,1.4-2,.5-.5,1.2-1,1.8-1.3.7-.3,1.4-.5,2.2-.7.8-.1,1.6-.2,2.4-.1,2.1,0,3.5.4,4.3,1.1.8.7,1,1.7.7,3.2l-.9,3.8Zm-3.9-1.2c-.4,0-.9,0-1.4,0-.5,0-1.1.2-1.6.3-.5.2-1,.4-1.4.7-.4.3-.7.7-.8,1.1,0,.4,0,.7.5,1,.4.2,1,.3,1.6.3.6,0,1.2-.3,1.8-.8.6-.4,1-1.1,1.2-2.1l.2-.6Z"/>
            <path class="cls-2" d="m99.7,156h-4.2l3-12.3h4.2l-3,12.3Zm3.4-13.6h-4.2l.7-2.9h4.2l-.7,2.9Z"/>
            <g>
              <path class="cls-2" d="m124.2,145.1c-.2.9-.6,1.6-1.1,2.2-.5.6-1.1,1.1-1.7,1.5-.7.4-1.3.7-2.1.8-.7.2-1.4.3-2.1.3h-3.1l-1.5,6h-3.7l4.1-16.5h5.6c1,0,1.9,0,2.7.3.8.2,1.5.5,2,.9.5.4.9,1,1.1,1.7.2.7.1,1.6-.2,2.7Zm-3.8-.4c.2-.7,0-1.1-.4-1.4-.4-.3-1-.4-1.6-.4h-2.7l-.9,3.7h2.8c.7,0,1.2-.1,1.7-.4.5-.3.8-.8,1-1.4Z"/>
              <path class="cls-2" d="m138.8,143.5c0,.9-.4,1.7-.9,2.3-.5.6-1.2,1.2-2,1.6.7.4,1.3.9,1.6,1.7.3.7.3,1.6,0,2.6-.3.9-.7,1.6-1.2,2.1-.5.6-1.1,1-1.7,1.3-.6.3-1.3.5-2,.6-.7.1-1.4.2-2.1.2h-7.2l4.1-16.5h5.7c.8,0,1.6,0,2.4,0,.8,0,1.4.2,2,.5.5.3,1,.7,1.3,1.2.3.5.4,1.3.3,2.2Zm-5.2,7.4c.1-.6,0-1.1-.4-1.3-.4-.3-.9-.4-1.6-.4h-3.1l-.9,3.6h3c.7,0,1.4-.1,1.9-.4.5-.3.9-.8,1-1.4Zm1.1-6.7c.1-.6,0-1-.4-1.2-.4-.2-.9-.3-1.5-.3h-2.7l-.8,3.4h2.9c.6,0,1.2-.1,1.7-.4.5-.3.8-.8.9-1.5Z"/>
              <path class="cls-2" d="m149.5,144.4c-.1-.6-.3-1.1-.7-1.4-.3-.3-.8-.5-1.5-.5-.5,0-1,0-1.4.3-.4.2-.7.4-.9.7-.2.3-.3.6-.2.9,0,.3.3.6.7.8.3.2.6.3,1,.3.3,0,.7.2,1,.3.6.2,1.2.3,1.9.6.6.2,1.2.5,1.6.9.4.4.8.9.9,1.5.2.6.2,1.4,0,2.3-.2.9-.6,1.6-1.1,2.3-.5.6-1.1,1.2-1.9,1.6-.7.4-1.5.8-2.4,1-.9.2-1.7.3-2.6.3s-1.5,0-2.2-.3c-.7-.2-1.2-.5-1.7-.9-.5-.4-.9-.9-1.1-1.5-.3-.6-.4-1.3-.4-2.1l3.6-.8c0,1.5.9,2.3,2.6,2.3.9,0,1.6-.2,2.2-.4.6-.3,1-.7,1.1-1.3.1-.5,0-.8-.4-1-.4-.2-.9-.4-1.5-.6-.6-.2-1.3-.3-2-.5-.7-.2-1.3-.4-1.9-.8-.5-.4-1-.9-1.2-1.5-.3-.6-.3-1.5,0-2.6.2-.8.5-1.5,1-2.1.5-.6,1.1-1.1,1.7-1.5.6-.4,1.3-.7,2.1-1,.7-.2,1.5-.3,2.2-.3,1.5,0,2.7.3,3.5,1,.9.7,1.4,1.7,1.5,3.1l-3.5.9Z"/>
            </g>
          </g>
        </g>
      </g>
    </g>
  </g>
</svg>