<?xml version="1.0" encoding="UTF-8"?>
<svg id="Layer_1" data-name="Layer 1" xmlns="http://www.w3.org/2000/svg" xmlns:xlink="http://www.w3.org/1999/xlink" viewBox="0 0 153.2 153.3">
  <defs>
    <style>
      .cls-1, .cls-2, .cls-3 {
        stroke-width: .1px;
      }

      .cls-1, .cls-2, .cls-3, .cls-4 {
        stroke: #006938;
      }

      .cls-1, .cls-2, .cls-3, .cls-4, .cls-5, .cls-6 {
        stroke-miterlimit: 10;
      }

      .cls-1, .cls-7, .cls-5 {
        fill: #006938;
      }

      .cls-2, .cls-8, .cls-4, .cls-6 {
        fill: #fff;
      }

      .cls-3 {
        fill: none;
      }

      .cls-4 {
        stroke-width: 1.9px;
      }

      .cls-5 {
        stroke: #fff;
      }

      .cls-5, .cls-6 {
        stroke-width: .2px;
      }

      .cls-6 {
        stroke: #221f20;
      }

      .cls-9 {
        filter: url(#drop-shadow-3);
      }
    </style>
    <filter id="drop-shadow-3" filterUnits="userSpaceOnUse">
      <feOffset dx="1" dy="1"/>
      <feGaussianBlur result="blur" stdDeviation="1"/>
      <feFlood flood-color="#231f20" flood-opacity=".4"/>
      <feComposite in2="blur" operator="in"/>
      <feComposite in="SourceGraphic"/>
    </filter>
  </defs>
  <g class="cls-9">
    <g>
      <path class="cls-6" d="m153,76.6c0,42.3-34.2,76.5-76.5,76.5S.1,118.9.1,76.6,34.3.1,76.6.1s76.5,34.3,76.5,76.5Z"/>
      <path class="cls-4" d="m27.2,77.1c0-27.2,22.1-49.4,49.4-49.4s49.4,22.1,49.4,49.4-22.1,49.3-49.4,49.3-49.4-22.1-49.4-49.3Zm49.4,72.6c40,0,72.6-32.6,72.6-72.6S116.5,4.5,76.5,4.5,3.9,37.1,3.9,77.1s32.6,72.6,72.6,72.6Z"/>
      <g>
        <path class="cls-7" d="m15.6,53.1c0,.5,0,.9.2,1.2l.3-.7,6.2,2.8-.8,1.9-5.2-2.3-.4.8-1.6-.7c0-.1,0-.3,0-.6,0-.2,0-.5,0-.9,0-.7,0-1.2,0-1.6,0-.7.2-1.3.5-1.9.4-1,1-1.7,1.8-2.2.8-.5,1.6-.6,2.4-.3l5.8,2.6-.8,1.9-5.7-2.6c-.4-.2-.8-.2-1.2,0-.4.2-.7.6-.9,1.2-.2.4-.3.9-.3,1.4Z"/>
        <path class="cls-7" d="m26.6,44.7c0-.2-.2-.3-.4-.4l-2.3-1.5-1.2,1.8c-.1.2-.2.4-.1.6,0,.2,0,.4.3.5l-1.3,2c-1.2-.8-2.1-1.6-2.5-2.4-.5-1-.3-2,.4-3.2,0-.1.2-.3.4-.5.2-.2.4-.4.6-.7.3-.3.4-.5.5-.7.1-.2.2-.4.3-.6,0-.2.2-.4.2-.7l1.5,1c0,.2,0,.4-.2.5,0,.2-.2.4-.3.5-.2.3-.4.5-.6.7-.3.3-.5.6-.7.8-.2.2-.3.4-.4.5-.2.3-.3.7-.3.9,0,.3.2.5.5.7,0-.1,0-.2,0-.2,0-.2.1-.4.2-.6l2.3-3.6,3.7,2.4c.6.4.9,1,.9,1.7,0,.7-.3,1.4-.8,2.3-.5.8-1.1,1.3-1.7,1.7-.7.4-1.4.4-2.1,0-.4-.3-.7-.7-.8-1.2,0-.5,0-1,.3-1.5.2-.2.3-.4.5-.6.2-.1.4-.3.7-.3.2,0,.5,0,.7,0,.3,0,.5.1.7.3.1,0,.2.2.3.2,0,0,.1.2.2.3.1-.2.2-.4,0-.6Zm-1.6,2.4c.2,0,.3-.1.4-.3,0-.1.1-.3.1-.5,0-.2-.1-.3-.3-.4-.1,0-.3-.1-.5,0-.2,0-.3.1-.4.3,0,.1-.1.3-.1.5,0,.2.1.3.3.4.2,0,.3.1.5,0Z"/>
        <path class="cls-7" d="m27.2,33.4l1.4.2c-.1.8-.4,1.5-.6,2.2-.3.7-.6,1.2-.9,1.6-.4.4-.8.6-1.3.7-.5,0-.9,0-1.3-.4-.4-.3-.6-.7-.6-1.2,0-.5.1-.9.5-1.3.3-.4.8-.6,1.3-.7.5,0,.8,0,1.1.3l.4-1.5Zm-1.5,3.5c.1,0,.3,0,.4-.2,0-.1.1-.2.1-.4,0-.1,0-.3-.2-.3-.1,0-.2-.1-.4-.1-.1,0-.3,0-.4.2,0,.1-.1.2-.1.4,0,.1,0,.3.2.4.1,0,.2.1.4.1Zm5.7.1l1.4.2c-.1.8-.4,1.5-.6,2.2-.3.7-.6,1.2-.9,1.6-.4.4-.8.6-1.3.7-.5,0-.9,0-1.3-.4-.4-.3-.6-.7-.6-1.2,0-.5.1-.9.5-1.3.3-.4.8-.6,1.3-.7.5,0,.8,0,1.1.3l.4-1.5Zm-1.5,3.5c.1,0,.3,0,.4-.2,0-.1.1-.2.1-.4,0-.1,0-.3-.2-.3-.1,0-.2-.1-.4-.1-.1,0-.3,0-.4.2,0,.1-.1.2-.1.4,0,.1,0,.3.2.3.1,0,.2.1.4.1Z"/>
        <path class="cls-7" d="m33,31.8c-.5.4-1,.6-1.6.5-.6,0-1-.3-1.4-.7-.2-.2-.3-.4-.4-.7,0-.3,0-.5,0-.8,0-.3.1-.5.3-.8.1-.3.3-.5.6-.7.6-.5,1.2-.7,1.8-.7.6,0,1,.3,1.5.8l2.2,2.7-2.2-5.5,1.4-1.2c.5-.4.9-.5,1.4-.5.4,0,.8.3,1.1.6l4.7,5.6-1.6,1.3-4.4-5.3c0,0-.1-.1-.2-.2,0,0-.1,0-.2,0,0,0,0,0,0,.2,0,0,0,.1,0,.2l2.8,6.9-2.2,1.8-3.2-3.9c0,.1-.2.2-.3.3Zm-1.2-2.2c-.2,0-.4,0-.5.2-.1.1-.2.3-.3.5,0,.2,0,.3.1.5.1.1.3.2.5.2.2,0,.4,0,.5-.2.1-.1.2-.3.3-.5,0-.2,0-.3-.1-.5-.1-.1-.3-.2-.4-.2Z"/>
        <path class="cls-7" d="m47.1,25.7c0-.2,0-.3-.1-.6l-1.4-2.4-1.9,1.1c-.2.1-.3.3-.4.5,0,.2,0,.4,0,.5l-2,1.2c-.7-1.3-1.1-2.4-1.1-3.2,0-1.1.6-2,1.8-2.6.1,0,.3-.2.6-.3.2-.1.5-.2.9-.4.4-.2.6-.3.8-.4.2-.1.4-.2.6-.4.2-.1.3-.3.5-.5l.9,1.5c-.1.1-.2.3-.4.4-.2.1-.3.2-.5.3-.3.2-.6.3-.9.4-.4.2-.7.3-1,.4-.3.1-.4.2-.6.3-.4.2-.6.4-.7.7-.1.3,0,.6.1.9,0-.1,0-.2,0-.2.1-.2.3-.3.5-.4l3.7-2.1,2.2,3.8c.4.7.4,1.3,0,2-.3.6-.9,1.2-1.8,1.7-.8.5-1.6.7-2.3.7-.8,0-1.4-.3-1.8-1-.3-.5-.3-.9-.2-1.5.2-.5.5-.9,1-1.2.2-.1.5-.2.7-.3.3,0,.5,0,.8,0,.2,0,.5.2.7.3.2.1.4.3.5.6,0,.1.1.3.2.4,0,0,0,.2,0,.4.2-.1.3-.3.4-.5Zm-2.5,1.4c.2,0,.3,0,.5,0,.2,0,.3-.2.3-.4,0-.2,0-.3,0-.5,0-.1-.2-.2-.4-.3-.2,0-.3,0-.5,0-.2,0-.3.2-.3.4,0,.2,0,.3,0,.5,0,.2.2.3.4.3Z"/>
        <path class="cls-7" d="m50.8,17.9c-.2.5-.2,1.1,0,1.7l-2,.8c-.4-1-.4-2,0-2.8.4-.9,1.3-1.7,2.6-2.2,1.1-.4,2.1-.5,2.9-.3.8.2,1.4.8,1.7,1.7l1.4,3.6c.3.7.3,1.3,0,1.8-.2.6-.7,1-1.4,1.2-.6.2-1.2.3-1.8,0-.6-.2-.9-.6-1.2-1.1-.2-.5-.2-1,0-1.6.3-.5.7-.9,1.2-1.1.2,0,.3-.1.5-.1l-.7-1.9c-.2-.4-.5-.8-.8-.9-.4-.2-.9-.2-1.5,0-.6.2-.9.6-1.1,1.1Zm5,4c0-.2,0-.3,0-.5,0-.2-.2-.3-.4-.4-.2,0-.4,0-.5,0-.2,0-.3.2-.4.4,0,.2,0,.3,0,.5,0,.2.2.3.4.4.2,0,.4,0,.5,0,.2,0,.3-.2.4-.4Z"/>
        <path class="cls-7" d="m64,15.8c0,0-.2,0-.2,0,0,0-.2,0-.2,0-.6.1-1.1,0-1.6-.2-.5-.3-.8-.7-.9-1.3-.1-.6,0-1.1.3-1.6.4-.5.9-.8,1.5-.9.7-.1,1.3,0,1.8.3.5.3.9.8,1,1.5l1.4,6.6-5.3,1.2c-.2-.5-.5-1.2-1-2.1-.2-.4-.5-.9-.7-1.3-.3-.4-.5-.9-.8-1.3-.6-.9-1.1-1.6-1.6-2.1l1.3-1.8c.8,1,1.5,2.1,2.2,3.4.4.7.7,1.3,1,1.9.3.6.5,1.1.7,1.7l1.9-.4-.8-3.6Zm-1.3-1.3c.2,0,.3.1.5,0,.2,0,.3-.1.4-.3.1-.2.1-.3.1-.5,0-.2-.1-.3-.3-.4-.2,0-.3-.1-.5,0-.2,0-.3.1-.4.3-.1.2-.1.3-.1.5,0,.2.1.3.3.4Z"/>
        <path class="cls-7" d="m77.6,15.4c0,.5-.1,1.2-.3,2-.1.8-.1,1.6-.1,2.2h-2.6c0-1.1-.3-2.2-.7-3.2-.5-1.1-1-1.6-1.7-1.5-.4,0-.7.2-.9.5-.2.2-.3.5-.3.7.2,0,.3,0,.4,0,.3,0,.6,0,.8.1.3,0,.5.2.7.4.2.2.4.4.5.6.1.2.2.5.2.8,0,.6-.2,1-.6,1.5-.4.4-.9.6-1.5.7-.8,0-1.4-.2-1.9-.8-.5-.5-.8-1.2-.8-2.1,0-1.1.2-2,.8-2.7.6-.8,1.5-1.3,2.6-1.3.9,0,1.7.3,2.2,1,.2.2.4.5.5.9.2.3.3.7.4,1.2.1-.5.2-.9.2-1.4,0-.8-.3-1.5-.9-2-.6-.5-1.3-.8-2.3-.7-.5,0-1,.2-1.5.4-.5.3-.8.6-.9,1.1h-2c.2-.8.8-1.5,1.6-2,.8-.5,1.8-.8,3-.9.3,0,.5,0,.7,0,.2,0,.3,0,.5,0l.7-.9h2.8c0-.1-1.3,1.5-1.3,1.5.5.3,1,.7,1.3,1.2.3.5.5,1.1.5,1.9,0,.2,0,.6,0,1.1Zm-6.5,3.1c.1.1.3.2.5.2.2,0,.4,0,.5-.2.1-.1.2-.3.2-.5,0-.2,0-.3-.2-.5-.1-.1-.3-.2-.5-.2-.2,0-.4,0-.5.2-.1.1-.2.3-.2.5,0,.2,0,.3.2.5Z"/>
        <path class="cls-7" d="m86,11.9c.5.6.7,1.3.6,2.3l-.7,6.1-2-.2.7-5.9c0-.6,0-1-.3-1.3-.2-.2-.5-.4-.9-.4-.5,0-.9.1-1.2.5-.2.3-.4.8-.4,1.3v.2c0,0,0,.1,0,.2l-2.1-.2c.1-1.1.4-1.9,1-2.6.7-.9,1.7-1.2,3-1.1,1.2.1,2,.5,2.5,1.1Z"/>
        <path class="cls-7" d="m94.5,13c.9.3,1.4.5,1.7.6.2,0,.4.1.5.1.1,0,.3,0,.5,0l-.4,1.6c-.4,0-.7,0-1.1,0-.2,0-.8-.3-1.6-.7-.4-.2-.8-.4-1.1-.4-.4-.1-.8,0-1.2,0-.4.2-.6.4-.7.7.2,0,.5-.1.8-.1.5,0,1,0,1.6.2,1,.3,1.7.6,2.2,1.1.5.5.7,1.2.5,1.9l-1.2,4.5-7-1.9,1-3.9,2,.5-.6,2.4,3,.8.7-2.7c0-.3,0-.6-.2-.8-.2-.2-.6-.4-1-.5-.4-.1-.7-.1-1.1,0-.3,0-.6.2-.7.4l-2.6-.7c.4-1.4,1-2.4,1.9-3,.9-.6,1.9-.7,3.1-.4.3,0,.7.2,1.1.4Z"/>
        <path class="cls-7" d="m105,17.5c.3.7.3,1.5,0,2.4l-2.5,5.6-1.9-.8,2.4-5.5c.2-.6.3-1,.1-1.3-.1-.3-.4-.5-.7-.7-.5-.2-.9-.2-1.3.1-.3.2-.6.6-.8,1.1v.2c-.1,0-.1.1-.2.2l-1.9-.8c.4-1,1-1.7,1.7-2.2.9-.6,2-.7,3.1-.2,1.1.5,1.8,1.1,2.1,1.7Z"/>
        <path class="cls-7" d="m109,27.3c.2,0,.3-.2.4-.4l1.5-2.4-1.8-1.1c-.2-.1-.4-.2-.6-.1-.2,0-.4.1-.5.3l-2-1.2c.8-1.3,1.6-2.1,2.3-2.5,1-.5,2-.4,3.2.4.1,0,.3.2.5.4.2.2.5.4.7.6.3.2.5.4.7.5.2.1.4.2.6.3.2,0,.4.1.7.2l-.9,1.5c-.2,0-.4,0-.6-.1-.2,0-.4-.2-.5-.3-.3-.2-.5-.4-.8-.6-.3-.3-.6-.5-.8-.7-.2-.2-.4-.3-.5-.4-.3-.2-.7-.3-.9-.3-.3,0-.5.2-.7.5.1,0,.2,0,.2,0,.2,0,.4,0,.6.2l3.6,2.3-2.3,3.7c-.4.6-1,1-1.7,1-.7,0-1.4-.2-2.3-.8-.8-.5-1.4-1.1-1.7-1.7-.4-.7-.4-1.4,0-2.1.3-.4.7-.7,1.2-.8.5-.1,1,0,1.5.3.2.1.4.3.6.5.2.2.3.4.3.7,0,.2,0,.5,0,.7,0,.3-.1.5-.2.7,0,.1-.2.2-.2.3,0,0-.2.1-.3.2.2.1.4.2.6,0Zm-2.4-1.6c0,.2.2.3.3.4.2,0,.3.1.5,0,.2,0,.3-.1.4-.3,0-.1.1-.3,0-.5,0-.2-.1-.3-.3-.4-.2,0-.3-.1-.5,0-.2,0-.3.1-.4.3,0,.2-.1.3,0,.5Z"/>
        <path class="cls-7" d="m117.6,36.4l-1.7-1.6,4.2-4.5c.3-.3.4-.7.4-1.1,0-.5-.3-.9-.7-1.3-.3-.3-.7-.5-1.1-.7-.4-.1-.8-.2-1.1-.2l.4.3-2,2.1c.1,0,.2.2.3.3.4.4.7.9.7,1.5,0,.6-.1,1.1-.5,1.5-.4.4-.9.6-1.4.6-.6,0-1.1-.2-1.5-.6-.5-.5-.8-1.1-.8-1.7,0-.6.2-1.1.6-1.5l2.4-2.6-.8-.7,1.2-1.3c.1,0,.3.1.5.2.2,0,.5.1.9.2.7.2,1.2.3,1.6.5.6.3,1.2.6,1.7,1.1.8.8,1.3,1.6,1.5,2.4.2.9,0,1.7-.6,2.3l-2.8,2.9,3,.4,3.4-3.6,1.5,1.4-3.5,3.7.2.2c.2.2.4.4.5.7.1.3.2.5.2.8,0,.3,0,.5,0,.8,0,.3-.2.5-.4.7-.4.4-.8.6-1.4.6-.6,0-1.1-.2-1.5-.6-.4-.4-.7-.9-.8-1.4,0-.5,0-1,.3-1.4l-2.7-.3Zm-3.3-5.1c0,.2,0,.3.2.5.1.1.3.2.5.2.2,0,.3,0,.5-.2.1-.1.2-.3.2-.5,0-.2,0-.3-.2-.5-.1-.1-.3-.2-.5-.2-.2,0-.3,0-.5.2-.1.1-.2.3-.2.5Zm7.3,6.8c0,.2,0,.3.2.5.1.1.3.2.5.2.2,0,.4,0,.5-.2.1-.1.2-.3.2-.5,0-.2,0-.3-.2-.5-.1-.1-.3-.2-.5-.2-.2,0-.3,0-.5.2-.1.1-.2.3-.2.5Z"/>
        <path class="cls-7" d="m130.9,46.4c-.5.2-1.1.5-1.9.8-.8.3-1.4.7-1.9,1l-1.5-2.2c1-.7,1.8-1.5,2.5-2.3.7-1,.8-1.7.5-2.2-.2-.3-.5-.5-.8-.5-.3,0-.5,0-.7.1.1.1.2.2.3.3.2.2.3.5.3.8,0,.3,0,.5,0,.8,0,.3-.1.5-.3.7-.1.2-.3.4-.6.6-.5.3-1,.4-1.5.3-.6-.1-1-.4-1.3-.9-.4-.6-.5-1.3-.3-2,.2-.7.7-1.3,1.3-1.7.9-.6,1.8-.8,2.7-.8,1,0,1.9.6,2.5,1.5.5.8.6,1.6.3,2.4-.1.3-.3.6-.5.9-.2.3-.5.6-.8.9.5-.1.9-.3,1.3-.6.7-.5,1.1-1,1.2-1.8.2-.7,0-1.5-.6-2.3-.3-.4-.7-.8-1.1-1.1-.5-.3-1-.4-1.4-.2l-1.1-1.7c.9-.3,1.7-.2,2.6.3.9.4,1.6,1.1,2.3,2.2.1.2.3.4.4.6,0,.2.2.3.2.4h1.1c0,0,1.5,2.4,1.5,2.4l-2-.3c0,.6,0,1.2-.3,1.7-.3.5-.7,1-1.4,1.4-.2.1-.5.3-1,.5Zm-6-4c0,.2,0,.4.1.5.1.2.3.3.4.3.2,0,.3,0,.5,0,.2-.1.2-.2.3-.4,0-.2,0-.4-.1-.5-.1-.2-.3-.3-.4-.3-.2,0-.3,0-.5,0-.1.1-.2.2-.3.4Z"/>
        <path class="cls-7" d="m122.6,47.7c0-.4.3-.7.7-.9.4-.2.8-.2,1.2,0,.4.1.7.4,1,.9.3.5.3,1,.2,1.5-.1.5-.5.9-.9,1.1l-2.4,1.3-1-1.9,1.4-.8c-.2-.3-.2-.7-.1-1.1Zm.9.4c0,.1,0,.3,0,.4,0,.1.2.2.3.3.1,0,.3,0,.4,0,.1,0,.2-.2.3-.3,0-.1,0-.3,0-.4,0-.1-.2-.2-.3-.3-.1,0-.3,0-.4,0-.1,0-.2.2-.3.3Z"/>
        <path class="cls-7" d="m134.5,50.6c-.3-.2-.6-.5-.7-.9-.2-.5-.2-1,0-1.5.2-.5.5-.8,1-1,.3-.1.6-.2.9-.2.3,0,.6,0,.8.2.3.1.5.3.7.6.2.2.4.5.6.8.4.8.4,1.7,0,2.5-.3.7-.9,1.3-1.7,1.6-.5.2-1,.2-1.5,0-.2-.1-.4-.2-.6-.4-.2-.1-.4-.2-.6-.3-.5-.2-.9-.3-1.3-.1l-1,.4,1.2,2.8,6.9-3,.8,1.9-8.3,3.6-2.9-6.6,2.5-1.1c.5-.2,1-.2,1.5,0,.2,0,.6.3,1.3.7.4.3.8.3,1,.3.1,0,.2,0,.2-.1-.2,0-.5-.1-.7-.3Zm.4-1.8c0,.2,0,.4,0,.6,0,.2.2.3.4.4.2,0,.4,0,.5,0,.2,0,.3-.2.4-.4,0-.2,0-.4,0-.6,0-.2-.2-.3-.4-.4-.2,0-.4,0-.5,0-.2,0-.3.2-.4.4Z"/>
      </g>
      <g>
        <path class="cls-7" d="m21.6,92l-5.2,3.3,6.2-.2.6,2.1-8.3,2.5-.4-1.4,5.9-1.8h-6.4c0,.1-.3-1-.3-1l5.4-3.4-5.9,1.8-.4-1.4,8.3-2.5.6,2.1Z"/>
        <path class="cls-7" d="m24.4,100l-8,3.4-.6-1.4,8-3.4.6,1.4Z"/>
        <path class="cls-7" d="m25.6,102.7l-3.7,5.4,5.1-2.8.7,1.3-7.7,4.1-.7-1.4,3.7-5.3-5.1,2.7-.7-1.3,7.7-4.1.7,1.3Z"/>
        <path class="cls-7" d="m29.4,109.2l-7.2,4.8-.9-1.3,7.2-4.8.9,1.3Z"/>
        <path class="cls-7" d="m25.6,116c0,.4.1.7.4,1.1.2.3.5.5.7.6.3.1.7,0,1-.2.3-.2.4-.5.4-.8,0-.2-.2-.8-.6-1.8-.3-.8-.4-1.5-.2-2,.1-.4.4-.8.9-1.2.6-.5,1.3-.7,2.1-.6.6.1,1.2.5,1.6,1,.5.6.8,1.3.7,1.9,0,.8-.4,1.4-1.2,2l-.9-1.2c.4-.3.6-.6.5-1,0-.3-.1-.6-.4-.9-.2-.2-.4-.4-.6-.4-.3,0-.6,0-.8.2-.3.2-.4.6-.2,1,0,.2.2.7.5,1.4.2.5.3,1,.3,1.3,0,.7-.3,1.4-1,1.9-.7.5-1.3.7-2,.7-.7,0-1.4-.5-2-1.2-.5-.7-.8-1.4-.7-2.1,0-.8.5-1.5,1.3-2.2l.9,1.2c-.4.3-.7.7-.7,1.1Z"/>
        <path class="cls-7" d="m32.8,116.3l1.1-1.1,4.1,4.1-1.1,1.1-1.5-1.5-5,5-1.1-1.1,5-5-1.5-1.5Z"/>
        <path class="cls-7" d="m41.7,122.3c.2.2.4.4.5.7.1.3.2.5.2.8,0,.3,0,.6-.1.9-.1.3-.3.6-.5.8-.3.4-.7.7-1,.9-.4.2-.8.2-1.2.1.2.3.2.7.1,1.1,0,.4-.3.7-.6,1.1-.1.2-.3.3-.4.5-.1.1-.2.3-.3.4-.2.4-.4.7-.4,1l-1.2-1c0-.1,0-.2.2-.4,0-.1.2-.3.3-.5.3-.5.5-.8.6-.9.2-.4.4-.7.4-1,0-.3-.2-.5-.5-.8l-1.2-1-2.1,2.7-1.2-1,5.4-6.8,3,2.4Zm-2.9,2.7c.3.2.5.3.8.3.3,0,.5-.2.8-.6.5-.6.5-1.2,0-1.6l-1.3-1.1-1.5,1.9,1.3,1.1Z"/>
        <path class="cls-7" d="m43.8,124l1.5.9-.4,3.8,3.2-2.1,1.5.9-5,3.2-1.7,2.9-1.3-.8,1.8-2.9.5-5.9Z"/>
        <path class="cls-7" d="m59.3,132.8c.3,1,.2,2.1-.2,3.4-.4,1.2-1.1,2.1-1.9,2.7-.9.6-1.9.8-2.8.4-1-.4-1.7-1.1-2-2.1-.3-1-.2-2.1.2-3.3.5-1.3,1.1-2.2,2-2.8.9-.6,1.9-.7,2.9-.4,1,.4,1.7,1.1,2,2.1Zm-2.8,4.6c.5-.4.8-1,1.1-1.8.3-.8.4-1.5.3-2.1-.1-.7-.5-1.2-1.1-1.4-.6-.2-1.2,0-1.7.4-.5.4-.8,1-1.1,1.8-.3.8-.4,1.4-.3,2,.1.7.5,1.1,1.1,1.4.6.2,1.2,0,1.7-.4Z"/>
        <path class="cls-7" d="m66.5,133.5l-.4,1.6-3.3-.7-.4,2,2.9.6-.3,1.4-2.9-.6-.8,3.5-1.5-.3,1.9-8.5,4.8,1.1Z"/>
        <path class="cls-7" d="m75.2,134.4c.8,0,1.4.3,1.9.9.4.5.5,1.2.5,2,0,.8-.2,1.4-.6,1.9-.5.6-1.1.8-1.9.8h-1.6s0,3.1,0,3.1h-1.5s.2-8.7.2-8.7h3.2Zm-.5,4.2c.4,0,.8,0,1-.2.3-.2.4-.5.4-1.1,0-.5-.1-.9-.4-1.1-.2-.2-.5-.3-1-.3h-1.2s0,2.6,0,2.6h1.2Z"/>
        <path class="cls-7" d="m84.7,141.9c-.5.6-1.2,1-2.1,1.1-1,0-1.7-.1-2.3-.6-.6-.5-.9-1.4-1-2.6l-.5-5.4h1.5c0-.1.5,5.2.5,5.2,0,.6.2,1,.4,1.3.3.4.7.5,1.2.5.5,0,.9-.2,1.1-.6.2-.3.3-.8.2-1.5l-.5-5.4h1.5c0-.1.5,5.2.5,5.2.1,1.2,0,2-.5,2.7Z"/>
        <path class="cls-7" d="m89.4,132.9c.7-.2,1.3-.1,1.7,0,.5.3.8.8,1,1.5.2.8,0,1.5-.5,2,.4,0,.8.2,1.1.6.3.3.5.8.6,1.3.2.8,0,1.5-.3,2-.3.5-.9.8-1.5,1l-3.3.8-1.9-8.5,3.2-.7Zm.6,3.5c.3,0,.5-.2.6-.4.1-.2.2-.5,0-.9,0-.3-.2-.6-.5-.7-.2,0-.5-.1-.8,0l-1.4.3.5,2,1.5-.3Zm.9,3.6c.3,0,.6-.2.7-.4.2-.2.2-.6.1-1,0-.4-.3-.7-.5-.8-.2-.2-.5-.2-.9-.1l-1.7.4.5,2.3,1.6-.4Z"/>
        <path class="cls-7" d="m94.6,131.5l2.3,6.7,3.3-1.1.5,1.5-4.7,1.6-2.9-8.2,1.5-.5Z"/>
        <path class="cls-7" d="m100.1,129.4l3.5,8-1.4.6-3.5-8,1.4-.6Z"/>
        <path class="cls-7" d="m106.6,128.6c-.2-.1-.3-.2-.5-.3-.2,0-.4,0-.6,0-.2,0-.4,0-.5.2-.6.3-.8.8-.8,1.5,0,.6.2,1.3.6,2,.4.7.8,1.2,1.4,1.5.6.4,1.2.4,1.7,0,.4-.2.6-.6.7-1,0-.4,0-.9-.3-1.5l1.3-.7c.2.5.4,1,.4,1.4,0,.5,0,.9,0,1.3,0,.4-.2.8-.5,1.1-.2.3-.5.6-.9.8-.9.5-1.9.5-2.9.1-.9-.4-1.7-1.2-2.4-2.4-.7-1.2-.9-2.3-.8-3.3.1-1.1.7-1.9,1.6-2.4.7-.4,1.4-.5,2.2-.3.8.2,1.4.7,2,1.5l-1.3.7c-.1-.2-.3-.3-.5-.4Z"/>
        <path class="cls-7" d="m112.9,121.5l2.2,2.5,2.2-1.9-2.2-2.5,1.2-1,5.7,6.5-1.2,1-2.5-2.8-2.2,1.9,2.5,2.8-1.2,1-5.7-6.5,1.2-1Z"/>
        <path class="cls-7" d="m120.8,113.6l1.2,1.1-2.5,2.8,1.4,1.2,2.3-2.6,1.1,1-2.3,2.6,1.6,1.4,2.5-2.8,1.2,1.1-3.6,4-6.5-5.8,3.5-3.9Z"/>
        <path class="cls-7" d="m123.7,109.8l8.6,2.8-.9,1.3-1.9-.7-1.5,2.2,1.3,1.6-.9,1.3-5.6-7.2.9-1.3Zm4.4,3l-3.1-1.1,2.1,2.6,1-1.5Z"/>
        <path class="cls-7" d="m126.3,105.6l6.2,3.4,1.6-3,1.4.8-2.4,4.4-7.6-4.2.7-1.4Z"/>
        <path class="cls-7" d="m129.7,102.8l-1.5-.6,2.2-5.3,1.5.6-.8,2,6.6,2.7-.6,1.4-6.6-2.7-.8,2Z"/>
        <path class="cls-7" d="m131.2,94.4l3.2.9.8-2.8-3.2-.9.4-1.5,8.4,2.3-.4,1.5-3.6-1-.8,2.8,3.6,1-.4,1.5-8.4-2.3.4-1.5Z"/>
      </g>
      <g>
        <g>
          <path class="cls-5" d="m13.5,74.3c0,.5.5,1,1,.9.5,0,.9-.5.9-1,0-.5-.5-1-1-.9-.5,0-.9.5-.9,1Z"/>
          <path class="cls-5" d="m15.1,73.3s1.1-.6,0-1.6c0,0-.3-.3-.5-.6,0,0-.4-.5-.5-.9,0,0-.2.7-.5,1.1l-.4.6s-.6.7-.2,1.2c0,0,.2.3.5.4,0,0,.6-.8,1.6-.2Z"/>
          <path class="cls-5" d="m15.2,75.1s1.1.5.2,1.5c0,0-.3.3-.5.7,0,0-.3.5-.4,1,0,0-.2-.7-.6-1.1l-.5-.6s-.7-.6-.3-1.1c0,0,.2-.3.4-.4,0,0,.8.8,1.6,0Z"/>
          <path class="cls-5" d="m11.4,74.5c.3-.2.8-.9.8-.9.2-.4.5-.4.5-.4.4-.1.8.5.8.5,0,0-.3.6,0,1.1,0,0,0,.4-.5.5,0,0-.5.2-.8-.1,0,0-.4-.3-.5-.4,0,0-.3-.2-.4-.3h0Z"/>
          <path class="cls-5" d="m17.5,74.2c-.4-.2-.9-.9-.9-.9-.3-.4-.5-.4-.5-.4-.4,0-.7.6-.7.6,0,0,.3.6,0,1.2,0,0,.1.4.5.5,0,0,.5.2.8-.2,0,0,.3-.4.5-.5,0,0,.3-.3.3-.3h0Z"/>
          <path class="cls-5" d="m14.8,71s1.1-.5.8-1.9c0,0-.2-1-.1-1.5,0,0,.2-1.9.7-2.7,0,0-1.7,1.5-2.4,3,0,0-.8,1-.7,1.9,0,0,.1.9.5,1.1h0s.4-.8.4-1v-.2c0,0,.4,1.1.7,1.4Z"/>
          <path class="cls-5" d="m12.8,73s-.9.4-1.2-.8c0,0-.1-.9.5-1.5,0,0,.5-1.1-.3-1.5,0,0,1.6.6,1.6,2,0,0-.1.4-.4.6,0,0-.6.9-.2,1.2Z"/>
          <path class="cls-5" d="m13,75.5s-.6-.1-.9.6c0,0-.3.8.5,1.3,0,0,.6.4.6.6,0,0,.4.8-.4,1.5l-.2.2s.9,0,1.3-.9c0,0,.5-.8,0-1.4,0,0-.5-.5-.6-.8,0,0-.5-.7-.2-1.1Z"/>
          <path class="cls-5" d="m15.7,72.8s1,0,.9-1.1c0,0,0-1.4.7-1.4,0,0-.8-.3-1.3-.1,0,0-.8.4-1,1,0,0,0,.3.6.6,0,0,.4.6.2,1Z"/>
          <path class="cls-5" d="m15.8,75.3s1.3.1,1.2,1.2c0,0,0,.5-.4.8,0,0-.6.9.6,1.4,0,0-1.2,0-1.7-.5,0,0-.4-.4-.4-.7,0,0,0-.3.2-.6,0,0,.3-.2.3-.4,0,0,.3-.7,0-1.1Z"/>
          <path class="cls-5" d="m15.1,77.5s.4.9,1,1.2c0,0,.8.8.3,2.1,0,0-.2,1.2.3,2.1,0,0,.6,1.1.8,1.4,0,0-1.2-.6-2.1-1.5,0,0-1-1.5-1.2-2,0,0-.5-1.1-.3-1.8,0,0,.3-.9.3-1.1,0,0,.4.7.4,1,0,0,.2-1,.4-1.4Z"/>
        </g>
        <g>
          <path class="cls-5" d="m140,74.6c0,.5-.5.9-1,.9-.5,0-.9-.5-.9-1,0-.5.5-.9,1-.9.5,0,.9.5.9,1Z"/>
          <path class="cls-5" d="m138.4,73.7s-1.1-.6,0-1.4c0,0,.3-.3.5-.6,0,0,.4-.5.5-.8,0,0,.2.6.5,1l.4.6s.6.6.2,1.1c0,0-.2.3-.5.3,0,0-.6-.8-1.6-.2Z"/>
          <path class="cls-5" d="m138.3,75.3s-1.1.5-.2,1.4c0,0,.3.3.5.6,0,0,.3.5.4.9,0,0,.2-.6.6-1l.5-.5s.7-.6.3-1c0,0-.2-.3-.4-.4,0,0-.7.7-1.6,0Z"/>
          <path class="cls-5" d="m142.1,74.8c-.3-.2-.7-.8-.7-.8-.2-.4-.5-.4-.5-.4-.4,0-.7.4-.7.4,0,0,.3.6,0,1,0,0,0,.3.4.4,0,0,.5.2.8,0,0,0,.4-.3.5-.4,0,0,.3-.2.4-.2h0Z"/>
          <path class="cls-5" d="m136.1,74.5c.4-.2.8-.8.8-.8.2-.4.5-.3.5-.3.4,0,.7.5.7.5,0,0-.3.6,0,1.1,0,0-.1.4-.5.4,0,0-.5.2-.8-.2,0,0-.3-.4-.5-.4,0,0-.3-.3-.3-.3h0Z"/>
          <path class="cls-5" d="m138.7,71.6s-1-.5-.8-1.7c0,0,.1-.9.1-1.4,0,0-.2-1.8-.8-2.5,0,0,1.7,1.4,2.4,2.8,0,0,.8.9.7,1.7,0,0,0,.8-.5,1h0s-.4-.7-.4-.9v-.2c0,0-.3,1-.7,1.2Z"/>
          <path class="cls-5" d="m140.7,73.4s.9.4,1.1-.7c0,0,.1-.8-.5-1.3,0,0-.5-1,.3-1.4,0,0-1.5.5-1.5,1.8,0,0,.1.4.4.6,0,0,.6.8.2,1.1Z"/>
          <path class="cls-5" d="m140.5,75.7s.6,0,.9.6c0,0,.3.7-.5,1.2,0,0-.5.4-.6.6,0,0-.3.7.4,1.3l.2.2s-.9,0-1.3-.8c0,0-.5-.7,0-1.3,0,0,.5-.5.6-.7,0,0,.4-.6.2-1Z"/>
          <path class="cls-5" d="m137.8,73.3s-1,0-.9-1c0,0,0-1.3-.7-1.3,0,0,.8-.3,1.3,0,0,0,.7.3,1,.9,0,0,0,.3-.5.6,0,0-.4.6-.2.9Z"/>
          <path class="cls-5" d="m137.7,75.5s-1.3.1-1.2,1.1c0,0,0,.4.4.7,0,0,.6.8-.6,1.3,0,0,1.1,0,1.6-.4,0,0,.4-.3.4-.7,0,0,0-.3-.2-.6,0,0-.3-.2-.3-.4,0,0-.3-.6,0-1Z"/>
          <path class="cls-5" d="m138.5,77.6s-.3.8-.9,1.1c0,0-.7.8-.3,1.9,0,0,.2,1.1-.3,1.9,0,0-.6,1-.8,1.3,0,0,1.2-.5,2-1.4,0,0,1-1.3,1.2-1.8,0,0,.4-1,.2-1.6,0,0-.3-.8-.3-1,0,0-.4.7-.3.9,0,0-.2-.9-.4-1.3Z"/>
        </g>
      </g>
      <path class="cls-7" d="m126.8,77.3c0,27.8-22.6,50.4-50.4,50.4s-50.4-22.6-50.4-50.4,22.6-50.4,50.4-50.4,50.4,22.6,50.4,50.4Z"/>
      <g>
        <g>
          <g>
            <path class="cls-2" d="m75.9,82.2c-.9,0-4.9-.1-6.2-.3,0,0-6.4-.6-8-1.2,0,0-3.1-.6-4.5-2,0,0-1.3-1.4-1.2-3.1,0,0,0-1.7,1-2.2,0,0,1-.4,1.5-.2,0,0-.8-.6-.4-2.1h.2c0-.1-.5,1,0,1.8,0,0,.5.8,1.3,1,0,0,.7.2,2.2.2,0,0,2,0,2.6,0,0,0,1.5-.1,1.9-.9,0,0,.2-.3.2-.5,0,0,0-.4-.4-.4h-4.3c0-.1,0-.2,0-.2h4.2c0,.1.5.1.7.6,0,0,1.5.2,1.8-.2,0,0,.8-.4-.4-1.5,0,0-3.1-.8-4-1.4,0,0-2.2-1.2-3.8-.9,0,0-3.2.1-4.4.6,0,0-1.9.4-3.1,1.6,0,0-1.9,1.9-2.2,4.3,0,0-.4,3.5,1.5,6,0,0,1.7,2.3,4.1,3.5,0,0,3,1.4,5.1,1.5,0,0,3.9.6,5.5.4h.3s0,0,0,0c0,0,2.3-2.5,6.6-3.6,0,0,2-.5,2.5-.7h.2c0,0-.6,0-.6,0Z"/>
            <path class="cls-2" d="m95.3,80.1c.4-.3.9-.7,1.4-1.5,0,0,.7-1.1.7-2.2,0,0,.2-1.4-.6-2,0,0-.9-.7-1.7-.5,0,0,.7-1.1.3-1.8,0,0,.2,2.1-1.3,2.2,0,0-.3.2-1.6.2,0,0-1.9,0-2.9-.1,0,0-1.1,0-1.9-.5,0,0-.6-.3-.8-.9h0c0,0,5.2-.2,5.4-.2h-5.3s-.3,0-.3,0c0,0-1.8.3-1.8-.7,0,0-.1-1.1,1.1-1.1,0,0,2.5-.6,3-.9,0,0,1.6-1.4,3.7-1.2,0,0,1.9.2,2.6.2,0,0,1.6.1,2.6.6,0,0,2.2.6,3.8,3.4,0,0,1.8,3.1.5,6.8,0,0-.7,3-5.7,5.6,0,0-3.9,1.5-9.2,1.3,0,0-5.3.2-6.6.2,0,0-4.7.5-5.3,1.1,0,0-2,.5-3.1,2,0,0-.6,1.1-.4,2.3,0,0,.4,1.3,1.5,1.8v2.3c.1,0-1.6.1-3.3,2l-.2.2s-1.7-1.2-2.6-2.5c0,0-1-1.2-1.6-2.9,0,0-.7-1.4-.1-3.4,0,0,.2-1.3,1.5-2.8,0,0,1.1-1.1,2-1.7,0,0,.9-.7,2.2-1.2,0,0,1.8-.8,3-1,0,0,1.4-.4,3.3-.8,0,0,.6,0,1.5-.1,0,0,1.5-.2,2.8-.2,0,0,2.6,0,3.2,0,0,0,2.2-.2,2.9-.2,0,0,2.2-.2,2.6-.2,0,0,1.4-.1,2.1-.3,0,0,1.1-.2,1.7-.4,0,0,.5-.2.7-.3l.5-.3Z"/>
            <g>
              <path class="cls-2" d="m91.5,70.3s-.2.2-.2.3c0,0,0,.6.3.7,0,0,.5.3.9,0,0,0,.4-.2.4-.4,0,0,0-.5-.5-.7,0,0-.3-.2-.6-.2,0,0-.2,0-.4.2Z"/>
              <path class="cls-2" d="m92.4,70.9c0,.1-.1.3-.3.3s-.3-.1-.3-.3.1-.3.3-.3.3.1.3.3Z"/>
            </g>
            <path class="cls-2" d="m76.9,87.5s3.6-.7,4.6-.6c0,0,1.3,0,1.6,0,0,0,1.5,0,1.9,0,0,0,.7,0,1,0h.1s.4.5.8,1.3c0,0,.8,1.4.7,2.9,0,0,0,1.3-.3,2.5,0,0-.6,1.4-1.5,2.5,0,0-.7.9-1.4,1.5,0,0-1.1.8-1.5,1.1,0,0-.9.5-1.3.7,0,0-1,.7-2.4,1.2h-.2c0,0,.1-2.5.1-2.5l.2-3.7s.1.2,1-.5c0,0,.6-.5.9-1.3,0,0,.2-.3,0-1.2,0,0-.1-.8-.5-1.1,0,0-.4-.6-1.2-1.1,0,0-.7-.5-1.2-.8,0,0-.7-.3-1-.5l-.5-.2Z"/>
            <path class="cls-2" d="m70.8,97.7s.7-.6,1.5-1c0,0,.5-.2,1-.3l.3,4.8s-.6.3-.8.8c0,0-.2.7,0,1,0,0,.1,1.1,1.6,1.7,0,0,.1.2,1.6.7,0,0-1.6.5-2.2.9,0,0-1.4.7-1.9,1.2h-.1c0,0-.7,0-2.1-1.5,0,0-.8-.9-1.1-2.2,0,0-.2-.7-.2-1.4,0,0,0-.5,0-1.1,0,0,.2-.7.5-1.4,0,0,.3-.5.5-.8,0,0,.5-.5.6-.6,0,0,.3-.3.6-.5l.3-.3Z"/>
            <path class="cls-2" d="m79,100.5s1.4-.5,2.2-1c0,0,1.2-.6,1.5-.9,0,0,.7.9,1,1.3,0,0,.4.7.5,1.8,0,0,.2,1.2-.4,2.5,0,0-.5,1.2-1.4,2,0,0-1.2.8-2.5,1.4,0,0-1.1.3-2.5.5,0,0-1.9.2-3.6,1.5,0,0-1.2.8-1.7,1.6,0,0-.7.8-.9,1.7,0,0-.3,1,.4,1.6,0,0,0,.1.7.6,0,0,0,.3-.2.3,0,0-.7.4-2-.7,0,0-.8-.5-.9-2.2,0,0-.2-1.2.7-2.5,0,0,.1-.5,1-1.5,0,0,.1-.3,1.2-1.1,0,0,.7-.6,1.4-.9,0,0,.5-.4,1.4-.7,0,0,.7-.3,1.3-.5,0,0,.7,0,1.8-.7,0,0,.6-.3,1.4-.8,0,0,.4-.2.6-1.2,0,0,0-.4-.2-1.1,0,0-.1-.5-.4-.8,0,0-.2-.1-.3-.3Z"/>
            <path class="cls-2" d="m80.7,115.6c1.3-.5,1.9-1.5,1.9-1.5.6-1,.4-2.7.4-2.7-.2-1.2-.8-2-.8-2-.3-.5-1-1.2-1-1.2-.6-.7-.8-.6-.8-.6-.5.3-1.3.4-1.3.4-.7.2-1.4.3-1.4.3-.7,0-1.6.3-1.6.3h-.1s.3.1.3.1c.5.2.9.4.9.4.6.3,1.3.8,1.3.8.7.5,1.3,1.2,1.3,1.2.6.6,1,1.6,1,1.6.3.9,0,1.6,0,1.6-.2.5-.4.7-.5.9,0,0-.2.2-.4.3,0,0-.2,0,0,.3,0,0,.2,0,.4,0h.4Z"/>
            <g>
              <path class="cls-2" d="m60.8,69.9s-.2.2-.2.3c0,0,0,.6.3.7,0,0,.5.3.9,0,0,0,.4-.2.4-.4,0,0,0-.5-.5-.7,0,0-.3-.2-.6-.2,0,0-.2,0-.4.2Z"/>
              <path class="cls-2" d="m61.8,70.5c0,.1-.1.3-.3.3s-.3-.1-.3-.3.1-.3.3-.3.3.1.3.3Z"/>
            </g>
          </g>
          <g>
            <g>
              <g>
                <path class="cls-2" d="m81.1,67.4c0,.7-.5,1.3-1.1,1.3h-6.5c-.6,0-1.1-.6-1.1-1.3h0c0-.7.5-1.3,1.1-1.3h6.5c.6,0,1.1.6,1.1,1.3h0Z"/>
                <path class="cls-2" d="m80.5,69.6c0,.4-.3.8-.7.8h-6.1c-.4,0-.7-.3-.7-.8h0c0-.4.3-.8.7-.8h6.1c.4,0,.7.3.7.8h0Z"/>
                <path class="cls-2" d="m81,65.2c0,.4-.3.8-.7.8h-6.9c-.4,0-.7-.3-.7-.8h0c0-.4.3-.8.7-.8h6.9c.4,0,.7.3.7.8h0Z"/>
                <g>
                  <path class="cls-2" d="m88.6,69.8c1.3-.6,2.3-1.7,2.3-1.7,1.2-1.6,1.1-4.4,1.1-4.4,0-1.3.4-2.4.4-2.4.2-.9,1.4-1.5,1.4-1.5,1.3-.3,1.7-.7,1.7-.7-.5.2-1.6,0-1.6,0-1.4-.2-2.4,0-2.4,0-1.3,0-2.2.8-2.2.8-1.5,1.2-1.1,2.5-1.1,2.5.2.9.9,1,.9,1,.5.2.6-.4.6-.4,0-.9-.9-.5-.9-.5,0-.4.4-.6.4-.6,1.8-.6,1.6,1.5,1.6,1.5-.1.9-.9,1.3-.9,1.3-.2,4.5-3.8,4.7-3.8,4.7-4.2.8-5.1-1.3-5.1-1.3-.3.6-.9.8-.9.8,1.4,1.2,2.3,1.5,2.3,1.5.9.4,1.7.4,2.2.3,0,0,1,0,1.6-.3,0,0,.8,0,2.1-.6Z"/>
                  <path class="cls-2" d="m89.2,62.1s.8-.1.8.6c0,0,0,1-1.1.6,0,0-1.3-.6-.8-2.3,0,0,.5-1.2,1.5-1.7,0,0,.9-.6,2.3-.6,0,0,.8,0,1.5,0,0,0,.8,0,1.3.2,0,0,.7.2,1.3-.3,0,0,0,.3-.7.8,0,0-.2.1-.5.3,0,0-.9.2-1.1.4,0,0-1.1.5-1.4,1.8,0,0-.3,1.4-.3,2.2,0,0,0,1.7-.4,2.6,0,0-.4,1.3-1,1.9,0,0-.5.5-.8.7,0,0,1.1-.6,2.4-.6,0,0,1.2,0,2.1-1,0,0,.6-.8.8-1.8,0,0,.2-.7.6-1.2,0,0,.3-.4.7-.7,0,0,.6-.6,1.4-.5,0,0-1.4-1.4-2.9-.4,0,0-.7.4-1,1.1,0,0,0-1.1,1-1.6,0,0,.4-.3,1-.4,0,0,.8-.2,1.3-.6,0,0,.7-.5,1-1,0,0,.8-1,1-1.7,0,0,.4-.7.6-1.4,0,0,.4-1.3.4-2.2,0,0-1,2-2.7,1.9,0,0-1.3,0-2.1-.2,0,0-1-.2-2-.2,0,0-1.7,0-2.9.4,0,0-1.4.5-2.1,1.1,0,0-1.2.9-1.5,2,0,0-.5,1.2,0,2.8,0,0,.3,1,1.2,1.5,0,0,.4.3,1.3.2,0,0,.5,0,.8-.5,0,0,.5-.5.5-1.1,0,0,0-.5-.2-.9,0,0-.1-.3-.5-.4,0,0-.2-.1-.6,0,0,0-.2,0-.4.3Z"/>
                  <path class="cls-2" d="m112.1,54.9c.5-.5.6-1.1.6-1.1.6,1.7-2,3.8-2,3.8-1.8,1.3-3.5,1.6-3.5,1.6-1.6.4-4,.3-4,.3-1.8-.1-4.1.3-4.1.3,0,0,1-1.7,1.2-2.9,0,0,4.6,0,7.8-.7,0,0,3.2-.5,4.1-1.2Z"/>
                  <path class="cls-2" d="m95.8,62.4s1.8,0,3.1-2.4c0,0,1.9-.5,4.9-.4,0,0,4.3,0,6.4-1.6,0,0,1.6-.9,2.5-2.6,0,0,.2-.3.2-.8,0,0,3.6-2,3.6-4.9,0,0,.7,1.6.2,4,0,0-.6,2.7-2.2,4.5,0,0-1,1.4-4.2,2.7,0,0-.8.5-4.2,1.2,0,0-1.4.3-3.8.2,0,0-1.9,0-3,0,0,0-.7,0-1.2.2,0,0-.8.1-1,.3,0,0-.2-.3-1.2-.2Z"/>
                  <path class="cls-2" d="m105.9,62.3s0,0,0,0c0,0-1.8,2.7-4.5,2.5,0,0-3.4-.4-5.6,0,0,0,1-1.6,2.4-1.1,0,0-.2-.6-1-.9,0,0,.6-.5,4-.4,0,0,3.3.2,4.7,0Z"/>
                  <path class="cls-2" d="m95,66.9s.5-1.7.7-1.9c0,0,2.8-.5,4.9-.1,0,0,1.9.2,3-.4,0,0,1.5-.7,2.5-2.2l.2-.2s1.2,0,2.6-.5c0,0-.7,4-4.2,5.2,0,0-1.8.7-4.5.4,0,0-2.6-.2-3.2-.4,0,0-1.3-.3-1.9,0Z"/>
                  <path class="cls-2" d="m93.3,68.6s.9-.2,1.6-1.4c0,0,.6-.4,1.7,0,0,0,1.4.4,1.9.3,0,0-.2.4-.8.7,0,0-.8.6-1.8.7,0,0-.5.2-1.6-.3h-.9Z"/>
                  <path class="cls-2" d="m96.1,68.9s1.6-.4,2.3-1.4c0,0,.3-.2.7-.1,0,0,1.4.1,1.7.1h.2s-.3.3-.5.4c0,0-.5.4-.6.8,0,0-.3.9-1.1,1.1h-.2s-1-.5-1.7-.6l-1-.2Z"/>
                  <path class="cls-2" d="m80.1,70.6s.8-.3.5-1.1h0c0-.1,1.9,1.8,4.6,1.5,0,0-1.3,1.1-.2,2h.2c0,.1-.9.4-1.9.2,0,0-1.3-.2-2-.7l-.2-.2s-.3-1.3-1.1-1.6Z"/>
                  <path class="cls-2" d="m81.4,72.8s0,2.8,3.3,3c0,0-.5-2-1.4-2.3,0,0-1.5-.2-1.9-.6Z"/>
                  <path class="cls-2" d="m81.2,72.6s.2,3.2,3.2,3.3c0,0,.2,0,.3.2,0,0,.3,1.1,1,1.4,0,0-3.7.4-4.7-1.8v-.2c0,0,0-3,0-3h.1Z"/>
                  <path class="cls-2" d="m83.9,73.4s.5.1,1,0c0,0,.5,3.1,3.2,1.9,0,0,.3,0,.7-.5,0,0,.6-.5,1.2.1,0,0,1,1,1.9.7,0,0-2,1.4-4.2,1.3,0,0-1.9,0-2.7-1.5,0,0-.2-.4-.5-1,0,0-.4-.8-.7-1h.1Z"/>
                  <path class="cls-2" d="m85,73.3s.4,0,.5-.2l-.2-.2s.8,0,1.2,0c0,0,.5,1.5,2.3,1.6,0,0-.6.5-1.1.7,0,0-.8.3-1.4,0,0,0-.7-.2-.9-.9,0,0-.3-.5-.4-1Z"/>
                </g>
                <g>
                  <path class="cls-2" d="m64.8,69.8c-1.3-.6-2.3-1.7-2.3-1.7-1.2-1.6-1.1-4.4-1.1-4.4,0-1.3-.4-2.4-.4-2.4-.2-.9-1.4-1.5-1.4-1.5-1.3-.3-1.7-.8-1.7-.8.5.2,1.6,0,1.6,0,1.4-.2,2.4,0,2.4,0,1.3,0,2.2.8,2.2.8,1.5,1.2,1.1,2.5,1.1,2.5-.2.9-.9,1-.9,1-.5.2-.6-.4-.6-.4,0-.9.9-.5.9-.5,0-.4-.4-.6-.4-.6-1.8-.6-1.6,1.5-1.6,1.5.1.9.9,1.3.9,1.3.2,4.5,3.8,4.7,3.8,4.7,4.2.7,5.1-1.3,5.1-1.3.3.6.9.8.9.8-1.4,1.2-2.3,1.5-2.3,1.5-.9.4-1.7.4-2.2.3,0,0-1,0-1.6-.3,0,0-.8,0-2.1-.6Z"/>
                  <path class="cls-2" d="m64.2,62s-.8-.1-.8.6c0,0,0,1,1.1.6,0,0,1.3-.6.8-2.3,0,0-.5-1.2-1.5-1.7,0,0-.9-.6-2.3-.6,0,0-.8,0-1.5,0,0,0-.8,0-1.3.2,0,0-.7.2-1.3-.3,0,0,0,.3.7.8,0,0,.2.1.5.2,0,0,.9.3,1.1.4,0,0,1.1.5,1.4,1.7,0,0,.3,1.4.3,2.2,0,0,0,1.7.4,2.6,0,0,.4,1.3,1,1.9,0,0,.5.5.8.7,0,0-1.1-.6-2.4-.6,0,0-1.2,0-2.1-1,0,0-.6-.8-.8-1.8,0,0-.2-.7-.6-1.2,0,0-.3-.4-.7-.7,0,0-.6-.6-1.4-.5,0,0,1.4-1.4,2.9-.4,0,0,.7.4,1,1.1,0,0,0-1.1-1-1.6,0,0-.4-.3-1-.4,0,0-.8-.2-1.3-.6,0,0-.7-.5-1-1,0,0-.8-1-1-1.7,0,0-.3-.7-.6-1.4,0,0-.4-1.3-.4-2.2,0,0,1,2,2.7,1.9,0,0,1.3,0,2.1-.2,0,0,1-.3,2-.2,0,0,1.7,0,2.9.4,0,0,1.4.5,2.1,1.1,0,0,1.2.9,1.5,2,0,0,.5,1.2,0,2.8,0,0-.3,1-1.2,1.5,0,0-.4.3-1.3.2,0,0-.5,0-.8-.5,0,0-.5-.5-.5-1.1,0,0,0-.5.2-.9,0,0,.1-.2.5-.4,0,0,.2-.1.6,0,0,0,.2,0,.4.3Z"/>
                  <path class="cls-2" d="m41.3,54.8c-.5-.5-.6-1.1-.6-1.1-.6,1.7,2,3.8,2,3.8,1.8,1.3,3.5,1.6,3.5,1.6,1.6.4,4,.3,4,.3,1.8-.1,4.1.3,4.1.3,0,0-1-1.7-1.2-2.9,0,0-4.6,0-7.8-.7,0,0-3.2-.5-4.1-1.3Z"/>
                  <path class="cls-2" d="m57.6,62.3s-1.8,0-3.1-2.4c0,0-1.9-.5-4.9-.4,0,0-4.3,0-6.4-1.6,0,0-1.6-.9-2.4-2.6,0,0-.2-.3-.2-.8,0,0-3.6-2-3.6-4.9,0,0-.7,1.6-.2,4,0,0,.6,2.7,2.2,4.5,0,0,1,1.4,4.2,2.7,0,0,.8.5,4.2,1.2,0,0,1.4.3,3.8.2,0,0,1.9,0,3,0,0,0,.7,0,1.2.2,0,0,.8.1,1,.3,0,0,.2-.3,1.2-.2Z"/>
                  <path class="cls-2" d="m47.5,62.2s0,0,0,0c0,0,1.8,2.7,4.5,2.5,0,0,3.4-.4,5.6,0,0,0-1-1.6-2.4-1.1,0,0,.2-.6,1-.9,0,0-.6-.5-4-.4,0,0-3.3.2-4.7,0Z"/>
                  <path class="cls-2" d="m58.5,66.8s-.5-1.7-.7-1.9c0,0-2.8-.5-4.9-.1,0,0-1.9.2-3-.4,0,0-1.5-.7-2.5-2.2l-.2-.2s-1.2,0-2.6-.5c0,0,.7,4,4.2,5.2,0,0,1.8.7,4.5.4,0,0,2.6-.2,3.2-.4,0,0,1.3-.3,1.9,0Z"/>
                  <path class="cls-2" d="m60.2,68.5s-.9-.2-1.6-1.4c0,0-.6-.4-1.7,0,0,0-1.4.4-1.9.3,0,0,.2.4.8.7,0,0,.8.6,1.8.7,0,0,.5.2,1.6-.3h.9Z"/>
                  <path class="cls-2" d="m57.3,68.8s-1.6-.4-2.3-1.4c0,0-.3-.2-.7-.1,0,0-1.4.1-1.7.1h-.2s.4.3.5.4c0,0,.4.4.6.7,0,0,.3.9,1.1,1.1h.2s1-.5,1.7-.6l1-.2Z"/>
                  <path class="cls-2" d="m73.3,70.5s-.8-.3-.5-1.1h0c0-.1-1.9,1.8-4.6,1.5,0,0,1.3,1.1.2,2h-.2c0,.1.9.4,1.9.2,0,0,1.3-.2,2-.7l.2-.2s.3-1.3,1.1-1.6Z"/>
                  <path class="cls-2" d="m72,72.7s0,2.8-3.3,3c0,0,.5-2,1.4-2.3,0,0,1.5-.2,1.9-.6Z"/>
                  <path class="cls-2" d="m72.2,72.5s-.2,3.2-3.2,3.3c0,0-.2,0-.3.2,0,0-.3,1.1-1,1.4,0,0,3.7.4,4.7-1.8v-.2c0,0,0-3,0-3h-.1Z"/>
                  <path class="cls-2" d="m69.5,73.4s-.5.1-1,0c0,0-.5,3.1-3.2,1.9,0,0-.3,0-.7-.5,0,0-.6-.5-1.2.1,0,0-1,1-1.9.7,0,0,2,1.4,4.2,1.3,0,0,1.9,0,2.7-1.5,0,0,.2-.4.5-1,0,0,.4-.8.7-1h-.1Z"/>
                  <path class="cls-2" d="m68.4,73.2s-.4,0-.5-.2l.2-.2s-.8,0-1.2,0c0,0-.5,1.5-2.3,1.6,0,0,.6.5,1.1.7,0,0,.8.3,1.4,0,0,0,.7-.2.9-.9,0,0,.3-.5.4-1Z"/>
                </g>
              </g>
              <g>
                <g>
                  <g>
                    <path class="cls-8" d="m73.4,58.1s-1.9-1.3-2.2-3.3c-.2-1.2.3-2.4,1.3-3.6,0,0,.7-.9.8-1.1,0,0,1.1-1.6.1-2.8,0,0-1.8-1.7-.6-3.4h0s.2-.4.8-1.1c0,0,.3-.6-.3-1,0,0-.4-.5-.2-.9,0-.2.2-.4.6-.6,0,0,.2,0,.3,0h.2-.2c0,0-.2.2-.3.4,0,0,0,.2,0,.3,0,0,.2.5.5.6,0,0,1.3,1,.4,2.1h0s-.3.8.2,1.5c0,0,.6.9,1.3,1.2,0,0,1.1.7,1.4,1.9,0,0,.4,1.9-1.2,3,0,0-2,1.9-1.7,3.6,0,0,.3,1.6,1.1,2.5h0c.2.3.5.5.5.5h.1c0,0-1,0-1,0h-1.9s0,0,0,0Z"/>
                    <path class="cls-7" d="m74,40.4s-.5.2-.3.7c0,0,.2.5.5.7,0,0,1.2.9.4,2.1,0,0-.3.8.2,1.6,0,0,.6.9,1.3,1.2,0,0,1.1.6,1.4,1.9,0,0,.4,1.8-1.2,2.9,0,0-2.1,1.9-1.7,3.6,0,0,.3,1.6,1.1,2.6h0c.2.3.5.5.5.5h-2.8s-4.4-2.8-.9-6.8c0,0,.7-.9.8-1.1,0,0,1.1-1.6.1-2.8,0,0-1.8-1.7-.6-3.3,0,0,.2-.4.8-1.1,0,0,.3-.6-.3-1.1,0,0-.7-.9.3-1.4,0,0,.2,0,.3,0m.4,0h-.4c-.1,0-.3,0-.3,0-.3.2-.5.4-.6.6-.1.5.2.9.3.9.5.4.3,1,.3,1-.5.7-.8,1.1-.8,1.1-1.3,1.7.6,3.4.6,3.4.9,1.2-.1,2.7-.1,2.7-.1.2-.8,1-.8,1.1-1,1.2-1.5,2.4-1.3,3.6.3,2,2.2,3.3,2.3,3.3h0s0,0,0,0h1.9s.9,0,.9,0h.3l-.2-.2s-.3-.2-.5-.4h0c-.8-1-1-2.6-1-2.6-.3-1.7,1.7-3.5,1.7-3.6,1.6-1.1,1.2-3,1.2-3-.2-1.3-1.4-1.9-1.4-1.9-.7-.3-1.3-1.2-1.3-1.2-.5-.7-.2-1.5-.2-1.5.9-1.2-.4-2.2-.4-2.2-.3-.1-.5-.6-.5-.6,0-.1,0-.2,0-.3,0-.2.3-.3.3-.3l.4-.2h0Z"/>
                  </g>
                  <path class="cls-2" d="m78,58h1.1c-1.5-.9-1.3-2.7-1.3-2.7,0-.8.8-1.6.8-1.6.8-1,1.3-1.9,1.3-1.9.5-1,.5-2.7.5-2.7,0-1.7-1-2.8-1-2.8-1.1-.9-1.2-2.2-1.2-2.2-.2-.8.3-2.6.3-2.6.2-1.5-1-2.3-1-2.3-.8-.6-.4-1.2-.4-1.2.5-.5.3-.8.3-.8-.1-.2-.1-.8-.1-.8-.2.2-.2.7-.2.7,0,.3-.3.4-.3.4-.3.2-.4.4-.4.4-.6.7,0,1.4,0,1.4.4.3.5,1,.5,1,.2,1-.4,1.7-.4,1.7-1.1,1.2-1,2-1,2,0,2,1.4,3,1.4,3,1.7,2.5-.3,4.3-.3,4.3-3.4,2.8-1.5,5.5-.9,6.1,0,0,.5.5.7.6h1.7"/>
                  <path class="cls-2" d="m81.2,57.4c0,0,0-.1,0-.1-.7-1.4.3-2.8.3-2.8.4-.6,1-1.5,1-1.5,1.1-1.7.5-3.2.5-3.2,0-.5-.6-1.5-.6-1.5-.5-.7-1.3-1.8-1.3-1.8-.6-.9,0-1.5,0-1.5.8-.6.7-.9.7-.9,0-.6-.4-.9-.4-.9-.3-.3,0-.7,0-.7-.9.5-.3,1-.3,1,.5.5-.2.8-.2.8-.4.2-.6.4-.6.4-.9.6-.7,1.5-.7,1.5,0,.3.5,1.1.5,1.1.9,2,.1,4.2.1,4.2-.3,1-1.7,2.6-1.7,2.6-1.5,2.1.5,3.6.9,3.9h2.3s-.4-.4-.6-.6Z"/>
                  <g>
                    <path class="cls-8" d="m82.1,58.1s-.8-.4-1-1.3c-.2-.7,0-1.5.6-2.5,0,0,.9-1.3,1.1-1.7,0,0,.6-1.2.4-2.6h0s-.4-.9.2-1.6c0,0,.6-.7,1.4-.8h.1s-.1,0-.1,0c0,0-.8.6-.6,1.3,0,0,.3,1.3.8,2,0,0,1,2.1.1,4.2,0,0-.7,2.2-2.7,2.8h-.1c0,0-.3,0-.3,0Z"/>
                    <path class="cls-7" d="m84.8,47.7s-.8.6-.6,1.3c0,0,.3,1.3.8,2,0,0,1,2,.1,4.2,0,0-.7,2.2-2.6,2.8h-.1c0,0-.3,0-.3,0,0,0-2.1-1-.4-3.7,0,0,.9-1.3,1.1-1.7,0,0,.6-1.2.4-2.6,0,0-.4-.9.2-1.6,0,0,.6-.7,1.4-.8m.3-.1h-.3c-.8.1-1.4.8-1.4.8-.6.7-.2,1.5-.2,1.6.2,1.4-.4,2.5-.4,2.5-.2.4-1.1,1.7-1.1,1.7-.6.9-.8,1.8-.7,2.5.2.9,1,1.3,1,1.3h0s0,0,0,0h.3s0,0,0,0h0s0,0,0,0c1.9-.6,2.7-2.8,2.7-2.8.9-2.1-.1-4.2-.1-4.2-.5-.7-.8-2-.8-2-.2-.7.5-1.2.5-1.2l.2-.2h0Z"/>
                  </g>
                  <path class="cls-2" d="m73.4,49c0-.1,0-.2,0-.2,0-.8-.8-1.2-.8-1.2-.3,0-.5-.3-.5-.3-.2-.3-.1-.9-.1-.9,0-.5-.4-.8-.4-.8.2.5-.1.7-.1.7-.3.2-.4.4-.4.4-.4.6-.2,1.2-.2,1.2.1.3,0,.7,0,.7-.3.5-.8,1.2-.8,1.2-.4.5-.7,1-.7,1-.4.5-1.9,2.9-.3,5.3,0,0,1.4,2,3.9,2h.2s-2.1-1.3-2.1-3.6c0,0,0-1.3,1-2.9l.2-.3s.4-.7.6-.9c0,0,.3-.3.4-.6v-.2c0,0,.1-.2.1-.2v-.2Z"/>
                </g>
                <g>
                  <path class="cls-2" d="m75.9,64.4s-4.1.7-5.4-2.4c0,0-.3-.9-.4-1.8,0,0-.2-2.3-.6-2.9,0,0,2.9.6,3.8,2.1,0,0,.7.9.7,1.7,0,0,0,2.6,1.8,3.4Z"/>
                  <path class="cls-2" d="m77.6,64.5c2.3-.5,2.2-3.5,2.2-3.5-.1-1.1-1.1-2.2-1.1-2.2-1-.9-1.9-2.8-1.9-2.8,0,.8-1.6,2.8-1.6,2.8-1.1,1.5-.9,2.4-.9,2.4.4,2.4,1.5,3.1,2.2,3.4h1.2Z"/>
                  <path class="cls-2" d="m70.1,59s.7.5,1.2.8c0,0,1.2.6,1.4,2.1,0,0,0,1.4.7,2,0,0,.3.3.6.5h.1c0,0-2,0-3.2-1.7,0,0-.6-.8-.7-2.5v-1.3c-.1,0,0,0,0,0Z"/>
                  <path class="cls-2" d="m78.1,60.6c-.3-.4-.7-.8-1.1-1.2,0,0-1.4,1.4-1.6,2.2,0,0-.8,2.4,1.6,2.9,0,0,2.3-.2,2-2.3,0,0-.2-.9-.9-1.7Z"/>
                  <g>
                    <path class="cls-2" d="m78.3,64.5s4.1.6,5.3-2.6c0,0,.3-.9.3-1.8,0,0,0-2.3.5-2.9,0,0-2.9.6-3.7,2.2,0,0-.6,1-.7,1.7,0,0,0,2.6-1.7,3.4Z"/>
                    <path class="cls-2" d="m84,58.9s-.7.5-1.2.8c0,0-1.2.6-1.4,2.2,0,0,0,1.4-.6,2,0,0-.3.3-.6.5h-.1c0,0,2,0,3.2-1.8,0,0,.6-.8.6-2.5v-1.3c0,0,0,0,0,0Z"/>
                  </g>
                </g>
                <path class="cls-2" d="m72.2,58.1s1.6.8,1.9,2.3c0,0,.3-1.3,1.2-2.1,0,0-2.5,0-3.1-.2Z"/>
                <path class="cls-2" d="m78.3,58.2h3.3s-1.3.8-1.7,2.4c0,0-.3-1.4-1.6-2.4Z"/>
              </g>
            </g>
            <path class="cls-2" d="m72.4,72.2s.2-1.2,1.1-1.6h6.2s1.1.5,1.2,1.6l-.6,9.6s-2.5,0-3.6.3c0,0-2.1-.1-3.5-.1l-.8-9.8Z"/>
            <g>
              <path class="cls-2" d="m73.1,89.2l.7,14.8v.2s1.6,1.1,2.3,1.1h.2s1.5-.3,2.6-1.2l.7-15v-.2c0,0-2.5-1.3-2.9-1.3,0,0-2.9.8-3.5,1.6Z"/>
              <path class="cls-2" d="m73.8,110s1.5-1.1,2.1-1.2c0,0,2.1.7,2.7,1.3l-.5,5.6h-4l-.3-5.7Z"/>
              <path class="cls-2" d="m73.2,116.9s.2-.9.7-1.1h4.1s.5.3.7,1.1h-5.5Z"/>
              <path class="cls-2" d="m78.9,117.4c0,.2-.2.4-.4.4h-5.3c-.2,0-.4-.2-.4-.4h0c0-.2.2-.4.4-.4h5.3c.2,0,.4.2.4.4h0Z"/>
              <path class="cls-2" d="m79.6,118.6c0,.4-.3.7-.7.7h-5.9c-.4,0-.7-.3-.7-.7h0c0-.4.3-.7.7-.7h5.9c.4,0,.7.3.7.7h0Z"/>
              <path class="cls-2" d="m78.8,119.8c0,.2-.2.4-.4.4h-4.9c-.2,0-.4-.2-.4-.4h0c0-.2.2-.4.4-.4h4.9c.2,0,.4.2.4.4h0Z"/>
              <path class="cls-2" d="m74.1,120.4s-.4.2.3.9l1.5,1.6s0,.2.3,0l1.3-1.6s.6-.7.2-.9h-3.4"/>
            </g>
          </g>
        </g>
        <g>
          <path class="cls-3" d="m65.7,89.6s-.3.7-.3,1.8c0,0,.6.1,1.1,0h.2s-.2-.9,0-1.5c0,0-.8.2-1-.3Z"/>
          <path class="cls-3" d="m65.4,91.6s0,.8.4,1.6l1.2-.6s-.4-.8-.4-1.1c0,0-1.1.2-1.3,0Z"/>
          <g>
            <g>
              <path class="cls-3" d="m56.5,72.3s.4-.3,1.3-.3c0,0,0,.7.3,1.1,0,0-.5,0-1,.2,0,0-.5-.3-.5-1Z"/>
              <path class="cls-3" d="m56.9,73.4s-.4.1-.7.7c0,0-.8-.2-.9-.7h0c0,0,.4-.7,1-1,0,0,0,.6.6,1Z"/>
              <path class="cls-3" d="m55.2,73.4s.2.6,1,.8c0,0-.2.4-.3.9,0,0-.6.3-1.2-.2,0,0,0-.7.5-1.4Z"/>
              <path class="cls-3" d="m55.9,75.2s0,.6,0,1.1c0,0-.6.5-1.1.1,0,0-.2-.7,0-1.4,0,0,.4.5,1.2.2Z"/>
              <path class="cls-3" d="m55.9,76.4s0,.4.2.8c0,0-.4.4-1,.3,0,0-.3-.4-.3-1,0,0,.5.3,1.1-.1Z"/>
              <path class="cls-3" d="m56.1,77.3s.1.4.3.7c0,0-.3.5-1,.5,0,0-.2-.2-.4-.8,0,0,.6.1,1-.3Z"/>
              <path class="cls-3" d="m56.5,78.1s.2.3.3.5c0,0-.3.4-.9.6,0,0-.3-.2-.4-.6,0,0,.7,0,1-.5Z"/>
              <path class="cls-3" d="m56.9,78.7s.1.2.3.4c0,0-.2.5-.6.6,0,0-.4-.1-.6-.5,0,0,.6-.1.8-.5Z"/>
              <path class="cls-3" d="m56.7,79.8s.4,0,.6-.7c0,0,.2.2.3.3,0,0,0,.5-.4.7,0,0-.2,0-.5-.3Z"/>
              <path class="cls-3" d="m57.7,79.4s.2.1.4.3c0,0,0,.4-.4.7,0,0-.2,0-.5-.3,0,0,.4-.3.4-.7Z"/>
              <path class="cls-3" d="m58.2,79.7s.3.1.5.2c0,0,0,.4-.3.7,0,0-.3,0-.5-.2,0,0,.3-.4.4-.7Z"/>
              <path class="cls-3" d="m58.8,80s.3.1.5.2c0,0,0,.4-.2.7,0,0-.3,0-.5-.2,0,0,.3-.4.3-.7Z"/>
              <path class="cls-3" d="m59.3,80.2s.2.1.4.2c0,0,0,.4-.1.7,0,0-.2,0-.5-.2,0,0,.2-.4.2-.7Z"/>
              <path class="cls-3" d="m59.8,80.4s.3.1.6.2c0,0,0,.4-.1.7,0,0-.5,0-.6-.2,0,0,.2-.4.1-.7Z"/>
              <path class="cls-3" d="m60.5,80.6s.3.1.7.2c0,0,0,.4-.1.7,0,0-.3,0-.7-.2,0,0,.2-.4.2-.7Z"/>
              <path class="cls-3" d="m61.3,80.9s.6.2.8.2c0,0,0,.4,0,.7,0,0-.6,0-.9-.2,0,0,.2-.5.1-.7Z"/>
              <path class="cls-3" d="m62.3,81.1s.8.2,1.3.2c0,0,0,.2,0,.6,0,0-.8,0-1.4-.2,0,0,.1-.4,0-.6Z"/>
              <path class="cls-3" d="m63.7,81.4s.1.4,0,.7c0,0,.3.1,1.1.2,0,0,.1-.4,0-.7,0,0-1.1-.1-1.2-.2Z"/>
              <path class="cls-3" d="m65,81.5s.7,0,1.2.2c0,0,.1.3,0,.6,0,0-.2,0-1.2,0,0,0,.1-.4,0-.7Z"/>
              <path class="cls-3" d="m66.3,81.7s1.1.1,1.4.2c0,0,.1.3,0,.6,0,0-.5,0-1.4-.1,0,0,.1-.3,0-.6Z"/>
              <path class="cls-3" d="m67.8,81.9s.9,0,1.3.1c0,0,.1.4,0,.6,0,0-.4,0-1.3,0,0,0,0-.3,0-.6Z"/>
              <path class="cls-3" d="m69.2,82s.7,0,1.3,0c0,0,.1.2,0,.5,0,0-.5,0-1.3,0,0,0,0-.2,0-.6Z"/>
              <path class="cls-3" d="m70.7,82.2s.7,0,1.3,0c0,0,.1.3,0,.5,0,0-.3,0-1.2,0,0,0,.1-.3,0-.6Z"/>
              <path class="cls-3" d="m72.1,82.2s.9,0,1.3,0c0,0,.1.3,0,.5,0,0-.7,0-1.3,0,0,0,0-.4,0-.5Z"/>
              <path class="cls-3" d="m73.5,82.3s.7,0,1.2,0c0,0,0,0,0,.2,0,0-.8.2-1.1.3h0s0-.2,0-.5Z"/>
              <polygon class="cls-3" points="74.8 82.3 75.3 82.3 74.8 82.4 74.8 82.3"/>
            </g>
            <g>
              <path class="cls-3" d="m95.3,73.7s.3-.4.4-1.1c0,0,.7.1,1.3.5,0,0,0,.5-.5,1,0,0-.3-.4-1.2-.4Z"/>
              <path class="cls-3" d="m96.6,74.2s.5.3.7.9c0,0,.5,0,.9-.5,0,0-.5-1-1-1.3,0,0-.2.7-.5.9Z"/>
              <path class="cls-3" d="m97.4,75.2s.1.4,0,.7c0,0,.6.2,1,0,0,0,0-.8-.2-1.3,0,0-.3.3-.8.4Z"/>
              <path class="cls-3" d="m97.5,76.1s.5.2,1,0c0,0,.2.2,0,1,0,0-.4.1-1-.2,0,0,.1-.4.1-.9Z"/>
              <path class="cls-3" d="m97.4,77.2s0,.4-.2.8c0,0,.2.3.8.5,0,0,.3-.6.4-1,0,0-.6,0-1-.2Z"/>
              <path class="cls-3" d="m97.1,78.1s.3.4.8.5c0,0-.2.5-.4.8,0,0-.4,0-.8-.6,0,0,.3-.4.3-.7Z"/>
              <path class="cls-3" d="m96.6,78.8s.4.5.7.6c0,0,0,.3-.5.6,0,0-.6-.4-.6-.7,0,0,.3-.3.4-.5Z"/>
              <path class="cls-3" d="m96.2,79.4s.3.5.6.7c0,0-.3.3-.5.4,0,0-.4-.3-.5-.7,0,0,.2-.1.3-.3Z"/>
              <path class="cls-3" d="m95.7,79.9s.1.4.4.6c0,0,0,.1-.5.3,0,0-.3-.4-.3-.7,0,0,.2-.1.3-.2Z"/>
              <path class="cls-3" d="m95.2,80.2s0,.5.3.7c0,0-.2.2-.5.2,0,0-.3-.4-.2-.7,0,0,.2,0,.4-.2Z"/>
              <path class="cls-3" d="m94.3,80.7s.2,0,.4-.2c0,0,0,.5.2.7,0,0-.2.1-.5.2,0,0-.2-.4-.2-.7Z"/>
              <path class="cls-3" d="m94.2,80.7s-.2,0-.5.2c0,0,0,.3.1.7,0,0,.3,0,.5-.1,0,0-.1-.4-.1-.7Z"/>
              <path class="cls-3" d="m93.1,81h.5c0-.1,0,.2.1.6,0,0-.2,0-.5.1,0,0-.1-.4,0-.7Z"/>
              <path class="cls-3" d="m93,81.7s-.2-.4,0-.7c0,0-.2,0-.7.1,0,0-.1.4,0,.7h0s.3,0,.7-.1Z"/>
              <path class="cls-3" d="m91.2,81.4s.5,0,.9-.1c0,0,0,.4,0,.7,0,0-.4.1-1,.2,0,0-.2-.4,0-.7Z"/>
              <path class="cls-3" d="m91,81.4s-.2.4,0,.7c0,0-.8.2-1.2.1,0,0-.2-.4,0-.7,0,0,.9,0,1.3-.1Z"/>
              <path class="cls-3" d="m88,81.7s.8,0,1.5-.1c0,0-.1.2,0,.7,0,0-1,.2-1.5.1,0,0-.2-.4,0-.8Z"/>
              <path class="cls-3" d="m86,81.8h1.7c0-.1-.1.2,0,.6,0,0-1.3.2-1.8.1,0,0-.1-.3,0-.7Z"/>
              <path class="cls-3" d="m84.3,82s.3,0,1.4,0c0,0-.2.3,0,.6,0,0-.7.1-1.5,0,0,0-.1,0,0-.7Z"/>
              <path class="cls-3" d="m84,82s-.2.3,0,.6c0,0-.8.2-1.4,0,0,0-.2-.3,0-.6,0,0,1.1,0,1.4,0Z"/>
              <path class="cls-3" d="m82.4,82s-.2,0-1.2,0c0,0-.2.3,0,.6,0,0,1.1,0,1.3,0,0,0,0-.3,0-.6Z"/>
              <path class="cls-3" d="m79.8,82.1h1.1c0,0-.1.2,0,.4h0c0,0-.8.1-1.1.2,0,0-.2-.2,0-.6Z"/>
              <path class="cls-3" d="m79.6,82.2s-.2.3,0,.6c0,0-.7,0-1.2.1,0,0-.2-.3,0-.6,0,0,.5,0,1.3-.1Z"/>
              <path class="cls-3" d="m76.9,82.4s.8-.1,1.2-.1c0,0-.1.3,0,.6,0,0-1.1,0-1.2.2,0,0-.2-.2,0-.6Z"/>
              <path class="cls-3" d="m75.6,82.7s.8-.2,1.2-.2c0,0-.1.3,0,.6,0,0-1.1.1-1.2.3,0,0-.2-.2,0-.6Z"/>
              <path class="cls-3" d="m74.4,83.1l1-.3s0,.3,0,.5c0,0-.7.1-1,.3,0,0-.3-.2-.1-.6Z"/>
              <path class="cls-3" d="m74.2,83.1s0,.3.1.5c0,0-.6.2-1.1.4,0,0-.4-.2-.3-.6,0,0,.8-.3,1.3-.3Z"/>
              <path class="cls-3" d="m71.6,83.9s.7-.3,1.1-.4c0,0,0,.4.3.6,0,0-.7.2-1,.4,0,0-.3-.2-.3-.6Z"/>
              <path class="cls-3" d="m70.5,84.5s.7-.4,1-.4c0,0,0,.4.3.6,0,0-.5.2-1,.5,0,0-.3-.1-.3-.6Z"/>
              <path class="cls-3" d="m69.4,85.1s.7-.4.9-.5c0,0,0,.3.3.6,0,0-.8.4-.9.6,0,0-.3-.2-.2-.6Z"/>
              <path class="cls-3" d="m69.3,85.3s0,.3.2.6h0s-.6.5-1,.8c0,0-.5,0-.5-.5,0,0,.8-.7,1.2-.9Z"/>
              <path class="cls-3" d="m68.4,86.9s-.5.4-1,1.1c0,0-.5,0-.8-.5,0,0,.5-.7,1.1-1.2,0,0,0,.6.6.6Z"/>
              <path class="cls-3" d="m66.6,87.7s.2.5.8.5c0,0-.5,1-.6,1.5,0,0-.7.4-1-.3,0,0,.7-1.5.8-1.7Z"/>
              <path class="cls-3" d="m67.1,92.9s.4.9.7,1.3c0,0-1,.5-1.1.8,0,0-.8-1.2-.8-1.6,0,0,.8-.5,1.2-.5Z"/>
              <path class="cls-3" d="m66.7,95.2s.6.9,1,1.2c0,0,.3-.8.9-1l-.7-1s-.4,0-1.1.8Z"/>
              <path class="cls-3" d="m67.8,96.6s.5.6,1.1,1c0,0,.3-.8.8-1.1,0,0-.7-.4-1-1,0,0-.6.2-.9,1Z"/>
              <path class="cls-3" d="m69.8,96.6s.6.5,1.1.7c0,0-.9.6-1,1,0,0-.3-.1-.8-.6,0,0,.2-.6.8-1.1Z"/>
            </g>
            <g>
              <path class="cls-3" d="m84.8,87s.6.2,1.3,0c0,0,.6.7.7,1.1,0,0-.3.5-.9.2,0,0-.5-1.1-1-1.3Z"/>
              <path class="cls-3" d="m85.9,88.7s.4.2.9-.3c0,0,.4.7.5,1.4,0,0-.3.5-.9.2,0,0-.1-1.1-.4-1.3Z"/>
              <path class="cls-3" d="m86.3,90.4s.8.2,1-.2c0,0,.2,1,0,1.7,0,0-.5.5-1,0,0,0,0-.8,0-1.4Z"/>
              <path class="cls-3" d="m86.3,92.1s.5.5,1,0c0,0,0,.9-.5,1.8,0,0-.7,0-1-.3,0,0,.4-1.2.4-1.6Z"/>
              <path class="cls-3" d="m85.8,93.9s.4.4.9.3c0,0-.3.7-1,1.5,0,0-.7,0-.8-.5,0,0,.8-1.1.9-1.3Z"/>
              <path class="cls-3" d="m85.5,95.8s-.6.8-.9,1c0,0-.6-.2-.6-.8,0,0,.7-.6.7-.8,0,0,.4.5.8.5Z"/>
              <path class="cls-3" d="m83.8,96.3s.3.6.6.7c0,0-.7.6-1.1.9,0,0-.6-.3-.6-.9,0,0,.7-.2,1.1-.7Z"/>
              <path class="cls-3" d="m82.6,97.2s0,.5.5.8c0,0-.6.6-1.4.9,0,0-.5-.4-.4-.9,0,0,1.2-.6,1.3-.8Z"/>
              <path class="cls-3" d="m81.5,99s-.4-.2-.5-.8c0,0-.8.4-1.3.4,0,0-.2.8.2,1.1,0,0,.9-.2,1.5-.8Z"/>
              <path class="cls-3" d="m79.2,98.7s.1,0,.3,0c0,0-.1.7.3,1.2,0,0-.2.2-.6.2,0,0,0-.7,0-1.4Z"/>
            </g>
            <g>
              <path class="cls-3" d="m73.4,100s0,.8,0,1.1c0,0-.3.1-.6.5,0,0-.6-.3-.6-.9,0,0,.5-.5,1-.7Z"/>
              <path class="cls-3" d="m72.7,101.8s-.2.4,0,1c0,0-.5.4-.9,0,0,0-.2-1,.3-1.8,0,0,.2.7.7.8Z"/>
              <path class="cls-3" d="m71.8,103.1s.3.2.9,0c0,0,0,.6.5,1,0,0-.2.4-.7.5,0,0-.6-.7-.7-1.4Z"/>
              <path class="cls-3" d="m72.7,104.7s.4-.1.6-.5c0,0,.4.4,1,.7,0,0,0,.3-.4.6,0,0-.8-.2-1.2-.8Z"/>
              <path class="cls-3" d="m74.1,105.5s.4-.2.4-.6c0,0,.8.4,1,.5,0,0-.7,0-.9.3,0,0-.4,0-.5-.2Z"/>
            </g>
            <g>
              <g>
                <path class="cls-3" d="m79.3,100.6s.6-.2.9-.4c0,0,.4.5.5.9,0,0-.2.4-.8.4,0,0-.2-.8-.5-.9Z"/>
                <path class="cls-3" d="m80,101.7s.2.4.1.8c0,0,.4.2.8,0,0,0,.2-.6-.1-1.1,0,0-.5.4-.8.3Z"/>
                <path class="cls-3" d="m80.1,102.7s.5.2.8,0c0,0-.2.9-.5,1.4,0,0-.6-.2-.6-.4,0,0,.3-.4.3-1Z"/>
                <path class="cls-3" d="m79.7,103.8s-.4.4-.8.6c0,0,0,.3.3.5,0,0,.6-.3,1.1-.8,0,0-.3,0-.5-.3Z"/>
                <path class="cls-3" d="m78.7,104.6s0,.3.3.5c0,0-.5.3-1.3.5,0,0-.2-.2-.2-.5,0,0,.9-.2,1.2-.5Z"/>
              </g>
              <path class="cls-3" d="m76.2,105.7s0,.3,0,.4c0,0-.8.1-.9.3,0,0-.2-.2-.1-.4,0,0,.6-.2,1-.3Z"/>
              <path class="cls-3" d="m74.2,106.4s.3-.2.8-.4c0,0,0,.2.1.3,0,0-.7.3-.8.4,0,0-.2,0-.1-.3Z"/>
              <path class="cls-3" d="m74,106.5s0,.1.2.3c0,0-.6.3-.8.4,0,0-.2-.2-.2-.3,0,0,.6-.3.8-.4Z"/>
              <path class="cls-3" d="m72.9,107.1s0,.1.2.2c0,0-.6.3-.7.5l-.2-.2s.4-.4.8-.6Z"/>
              <path class="cls-3" d="m72,107.8s0,0,.2.2c0,0-.8.7-1.1,1v-.2c-.1,0,.6-.8,1-1Z"/>
              <path class="cls-3" d="m70.8,109.1s-.9,1.1-.9,1.2v-.2c0,0,.8-1.2.8-1.2v.2Z"/>
              <path class="cls-3" d="m69.8,110.4s-.6.9-.6,2.3c0,0,.2-1.6.6-2.1,0,0,0,0,0-.2Z"/>
            </g>
            <g>
              <path class="cls-3" d="m81.2,109.1s.2-.2.4-.2c0,0,.4.3.6.8,0,0-.4,0-.5.2,0,0-.3-.4-.6-.8Z"/>
              <path class="cls-3" d="m81.8,110s.3.5.4.8c0,0,.3,0,.5-.2,0,0-.2-.7-.4-.8,0,0-.3,0-.5.2Z"/>
              <path class="cls-3" d="m82.3,111s.4,0,.5-.2c0,0,.1.3.2,1,0,0-.1.1-.3,0,0,0-.1-.7-.3-.8Z"/>
              <path class="cls-3" d="m82.6,111.9h.3c0,0,.1.7-.3,1.4,0,0,.2-.9,0-1.4Z"/>
              <path class="cls-3" d="m80,108.1s.4,0,.6-.2c0,0,.5.4.8.9,0,0,0,0-.4.2,0,0-.7-.8-1.1-.9Z"/>
            </g>
          </g>
        </g>
        <g>
          <path class="cls-7" d="m73.4,109.9s.2-.4.8-.7c0,0,1.3-1,2.2-.9,0,0,.2-.2.7,0,0,0,.1-.7-.4-1,0,0,.2.4.1.6,0,0-1,.2-1.3.4,0,0,0-.4-.4-.6,0,0-.5-.2-.6,0-.2,0,.2,0,.2,0,0,0,.8.3.7.7,0,0-.6.7-1.1.3,0,0,0,1.3-1.1.5,0,0,.5.2.1.7,0,0,0,.2-.3.3h.4Z"/>
          <path class="cls-7" d="m83.8,101s-.3.5-.5.7c0,0,.3.3.4.2.1,0-.1,0-.1,0,0,0-.3.2-.4.3,0,0,.4.3.5.2,0,0-.3.4-.7.4,0,0,.3.3.5.3,0,0,0,.2-.4.3l.4.5s-.5,0-.6.2c0,0,.4.3,0,.6-.3.2,0,.2,0,.2,0,0,.5.2,0,.4,0,0-.4.2-.8.1l-.2.4.2.2s0,.2-.2.2l-.3-.3s.2.2-.1.4c0,0,0,.2-.3.1,0,0-.2.4-.6,0,0,0-.4,0-.5-.2,0,0,.2.7,0,.6,0,0,.5.3.2.4,0,0-.6.3-.9.2,0,0-.3-.1-.3-.4,0,0-.2-.2-.2-.3,0,0-.3,0-.8,0,0,0,1.3.5,1,.8,0,0,0,.3-.7,0,0,0-.1.5-.5-.3,0,0,.3.5.2.7h.4s.9-.2.9-.2l1.4-.5,1-.5.6-.4.5-.4.5-.5.4-.4.3-.9s.4-.8.2-.9c0,0,.1-.3,0-.5,0,0,.2-.3,0-.6,0,0,0-.3,0-.4,0,0,.1-.5,0-.6Z"/>
          <g>
            <g>
              <path class="cls-7" d="m51.7,78.9h-.3s-.9-1.4-.4-3.9c0,0,.2.2.2.6,0,0-.1.7,0,1,0,0-.3.5.1,1.1,0,0,0,.5.4.6,0,0-.2.5,0,.7Z"/>
              <path class="cls-7" d="m55.3,69.8s-.8.3-.3.7c0,0-.4.7.6.9,0,0-.9.3-1-.6,0,0-.7-.2-.7-.5,0,0,.3-.3.6-.4,0,0,.3-.3.6-.3h.2c0,0-.1.2,0,.3Z"/>
              <path class="cls-7" d="m53.5,70.6s.1,1.1.9,1.5c0,0-.7,0-.9-.8,0,0-1-.3-1.1.7,0,0-.3-.7,1.1-1.4Z"/>
              <path class="cls-7" d="m52,72.5s-1,1-1,2.1c0,0,.3-.5,1.6-.5,0,0-.9-.1-.9-.5,0,0-.1-.9,1-.8,0,0,.5-.1.7.3,0,0-.3-.6-1.4-.7Z"/>
            </g>
            <path class="cls-7" d="m52.1,77.3s-.7.3-.8.7c0,0,0,.5.3,1.4,0,0,.3,1.2,1.1,1.8,0,0,0-.6.5-1,0,0,0-.1.1-.1,0,0-.6,0-.8.3,0,0,0-.6.5-.8,0,0-.2,0-.6.1,0,0,0-.2.1-.4,0,0-.4,0-.5,0,0,0,0,0,0,0,0,0,.6-.6.9-.6,0,0-.4,0-.6,0,0,0-.3,0-.1-.4,0,0-.2,0-.2-.2,0,0-.6.3-.7.5,0,0-.2-.1,0-.3,0,0,0-.4.3-.4,0,0,.2-.2.4-.2,0,0,0-.2.2-.2h-.2Z"/>
            <path class="cls-7" d="m52.6,81s.4-.1.4-.5c0,0,.2.2.1.6,0,0,.3.2.4-.2,0,0,.5-.7.5-.8h0c0,0,.3.2-.3,1.1,0,0-.4.9.3.3,0,0-.3.9,0,1,0,0,.6-.6.8-.7,0,0-.3.7.3.7,0,0-.2.1,0,.4,0,0,.4,0,.4-.3,0,0,.2.4.3,0,0,0,.2-.2.3-.5v-.2c.1,0,0,.6.1,1.2,0,0,.3.8.5,0,0,0,.2.3.1.6,0,0,0,1,.5.2,0,0,.2-.4.2-.7,0,0,0,.5.3.2,0,0-.5,1.5.2.7,0,0,.6,0,.6-.4,0,0,0-.6.1-.7,0,0,0,.7.2,1,0,0,0,0,.1,0,0,.3,0,.6,0,.9-.2,0-.4-.1-.6-.3h-.4c0,0-.4,0-.6-.4h-.3s-.6,0-.8-.5c0,0-.4,0-.7-.2,0,0-.4-.1-.6-.3v-.2c-.1,0-.6-.2-.8-.5,0,0-.2,0-.4-.2,0,0-.6-.5-.7-.7,0,0-.2-.2-.4-.4,0,0-.3-.3-.4-.4,0,0,0-.2,0-.2Z"/>
          </g>
          <path class="cls-1" d="m59.2,85.4s.7,0,1-.4c0,0,.2.4,1-.1,0,0-.8.3.9.7,0,0,1,.8,1.8.3,0,0,1.7,0,2.2-.4,0,0-.3.6.3.6,0,0,.3.1.8.2,0,0-1,.1-1.4-.1,0,0-.7,0-.9,0,0,0-2.4,0-3.5-.5,0,0-.9,0-1.2,0,0,0-.7,0-1.2-.1Z"/>
          <g>
            <path class="cls-7" d="m94.2,85.4s0,0,0,.2c0,0-.6.4-1.5.5,0,0-.6.3-1.6.2,0,0-.4,0-1,0,0,0-.2,0-.2-.2,0,0,.4-.1.5-.3,0,0,0,.5.5.3,0,0,.4.2,1,0,0,0,.4.1.6,0,0,0,.5-.3.9-.2,0,0,.2,0,.3-.1,0,0,.1-.1.3-.1,0,0,.3,0,.3-.1Z"/>
            <path class="cls-7" d="m101.4,77.6s.7.3.8.7c0,0,0,.5-.3,1.4,0,0-.3,1.2-1.1,1.8,0,0,0-.6-.5-1,0,0,0-.1-.1-.1,0,0,.6,0,.8.3,0,0,0-.6-.5-.8,0,0,.2,0,.6.1,0,0,0-.2-.1-.4,0,0,.4,0,.5,0,0,0,0,0,0,0,0,0-.6-.6-.9-.6,0,0,.4,0,.6,0,0,0,.3,0,.1-.4,0,0,.2,0,.2-.2,0,0,.6.3.7.5,0,0,.2-.1,0-.3,0,0,0-.4-.3-.4,0,0-.2-.2-.4-.2,0,0,0-.2-.2-.2h.2Z"/>
            <path class="cls-7" d="m100.7,81.6s-.4,0-.5-.4c0,0-.2.2,0,.5,0,0-.2.2-.4-.1,0,0-.5-.5-.5-.6h0c0,0-.3.2.4.8,0,0,.4.6-.2.3,0,0,.4.7,0,.8,0,0-.6-.4-.8-.4,0,0,.3.5-.2.6,0,0,.2,0,0,.3,0,0-.3,0-.4-.2,0,0-.2.3-.3,0,0,0-.2-.1-.3-.3v-.2c-.1,0,0,.4,0,1,0,0-.2.7-.4,0,0,0-.2.2,0,.5,0,0,0,.8-.5.2,0,0-.2-.3-.3-.5,0,0,0,.4-.3.2,0,0,.6,1.1-.2.6,0,0-.6.1-.6-.3,0,0,0-.4-.1-.5,0,0,0,.6-.1.8,0,0,0,0-.1,0,0,.2,0,.5,0,.7.2,0,.4-.2.6-.3h.4c0-.1.4-.2.5-.4h.3s.6,0,.8-.5c0,0,.4,0,.7-.3,0,0,.4-.1.5-.3h.1c0-.1.5-.3.6-.6,0,0,.2,0,.3-.2,0,0,.6-.4.7-.6,0,0,.2-.2.4-.4,0,0,.3-.3.3-.3,0,0,0-.1,0-.1Z"/>
            <g>
              <path class="cls-7" d="m101.8,78.2h.2c0,0,.7-1.6-.3-3.9,0,0-.2.3,0,.6,0,0,.3.6.2.9,0,0,.4.4,0,1.1,0,0,.1.5-.3.7,0,0,.3.5.1.6Z"/>
              <path class="cls-7" d="m96.6,70s.9.1.5.6c0,0,.5.6-.4,1,0,0,.9,0,.8-.8,0,0,.7-.3.6-.6,0,0-.3-.2-.7-.3,0,0-.3-.3-.7-.2h-.2s.1.2.1.3Z"/>
              <path class="cls-7" d="m98.5,70.4s0,1.1-.6,1.7c0,0,.7-.1.8-1,0,0,.9-.4,1.2.4,0,0,.2-.7-1.4-1.2Z"/>
              <path class="cls-7" d="m100.4,72s1.2.8,1.4,1.9c0,0-.4-.5-1.6-.2,0,0,.9-.3.8-.6,0,0,0-.9-1.1-.6,0,0-.5,0-.6.4,0,0,.2-.6,1.2-.9Z"/>
            </g>
            <path class="cls-1" d="m77.2,87s3-.8,5-.5c0,0,0-.5-.3-1.1v.7h-.5l-.5-.7s0,.3,0,.6c0,0-.6-.5-.9-.7l-.3-.3s.5.4.3.9c0,0-.3.4-.5.3h-.3c0-.1-.1-.2-.2-.5,0,0,.3,0-.3.5,0,0,0,.7-.9.2,0,0-.9,0-.9-.6,0,0-.5.7.2,1.3Z"/>
            <path class="cls-1" d="m82.5,86.3s1.6.4,2.3,0c0,0,1.4.3,2.1,0,0,0,1,.3,1.4.1,0,0,1.1,0,1.1-.2v-.2s.5-.3.5-.7c0,0-.3.3-.7.2,0,0-.4-.2-.5-.6,0,0,.2.5-.4.9,0,0-.5.6-.8-.1,0,0-1.5.7-1.3-.7,0,0-.6,1.5-1,.9,0,0-.9,0-.9-.5,0,0-.3,1.2-.7.5,0,0-.4.7-.6-.1,0,0,.1,0-.5.6Z"/>
            <g>
              <path class="cls-7" d="m71.9,88.2s-.3.2-.3.3c0,0-.7.4-.6.7,0,0-.5.4-.6.7,0,0-.3.4-.2.8,0,0,0,.4.4.4,0,0-.5-.4-.2-.7,0,0,0-.5.3-.6,0,0,.6-.4.8.3,0,0,0,.6-.4.3,0,0,.4.3.2.5,0,0,.3.5-.2.5,0,0,0,.2-.1.2,0,0,0,.2-.2.3,0,0,.1.6-.5.5,0,0,1.1,0,1.3.2,0,0-.3-1.6.5-2.5,0,0,.2-.3.4-.4,0,0-1.1.3-1.1-.3,0,0,0-.5.4-.4,0,0,.3,0,.5,0,0,0,.1,0,.3,0,0,0-.4-.1-.5-.4Z"/>
              <path class="cls-1" d="m73.2,88.4s1.3-.8,3.3-1.3c0,0-.5-.1-.6-.7,0,0,.6,0-.4.5,0,0-.6.7-1.1.5,0,0-1.2.5-1.3,0,0,0-.3,1.1-.8.5,0,0-.2.4.9.5Z"/>
              <path class="cls-7" d="m71.6,92.6s.1.6,1.2,1.3c0,0,.3.6-.6,1.5,0,0,.2-.3.3-.9,0,0,.3-.6-.5-.5,0,0-.6-.6-1.1.3,0,0,.4-.4.5-1.2,0,0-.8-.6-1.3,0,0,0,0-.7,1.6-.6Z"/>
            </g>
          </g>
          <path class="cls-1" d="m80.3,89.1s-.8-.8-2.1-1.4c0,0,.4,0,.5-.5,0,0-.4,0,.2.4,0,0,.3.6.7.5,0,0,.7.5.8.2,0,0,0,.9.5.5,0,0,0,.3-.6.3Z"/>
          <g>
            <path class="cls-7" d="m81.3,88.7s.2.2.3.3c0,0,.7.4.6.7,0,0,.5.4.5.7,0,0,.2.4.2.8,0,0-.1.4-.5.3,0,0,.5-.3.2-.7,0,0,0-.5-.3-.6,0,0-.5-.4-.8.2,0,0,0,.6.4.3,0,0-.5.3-.2.4,0,0-.3.4.1.5,0,0,0,.2.1.2,0,0,0,.2.2.3,0,0-.2.5.5.5,0,0-1.1,0-1.2.1,0,0,.4-1.6-.3-2.4,0,0-.2-.3-.4-.4,0,0,1,.3,1.1-.2,0,0,0-.5-.4-.4,0,0-.3,0-.5,0,0,0-.1,0-.3,0,0,0,.4,0,.5-.4Z"/>
            <path class="cls-7" d="m81.2,92.8s-.2.5-1.3,1.2c0,0-.4.6.5,1.4,0,0-.2-.3-.2-.9,0,0-.2-.5.5-.4,0,0,.7-.6,1,.3,0,0-.3-.4-.4-1.2,0,0,.8-.6,1.2.1,0,0,.1-.7-1.5-.6Z"/>
          </g>
          <path class="cls-7" d="m70.5,98.4s0,.6,0,.8c0,0-.4,0-.4,0,0-.1,0,.1,0,.1,0,0,.2.3.2.5,0,0-.5,0-.5,0,0,0,0,.5.3.7,0,0-.4.1-.6,0,0,0,0,.2.2.5l-.6.2s.5.3.4.5c0,0-.5,0-.4.4.1.3,0,.2,0,.2,0,0-.5-.1-.3.4,0,0,.2.4.6.5v.4s-.3,0-.3,0c0,0,0,.2,0,.3h.4c0,0-.3,0-.1.3,0,0,0,.2.1.3,0,0,0,.4.5.3,0,0,.4.2.6,0,0,0-.6.5-.3.6,0,0-.6,0-.3.2,0,0,.3.6.7.7,0,0,.4,0,.5-.2,0,0,.3,0,.3-.2,0,0,.2.2.6.5,0,0-1.3-.3-1.2.1,0,0-.1.3.7.3,0,0-.2.5.6,0,0,0-.5.2-.5.5l-.4-.2-.7-.6-.9-1.1-.5-.9-.3-.6-.2-.6v-.7c-.1,0-.2-.6-.2-.6l.3-.9s0-.9.3-.9c0,0,0-.3.3-.4,0,0,0-.4.2-.5,0,0,.1-.3.3-.3,0,0,.2-.5.4-.4Z"/>
          <path class="cls-7" d="m77.2,108.9s.4,0,.8.3c0,0,1.3.6,1.5,1.2,0,0,.2,0,.3.5,0,0,.6-.2.6-.6,0,0-.2.3-.4.3,0,0-.6-.6-.8-.8,0,0,.3-.2.3-.5,0,0,0-.4-.2-.5-.1,0,.1,0,.1,0,0,0,0,.7-.3.7,0,0-.7-.2-.6-.7,0,0-1,.4-.8-.6,0,0,0,.5-.5.4,0,0-.2,0-.4-.1l.3.3Z"/>
          <g>
            <path class="cls-7" d="m71.9,98.2s0-.7.3-1.1c0,0,.6-.4,1-.4,0,0-.4.5-.3.7,0,0-.1-.1-.2,0,0,0,0,.5.2.7,0,0,0,.2-.2,0,0,0-.2-.5-.1-.7v-.2s-.2.4-.2.7c0,0-.2-.1-.2-.2,0,0,0,.3,0,.4h-.1Z"/>
            <path class="cls-7" d="m70.6,98.2s.4-.5,1.2-.9c0,0-.3.7-.1,1,0,0-.2-.1-.2-.5s0-.1,0-.1c0,0-.3.1-.3.4,0,0,0,.2,0,.4,0,0-.5,0-.5-.3Z"/>
          </g>
          <g>
            <path class="cls-7" d="m82.7,100s.5,0,.8.2c0,0,.3.5.3.7,0,0-.4-.3-.5-.2,0,0,.1,0,0-.1,0,0-.3,0-.5.1,0,0-.1,0,0-.1,0,0,.3-.1.5-.1h.2s-.3-.2-.5-.2c0,0,0-.2.2-.2,0,0-.2,0-.3,0h0Z"/>
            <path class="cls-7" d="m82.7,99.1s.4.3.6.8c0,0-.5-.2-.7,0,0,0,0-.2.4-.2s0,0,0,0c0,0,0-.2-.3-.2,0,0-.1,0-.3,0,0,0,0-.3.2-.3Z"/>
          </g>
        </g>
      </g>
      <path class="cls-3" d="m76.3,105.6s.7-.2,1-.3c0,0,0,.2.2.4,0,0-.6.2-1,.3,0,0-.2,0-.1-.4Z"/>
    </g>
  </g>
</svg>