<?xml version="1.0" encoding="UTF-8"?>
<svg id="Layer_1" data-name="Layer 1" xmlns="http://www.w3.org/2000/svg" viewBox="0 0 148.4 137.2">
  <defs>
    <style>
      .cls-1 {
        fill: #f28f22;
      }

      .cls-2 {
        fill: #fff;
      }

      .cls-3, .cls-4 {
        fill: #333;
      }

      .cls-4 {
        fill-rule: evenodd;
      }
    </style>
  </defs>
  <path class="cls-2" d="m126.7,21.8C112.7,7.8,94.1,0,74.4,0c-.3,0-.6,0-1.1,0-.2,0-.4,0-.5,0-.2,0-.4,0-.6,0C31.7,1.2,0,33.7,0,74.1c0,6.3.8,12.5,2.3,18.5.3,1.1,1.1,1.9,2.2,2.1,0,0,.2,0,.3,0,.2.3.5.5.9.6,0,0,6.2,2.9,14.1,9.6,3.2,2.7,7,5.3,11.8,6.6-1.3.3-2.4,1.4-2.4,2.8v13.9c0,.8.3,1.5.8,2.1.5.6,1.3.9,2.1.9h3.5v.4c0,.2,0,.3,0,.5,0,.2,0,.4,0,.6v.8c0,.7.2,1.4.7,1.9l.6.7c.6.7,1.4,1.1,2.3,1h.2s0,0,0,0h19.4s.6,0,.6,0h1.6s0,0,0,0h.8c0,0,.1,0,.2,0h.3s0,0,.1,0h.8s0,0,0,0c0,0,0,0,0,0h.7s0,0,0,0h.5s.4,0,.4,0c0,0,.2,0,.2,0h.3s0,0,0,0c0,0,.1,0,.2,0,0,0,.1,0,.2,0h.8s0,0,0,0h.9s0,0,0,0h1.5s0,0,0,0c0,0,0,0,0,0h1.5s1.6,0,1.6,0c0,0,0,0,0,0,0,0,0,0,0,0h.7s0,0,.1,0h.8s0,0,0,0h.9s0,0,.1,0h.8c0,0,.2,0,.2,0,0,0,.2,0,.3,0h.7s0,0,0,0h1.3c0,0,.1,0,.2,0h.9s0,0,.1,0h3.5c0,0,.1,0,.2,0h.9s0,0,0,0c0,0,.1,0,.2,0h1.9c0,0,0,0,.1,0h.9s0,0,0,0h1.9c0,0,.1,0,.2,0h.9c0,0,.1,0,.2,0h1.2c0,0,.2,0,.2,0h.8c0,0,.2,0,.3,0,0,0,.1,0,.2,0h.7s0,0,0,0c0,0,.1,0,.2,0h.6c0,0,.1,0,.2,0h1.5s0,0,0,0c0,0,.1,0,.2,0h.9c0,0,.2,0,.2,0h.9c0,0,.2,0,.2,0,.1,0,.3,0,.4,0h.8s0,0,0,0c0,0,.1,0,.2,0h.6c0,0,.1,0,.2,0h.9s0,0,0,0c0,0,.2,0,.2,0h.8c0,0,.2,0,.3,0h.9s0,0,0,0c0,0,.2,0,.3,0h1.1c0,0,.2,0,.3,0h1s0,0,0,0c0,0,.2,0,.3,0h.9c.1,0,.3,0,.4,0h.8c0,0,.2,0,.3,0,0,0,.2,0,.3,0h.7c1.6,0,2.9-1.3,2.9-2.9v-4.6c0-.1,0-.2,0-.3,0-.3.2-.6.2-.9v-13.9c0-.8-.3-1.5-.8-2.1-.6-.6-1.3-.9-2.1-.9h-4.5c-.5,0-.9,0-1.2.3-.4-.2-.8-.3-1.2-.3h0v-.7c0-.5-.2-1-.4-1.4,1.9.3,3.7.5,5.4.4,8.3,0,14.3-3.6,18.9-7.3,8-6.4,14.4-9.3,14.5-9.3.3-.1.5-.3.8-.5.4,0,.9,0,1.3-.1,1-.3,1.7-1.1,1.9-2.1,1.2-5.2,1.8-10.7,1.8-16.2,0-19.8-7.7-38.5-21.7-52.5Z"/>
  <g>
    <g>
      <path class="cls-1" d="m43.5,128.3h-4.5s0-7.3,0-7.3h-2.4s0,7.3,0,7.3h-4.5s0-13.9,0-13.9h4.5s0,4.6,0,4.6l1.6-1.2h3.5s1.9,1.9,1.9,1.9v8.7Zm0-11.1h-5.5s0-2.8,0-2.8h5.5s0,2.8,0,2.8Z"/>
      <path class="cls-1" d="m56.3,126.4l-2.1,1.8h-7.2s-2.1-1.8-2.1-1.8v-4.8s1.5-1.3,1.5-1.3l-1.5-1.3v-2.9s1.7-1.7,1.7-1.7h4.1s0,2.6,0,2.6h-1.2s0,1.8,0,1.8h2.4s0-4.4,0-4.4h4.5s0,12,0,12Zm-4.5-1.1v-3.5s-2.4,0-2.4,0v3.6s2.4,0,2.4,0Z"/>
      <path class="cls-1" d="m56.3,134h-4.5s0-2.3,0-2.3h-1.3s0-2.4,0-2.4h5.8s0,4.7,0,4.7Z"/>
      <path class="cls-1" d="m69.2,128.3h-4.5s0-11,0-11h-2.4s0,8.3,0,8.3h1.2s0,2.6,0,2.6h-4.1s-1.7-1.7-1.7-1.7v-10.4s2.2-1.8,2.2-1.8h7.2s2.2,1.8,2.2,1.8v12.1Z"/>
      <path class="cls-1" d="m85.5,126.7l-3.8,2-3.7-1.6-3.7,1.6-3.8-2v-12.2s4.3,0,4.3,0v10.6s1.5,0,1.5,0v-10.6s3.5,0,3.5,0v10.6s1.5,0,1.5,0v-10.6s4.3,0,4.3,0v12.2Z"/>
      <path class="cls-1" d="m98.4,128.4h-4.5s0-1.3,0-1.3l-1.6,1.3h-3.5s-1.9-1.9-1.9-1.9v-12s4.6,0,4.6,0v10.6s2.4,0,2.4,0v-10.6s4.5,0,4.5,0v13.9Z"/>
      <polygon class="cls-1" points="101.3 113 92.7 113.1 90.9 111.7 90.9 109.4 95.4 109.4 95.4 110.8 101.3 110.8 101.3 113"/>
      <path class="cls-1" d="m111.3,128.4h-4.5s0-1.3,0-1.3l-1.6,1.3h-3.5s-1.9-1.9-1.9-1.9v-12s4.5,0,4.5,0v10.6s2.4,0,2.4,0v-10.6s4.5,0,4.5,0v13.9Z"/>
    </g>
    <g>
      <g>
        <path class="cls-3" d="m58.5,134.2l-.6-.7v-3.3s.6-.7.6-.7h1s.6.7.6.7v1s-.8,0-.8,0v-.9s-.4,0-.4,0v2.9s.4,0,.4,0v-.7s-.2,0-.2,0v-.9s1.1,0,1.1,0v1.7s-.6.7-.6.7h-1Z"/>
        <path class="cls-3" d="m62.2,133.3h-.5s0,.8,0,.8h-.8s.5-4.6.5-4.6h1.3s.5,4.6.5,4.6h-.8s-.1-.8-.1-.8Zm-.3-2.8v1.9c-.1,0,.2,0,.2,0l-.2-1.9h0Z"/>
        <path class="cls-3" d="m65.8,131.3h0s-.4,2.9-.4,2.9h-.3s-.4-2.9-.4-2.9h0s0,2.9,0,2.9h-.8s0-4.6,0-4.6h1s.3,2.2.3,2.2h0s.3-2.2.3-2.2h1s0,4.6,0,4.6h-.8s0-2.9,0-2.9Z"/>
        <path class="cls-3" d="m67.6,134.2v-4.6s1.5,0,1.5,0l.5.6v1.2s-.4.5-.4.5l.5.5v1.2s-.6.7-.6.7h-1.5Zm.9-3.7v1s.4,0,.4,0v-1s-.4,0-.4,0Zm0,1.9v1s.4,0,.4,0v-1s-.4,0-.4,0Z"/>
        <path class="cls-3" d="m70.7,129.6h.9s0,3.7,0,3.7h.8s0,.9,0,.9h-1.6s0-4.6,0-4.6Z"/>
        <path class="cls-3" d="m73.3,129.6h.8s0,4.6,0,4.6h-.8s0-4.6,0-4.6Z"/>
        <path class="cls-3" d="m76,131.9v2.2s-.8,0-.8,0v-4.6s.7,0,.7,0l.6,2.2v-2.2s.8,0,.8,0v4.6s-.7,0-.7,0l-.5-2.2Z"/>
        <path class="cls-3" d="m78.9,134.2l-.6-.7v-3.3s.6-.7.6-.7h1s.6.7.6.7v1s-.8,0-.8,0v-.9s-.4,0-.4,0v2.9s.4,0,.4,0v-.7s-.2,0-.2,0v-.9s1.1,0,1.1,0v1.7s-.6.7-.6.7h-.9Z"/>
        <path class="cls-3" d="m84.5,131.3h.6s0,.9,0,.9h-.7s0,2,0,2h-.9s0-4.6,0-4.6h1.7s0,.9,0,.9h-.8s0,.9,0,.9Z"/>
        <path class="cls-3" d="m86.7,134.2l-.6-.7v-3.3s.6-.7.6-.7h.9s.6.7.6.7v3.3s-.6.7-.6.7h-.9Zm.3-3.7v2.9s.4,0,.4,0v-2.9s-.4,0-.4,0Z"/>
        <path class="cls-3" d="m89.9,134.2l-.6-.7v-3.9s.8,0,.8,0v3.8s.4,0,.4,0v-3.8s.9,0,.9,0v3.9s-.6.7-.6.7h-.9Z"/>
        <path class="cls-3" d="m93.2,132v2.2s-.8,0-.8,0v-4.6s.7,0,.7,0l.6,2.2v-2.2s.8,0,.8,0v4.6s-.7,0-.7,0l-.6-2.2Z"/>
        <path class="cls-3" d="m95.6,134.2v-4.6s1.5,0,1.5,0l.6.7v3.3s-.5.7-.5.7h-1.5Zm.9-3.7v2.9s.3,0,.3,0v-2.9s-.3,0-.3,0Z"/>
        <path class="cls-3" d="m99.8,133.4h-.5s0,.8,0,.8h-.9s.5-4.6.5-4.6h1.2s.5,4.6.5,4.6h-.8s0-.8,0-.8Zm-.3-2.8v1.9c-.1,0,.2,0,.2,0l-.2-1.9h0Z"/>
        <path class="cls-3" d="m102.6,134.2h-.8s0-3.7,0-3.7h-.5s0-.9,0-.9h1.8v.9s-.5,0-.5,0v3.8Z"/>
        <path class="cls-3" d="m104,129.6h.9s0,4.6,0,4.6h-.9s0-4.6,0-4.6Z"/>
        <path class="cls-3" d="m106.5,134.2l-.6-.7v-3.3s.6-.7.6-.7h.9s.6.7.6.7v3.3s-.5.7-.5.7h-1Zm.3-3.8v2.9s.4,0,.4,0v-2.9s-.4,0-.4,0Z"/>
        <path class="cls-3" d="m109.9,132v2.3s-.8,0-.8,0v-4.6s.7,0,.7,0l.6,2.2v-2.2s.8,0,.8,0v4.6s-.7,0-.7,0l-.6-2.3Z"/>
      </g>
      <g>
        <path class="cls-3" d="m39,134.2l-.6-.7v-.8s.9,0,.9,0v.6s.4,0,.4,0v-1s-.6,0-.6,0l-.6-.7v-1.4s.6-.7.6-.7h.9s.6.7.6.7v.8s-.8,0-.8,0v-.6s-.4,0-.4,0v.9s.6,0,.6,0l.6.7v1.4s-.6.7-.6.7h-1Z"/>
        <path class="cls-3" d="m42.6,134.1h-.8s0-3.7,0-3.7h-.5s0-.9,0-.9h1.8s0,.9,0,.9h-.5s0,3.7,0,3.7Z"/>
        <path class="cls-3" d="m44.5,134.2l-.5-.7v-3.3s.6-.7.6-.7h.9s.6.7.6.7v3.3s-.6.7-.6.7h-1Zm.3-3.7v2.9s.4,0,.4,0v-2.9s-.4,0-.4,0Z"/>
        <path class="cls-3" d="m48,132.6v1.6s-.9,0-.9,0v-4.6s1.4,0,1.4,0l.6.7v1.7s-.6.7-.6.7h-.6Zm0-2.2v1.3s.3,0,.3,0v-1.3s-.3,0-.3,0Z"/>
      </g>
    </g>
    <g>
      <path class="cls-3" d="m56.5,112.9l-.4.4h-1.6s-.5-.4-.5-.4v-.3s-.3,0-.3,0v-.7s1.3,0,1.3,0v.8s.3,0,.3,0v-.8s1.2,0,1.2,0v1Z"/>
      <g>
        <g>
          <path class="cls-3" d="m56.5,111l-.6.6h-1s-.5-.4-.5-.4v.4s-1.4,0-1.4,0v-4.2s1.4,0,1.4,0v3.2s.7,0,.7,0v-3.2s1.4,0,1.4,0v3.6Z"/>
          <path class="cls-3" d="m60.4,111.6h-1.4s0-1.9,0-1.9h-.7s0,1.1,0,1.1h.4s0,.8,0,.8h-1.2s-.5-.5-.5-.5v-1.7s.5-.5.5-.5h1.5s0-.5,0-.5h-.7s0,.3,0,.3h-1.4s0-.6,0-.6l.6-.5h2.1s.7.5.7.5v3.6Z"/>
          <path class="cls-3" d="m64.3,111.6h-1.4s0-.4,0-.4l-.5.4h-1s-.6-.6-.6-.6v-3.6s1.4,0,1.4,0v3.2s.7,0,.7,0v-3.2s1.4,0,1.4,0v4.2Z"/>
          <path class="cls-3" d="m64.3,107h-3.3s0-.7,0-.7h3.3s0,.7,0,.7Z"/>
          <path class="cls-3" d="m68,111l-.7.6h-2s-.6-.6-.6-.6v-1.2s1.4,0,1.4,0v.9s.6,0,.6,0v-.8s-2-.6-2-.6v-1.3s.7-.6.7-.6h2.1s.6.6.6.6v.6s-1.4,0-1.4,0v-.3s-.6,0-.6,0v.3s2,.7,2,.7v1.8Z"/>
          <path class="cls-3" d="m68.1,107h-3.2s0-.7,0-.7h3.2s0,.7,0,.7Z"/>
          <path class="cls-3" d="m71.7,111l-.7.6h-2s-.7-.6-.7-.6v-.7s1.4,0,1.4,0v.4s.5,0,.5,0v-.5s-1.9-.9-1.9-.9v-1.3s.7-.6.7-.6h2s.7.5.7.5v.7s-1.4,0-1.4,0v-.3s-.5,0-.5,0v.4s1.9.9,1.9.9v1.5Z"/>
          <path class="cls-3" d="m77.5,111.6h-1.4s0-.4,0-.4l-.4.4h-1s-.5-.6-.5-.6v-2.7s-.7,0-.7,0v2.5s.4,0,.4,0v.8s-1.2,0-1.2,0l-.5-.5v-2s.6-.6.6-.6h-.6s0-.6,0-.6l.7-.5h2.2s.6.5.6.5v2.6s.6,0,.6,0v-3.2s1.4,0,1.4,0v4.2Z"/>
          <path class="cls-3" d="m81.1,111l-.6.6h-1.9s-.6-.6-.6-.6v-.7s1.4,0,1.4,0v.4s.5,0,.5,0v-.5s-1.9-.9-1.9-.9v-1.3s.6-.6.6-.6h2s.6.6.6.6v.7s-1.4,0-1.4,0v-.3s-.5,0-.5,0v.4s1.9.9,1.9.9v1.5Z"/>
          <path class="cls-3" d="m84.7,111l-.6.6h-2s-.6-.6-.6-.6v-2.9s1.4,0,1.4,0v2.5s.5,0,.5,0v-2.5s-.3,0-.3,0v-.8s1.2,0,1.2,0l.5.5v3.1Z"/>
          <path class="cls-3" d="m88.6,111.6h-1.4s0-3.3,0-3.3h-.7s0,.7,0,.7h.4s0,1.1,0,1.1h-.4s0,1.5,0,1.5h-1.4s0-3.7,0-3.7l.6-.5h2.2s.6.5.6.5v3.6Z"/>
          <path class="cls-3" d="m88.8,106.7h-.5s0,.3,0,.3h-1.2s0-.5,0-.5l.5-.4h1.2s0,.5,0,.5Z"/>
        </g>
        <path class="cls-4" d="m88.5,102.4c.2.3.8.8.5,1.2-.2-.3-.3-.6-.5-.8-.2.2-.4.5-.5.8-.1,0,0-.1-.2-.1.1-.4.4-.7.6-1.1Z"/>
        <path class="cls-4" d="m86.7,102.9c.9.2,1.6.7,1.8,1.7.3-.9.9-1.5,1.9-1.7,0,.4.2,1.2-.3,1.2,0-.3,0-.6,0-1-1,.3-1.7,1-1.7,2.3,0,0,0,0,0,0,0-1.4-.7-2-1.6-2.4-.1.3,0,.7,0,1-.4-.1-.3-.8-.2-1.2Z"/>
        <path class="cls-4" d="m86,104.3c.4.9,1.2,1.3,2.3,1.5-.2,0,.3,0,0,0-1.5,0-2.3-.7-2.7-1.8,1.6-.1,2.5.7,2.8,1.6-.5-.8-1.2-1.3-2.5-1.3Z"/>
        <path class="cls-4" d="m91.5,104.1c-.4,1-1.4,1.9-2.8,1.7,1.2,0,1.9-.6,2.4-1.5-1.2,0-2,.6-2.5,1.3,0,0,0,0,0,0,.5-1,1.3-1.7,2.9-1.5Z"/>
      </g>
    </g>
    <path class="cls-1" d="m76,88.7s5.7-29.6,40.5-33.8c0,0-.9,26.6-39.3,38.9,0,0,15.3-7.2,13.2-14.7-2.1-7.5-14.4,9.6-14.4,9.6Z"/>
    <path class="cls-1" d="m78.3,95.8s20-10.6,34.1-13.6c14.1-2.9,29,8.3,29,8.3,0,0-6.6,2.9-15.1,9.7-8.5,6.7-18.5,10.1-34.8,2,0,0,25.9-.3,26.1-8.6.2-8.2-28.2-1-39.3,2.3Z"/>
    <path class="cls-1" d="m70.4,87.7s-6.1-28.6-40.8-32.8c0,0,.9,26.6,39.2,39,0,0-15.3-7.2-13.2-14.7,2.1-7.5,14.8,8.6,14.8,8.6Z"/>
    <path class="cls-1" d="m68,96s-19.6-10.9-33.3-13.5c-13.7-2.6-27.9,10.3-27.9,10.3,0,0,6.4,3,14.8,10,8.4,7.1,18.1,10.3,33.7.8,0,0-25.1.7-25.5-8.4-.4-9.1,27.3-2.2,38.2.9Z"/>
    <path class="cls-1" d="m85.8,65.2c2.9-3.2,6.1-13.1-.7-24.5-6.8-11.4-11.9-27.3-11.9-34.6,0,0-2,18.9-7.6,27.8-5.6,8.8-14.4,17.4-3.1,34.4,11.4,16.9,8.7,17.9,8.7,17.9,0,0,1.9-8.5-4.7-16.9-4.7-6-7.3-14.4.3-21,7.6-6.6,14.7,1,15.7,6.1,1,5.1-.8,8.4-3.6,13.6,0,0-2.5,7.3-2.5,11.6,0,0,4.6-9.1,9.4-14.4Z"/>
    <path class="cls-4" d="m72.2,3C33.8,4,3,35.5,2.9,74.1c0,6.1.8,12.1,2.2,17.7,3.7-4.2,15-14.8,32.8-11.4,0,0-10.4-11.2-10.8-28.4,0,0,13.1-1.7,29,10.1,0,0-4.4-9.3-.8-17.2,3.4-7.5,14.4-21.1,16.8-41.8Zm2.1,0c-.3,0-.7,0-1,0,1,5.6,3.4,16,8,24.8,6.6,12.9,13.6,25.2,9.5,33,0,0,15.5-8.3,27.5-8.3,0,0,.7,15.4-11.2,27.5,0,0,15.4-7.1,36.8,9.9,1.1-5,1.7-10.2,1.7-15.5,0-39.4-31.8-71.3-71.2-71.3Z"/>
  </g>
</svg>