<?xml version="1.0" encoding="UTF-8"?>
<svg xmlns="http://www.w3.org/2000/svg" xmlns:xlink="http://www.w3.org/1999/xlink" viewBox="0 0 600 450">
  <defs>
    <style>
      .cls-1 {
        fill: none;
      }

      .cls-2 {
        fill: url(#linear-gradient);
        opacity: .5;
      }

      .cls-3 {
        clip-path: url(#clippath);
      }

      .cls-4 {
        fill: #f9ac1c;
      }

      .cls-5 {
        fill: #eb5627;
      }

      .cls-6 {
        fill: #fff;
      }

      .cls-7 {
        fill: #ee6825;
      }

      .cls-8 {
        fill: #cfd7e3;
      }

      .cls-9 {
        fill: #4275b6;
      }

      .cls-10 {
        fill: #1b6835;
      }

      .cls-11 {
        fill: #959595;
      }

      .cls-12 {
        fill: #5ab947;
      }

      .cls-13 {
        fill: #493518;
      }

      .cls-14 {
        fill: #3b54a1;
      }

      .cls-15 {
        fill: #24a6df;
      }

      .cls-16 {
        fill: #b5c4a8;
      }

      .cls-16, .cls-17, .cls-18 {
        mix-blend-mode: multiply;
      }

      .cls-19 {
        filter: url(#drop-shadow-1);
      }

      .cls-18 {
        fill: url(#linear-gradient-2);
        opacity: .6;
      }

      .cls-20 {
        fill: url(#radial-gradient-2);
      }

      .cls-21 {
        opacity: .5;
      }

      .cls-22 {
        fill: url(#radial-gradient);
      }

      .cls-23 {
        isolation: isolate;
      }
    </style>
    <linearGradient id="linear-gradient" x1="-299" y1="812" x2="734.4" y2="-54.3" gradientUnits="userSpaceOnUse">
      <stop offset="0" stop-color="#c2df5c"/>
      <stop offset="1" stop-color="#439d31"/>
    </linearGradient>
    <clipPath id="clippath">
      <rect class="cls-1" x="-3.7" y="-145.3" width="652" height="898.6"/>
    </clipPath>
    <linearGradient id="linear-gradient-2" x1="26.3" y1="693.3" x2="584.9" y2="-47.8" gradientUnits="userSpaceOnUse">
      <stop offset="0" stop-color="#b5c4a8" stop-opacity=".2"/>
      <stop offset="1" stop-color="#b5c4a8"/>
    </linearGradient>
    <radialGradient id="radial-gradient" cx="226.5" cy="117.7" fx="226.5" fy="117.7" r="101.1" gradientTransform="translate(377.2 -155.4) rotate(82.9)" gradientUnits="userSpaceOnUse">
      <stop offset="0" stop-color="#fff"/>
      <stop offset=".4" stop-color="#fff"/>
      <stop offset=".5" stop-color="#eff0f2"/>
      <stop offset=".8" stop-color="#c6cbd3"/>
      <stop offset="1" stop-color="#a1aab7"/>
    </radialGradient>
    <radialGradient id="radial-gradient-2" cx="231.4" cy="120.5" fx="231.4" fy="120.5" r="99.9" gradientUnits="userSpaceOnUse">
      <stop offset="0" stop-color="#6b6b6b"/>
      <stop offset=".5" stop-color="#3d3d3d"/>
      <stop offset="1" stop-color="#242424"/>
    </radialGradient>
    <filter id="drop-shadow-1" filterUnits="userSpaceOnUse">
      <feOffset dx="1" dy="1"/>
      <feGaussianBlur result="blur" stdDeviation="1"/>
      <feFlood flood-color="#231f20" flood-opacity=".4"/>
      <feComposite in2="blur" operator="in"/>
      <feComposite in="SourceGraphic"/>
    </filter>
  </defs>
  <g class="cls-23">
    <g id="Layer_1" data-name="Layer 1">
      <rect class="cls-2" x="-29.7" y="-136.3" width="652" height="898.6"/>
      <g class="cls-3">
        <g class="cls-21">
          <path class="cls-18" d="m251.9,791.8l-315.9-182.4v-96l482.2,278.4h-166.3ZM-64,345.2l772.6,446.1v-96L-64,249.2v96Zm0-535.2v73.1l772.6,446.1v-96L-24.3-190h-39.7Zm331.1,0l441.5,254.9V-31.1l-275.2-158.9h-166.3ZM-64,80.9l772.6,446.1v-96L-64-15.1v96Z"/>
          <path class="cls-6" d="m502.8,92.6c-97.6-56.4-254.4-57.8-354.5-4.3L-64-34.3v17.5l197.2,113.9c-92,58.1-89.1,148.9,8.6,205.3,97.6,56.4,254.4,57.8,354.5,4.3l212.4,122.6v-17.5l-197.2-113.9c92.1-58.1,89.1-148.9-8.5-205.3Zm-345.9,201c-89.3-51.5-92.2-134.5-8.5-187.7l332.6,192c-91.7,48.7-234.9,47.2-324.2-4.3Zm339.3-4.5L163.5,97.1c91.7-48.7,234.9-47.3,324.1,4.3,89.3,51.5,92.2,134.5,8.5,187.7Z"/>
          <polygon class="cls-16" points="-64 -189.3 -64 -116.2 708.6 329.9 708.6 -189.3 -64 -189.3"/>
          <path class="cls-16" d="m386.7,173.6c0,18-34.9,33.4-78.1,34.3-43.1.9-78.1-12.9-78.1-31s34.9-33.4,78.1-34.3c43.1-.9,78.1,12.9,78.1,31Z"/>
          <g>
            <circle class="cls-22" cx="276.6" cy="135.9" r="63.7" transform="translate(107.4 393.6) rotate(-82.9)"/>
            <g class="cls-17">
              <path class="cls-8" d="m310.2,184.7l-1.8-2.7-.3.2,1.7,2.7c0,0,.7,1.4,3.6,3.1.1,0,.2-.2.3-.2-2.9-1.7-3.6-3-3.6-3Z"/>
              <path class="cls-8" d="m336.9,144.1l2-2-2.3-21-2.8-5.4h0c-6.1-7.5-17.6-13.6-17.8-13.7h0s-14.8,3.6-14.8,3.6c-.2,0-4.8,1.9-2.4,12.5,2.4,10.2,3.1,29.6,3.1,30.7l-9.2,19.6c-.7.2-6,1.4-16.2-1.2-10.6-2.7-27.6-12.3-28.5-12.9l-9-14.6,6.3-16.6c7.1-7.7,24.8-18,25-18.1l12.3-18h0c0-.2-.9-1-10.2-4.8-9.5-3.8-20.4-3.6-20.5-3.6h0s-4.9,1.7-11,5.3c-6.1,3.7-11.8,10.6-11.9,10.7h0v.9c-.2.6-3.4,8.2-4.3,21.3h0s.4,1.9.4,1.9h.4c0,0-.4-1.9-.4-1.9,1-13.4,4.3-21.1,4.3-21.2v-.8c.5-.6,5.9-7.1,11.7-10.5,5.9-3.5,10.5-5.1,10.9-5.3.6,0,11.2-.2,20.3,3.5,7.7,3.1,9.5,4.2,9.9,4.5l-12.1,17.6c-.9.5-18.1,10.6-25.1,18.1l-6.4,16.8,9.1,14.8h0c.2.1,17.7,10.2,28.7,13,11,2.8,16.2,1.3,16.5,1.2h0s9.3-19.9,9.3-19.9h0c0-.2-.7-20.4-3.1-30.9-2.4-10.2,2.1-12.1,2.1-12.1l14.7-3.6c.9.5,11.8,6.4,17.6,13.5l2.7,5.3,2.2,20.7-1.9,1.9h0c0,.2-5.6,11.4-14.6,17-9,5.5-13.7,6-13.8,6h0s-24.3,21-24.3,21l-1.2,1.1c-.1,0-11,6.6-19,7.5-.5,0-8.5-1.4-13.1-3.5-4.7-2.2-12.3-8.5-12.4-8.5,0,0-6.4-7.1-8.5-20-2.1-13-2.6-15.7-2.6-15.7h0c0,0-10.7-7.2-10.7-7.2h0s-1.1.1-3.1.1c0,.1,0,.2,0,.4,1.8,0,2.8,0,3.1-.1l10.4,7c0,.5.6,3.9,2.5,15.7,2.1,13,8.5,20.1,8.6,20.2,0,0,7.7,6.4,12.5,8.6,4.8,2.2,13.2,3.5,13.3,3.5h0s0,0,0,0c8.2-.9,19.1-7.5,19.3-7.6l1.2-1.1,24.2-20.9c.6,0,5.2-.7,13.9-6,8.9-5.4,14.4-16.4,14.7-17Z"/>
              <path class="cls-8" d="m297.1,85.9l2.3-4.3s1-1.8,2.8-4.1c-.1,0-.2-.1-.4-.2-1.8,2.2-2.8,4-2.8,4l-2.3,4.3.3.2Z"/>
            </g>
            <path class="cls-20" d="m229.1,95.8c-1.1.3-2,.6-2.8.9,7.2-9.2,16.8-16.4,28-20.5-.9,1-1.8,2.1-2.4,2.9-4.4,1.7-16.4,9-22.8,16.7Zm73.1,53.1s-22.6,15.2-25.6,18.6c0,0,1.6,14.2,6.1,21.5,16.3,1.7,27.3-4.2,27.3-4.2,5.1-5.1,10.8-14.3,12.1-23.8-8.9-8.3-19.9-12-19.9-12Zm31.6-33.1c1.3,5.1,3.8,15.1,3,28.1.4,1.2,1.3,3.1,2.2,5.1.9-4.2,1.4-8.6,1.4-13.1,0-9.2-1.9-17.9-5.4-25.8-.2,1.7-.6,3.8-1.1,5.7Zm-17.7-13.6c-3.1-8.9-12.1-17.3-16.9-20.7-8.4-1.5-16.1-1.6-26.9,1.1,0,0-4.1,9.8-2.1,22.4,11.6,6.6,28.8,13.1,28.8,13.1,0,0,12.1-7.7,17-15.9Zm-52.2,94.4c-12-3-19.5-7.7-25.9-12.1-1-.1-2-.2-3-.4,9,7.8,20.1,13.1,32.4,14.9-1.2-.7-2.4-1.5-3.5-2.4Zm-34.4-32.2c8.6-2.1,14.3-5.7,18.6-9.7-.6-9.8-2.7-31.5-2.7-31.5,0,0-10.2-5.7-20.4-6.1,0,0-8.3,12.4-8.5,24.6,1.6,9,7.8,18.7,13.1,22.8Z"/>
          </g>
        </g>
      </g>
      <g id="_1" data-name="1" class="cls-19">
        <g>
          <g>
            <ellipse class="cls-6" cx="278.2" cy="170.2" rx="104" ry="104.2"/>
            <path class="cls-12" d="m230.6,77.4c3.6-1.8,8.1-3.8,13.5-5.7,6.6-2.3,11.9-3.5,13.5-3.8,5.2-1.1,14.8-2.7,26.7-2,9.7.5,17.2,2.3,20.8,3.3,8.6,2.3,15.3,5.3,19.8,7.6,6.3,3.2,11.3,6.6,15.1,9.5,5.9,4,10.2,7.9,13,10.9,5.5,5.6,8.8,10.7,12.2,16,2.7,4.1,5.3,8.2,8,14.1,2.9,6.3,4.5,12,5.5,16.2,1.8,6,2.7,11.2,3.2,15.3.2,1.6,1.1,9.4.2,19.8-.6,7.2-1.8,12.6-2.3,14.9-1.3,5.6-2.8,9.7-4.2,13.7,0,0-1.4,3.9-4,9.5-2.2,4.7-3.4,6.6-5.5,8-.8.5-2.7,1.8-5.3,1.8-4.2,0-6.9-3.8-8-5.1-3.1-3.9-3.8-8.8-3.7-16.6.2-9.1,2-15.3,3.7-22.2,2.9-11.8,4.9-19.9,5.6-29.2.7-9.1,1.5-19.8-3.4-32-4.5-11.2-11.4-18-13.2-19.7-11.6-10.9-24.9-13.2-28.5-13.8-2.6-.4-8.7-.3-21.1,0-13.8.3-14.8.7-22.3.6-7.8-.2-15.8-.3-23.6-2.7-3.8-1.2-9.5-3.5-15.7-8.3Z"/>
            <path class="cls-9" d="m228.4,78.6s6.2,8.7,18.5,10.7c12.4,2,43.2,1.7,43.2,1.7l3.7,20.8c0,2.9-.2,7.6-2.6,12.6-3.6,7.5-10,11.2-15.4,14.1-5.5,3.1-10,4.3-18.7,6.5-8.8,2.3-16.5,3.6-26.1,5.3-12,2.1-14.5,2.1-19.4,4.2-6.7,2.9-12,7-14.2,9.4-9.6,10.3-6.5,34.9,8.8,59.1-1.3.2-2.6.4-3.9.6-1.2.2-2.9.3-5,.2-2,0-3.6-.2-5.5-.9-.9-.3-3.2-1.2-5.1-3.3-1-1.1-1.6-2.4-2.7-5-2.1-4.7-3.1-7-3.2-7.1-.8-2-2-5.3-3.4-10.5-1.5-5.8-2.7-10.5-3.4-16.8-1-9.6-.2-16.9.3-21.1.4-3.4,1.7-12.9,6-24.4,6-16,14-26.5,16-29,2.1-2.6,8.8-10.9,19.9-19.1,4.6-3.4,8.8-6,12.1-7.8Z"/>
            <path class="cls-7" d="m189.8,225.4c.8,1.3,2,3.1,3.5,5.2,2,2.8,3.7,4.8,5.8,7.3,2.3,2.6,6.2,7.1,9.1,10,4.8,4.9,13.1,11.6,23,16.6,17.4,8.9,33.4,9.6,42.1,9.9,16.4.5,30.1-2.6,39.8-5.9-1.5,0-2.9-.1-4.4-.2,0,0-1.7-.5-4.6-1.9-5.9-2.9-9.9-6-11.7-7.4-9-7.4-15-13.3-22.5-19.6-7.8-6.5-11.7-9.8-16-11.8-4.6-2.1-15-7-26.3-4.4-4.3,1-8.9,3-17.6,4.1-2.9.3-4.8.4-6,.4-6,0-10.9-1.2-14.2-2.3Z"/>
            <path class="cls-11" d="m202.3,187.3c.5-1.5,1.4-3.7,3-6.1,4.3-6.2,10.4-8.8,13.5-10.1,8.7-3.7,20.8-9.6,36.3-16.9-8.4,1.9-15.3,3-19.9,3.7-8.7,1.2-15.1,1.6-22.8,5.3-3.2,1.5-5.9,3.3-8.1,6.2-.9,1.2-3.3,4.5-3.7,9.5-.2,3.9,1,7,1.7,8.4Z"/>
            <path class="cls-11" d="m319.3,99.8c2.6.7,6.3,1.9,10.2,4.4,5.5,3.4,8.7,7.3,11.3,10.5,2.8,3.4,6.3,7.9,8.5,14.8.8,2.6,1.8,6.5,1.8,11.2,0,1.7,0,3.3-2.1,13.3-1.9,9.5-3.2,14.6-4.8,24,0,.3,0,.4,0,.4,1-13.3.5-23.9-.2-31.2-.5-5.4-1.2-10.1-2.5-15.4-1.5-5.8-2.4-9.8-5.3-14.5-2.9-4.9-6.3-8.2-9.5-11.2-2.9-2.8-5.5-4.9-7.4-6.3Z"/>
            <path class="cls-11" d="m268.2,228.4c6.2.9,10.9,2.5,14.2,3.8,0,0,6.6,3,14.7,7.8,4.2,2.4,5.1,3.2,8.4,4.8,5.1,2.6,7.6,4,10.1,4.4,2.3.4,5.9,1,14.3-2.5,11.7-5,21.2-12.8,27-18.4-1.2,2.2-3.1,5.3-5.7,8.6-2.7,3.4-9.1,10.7-19.9,16.4-3.9,2-6.4,3.3-10.3,4.2-9.6,2.1-17.9-1.5-19.2-2.1-3.6-1.7-9-6.7-19.7-16.8-1-.9-3.3-3.1-6.6-5.5-3.1-2.2-5.7-3.8-7.4-4.7Z"/>
            <polygon class="cls-12" points="395 66.4 399 74.4 407.9 75.7 401.4 82 403 90.8 395 86.7 387.1 90.8 388.6 82 382.2 75.7 391.1 74.4 395 66.4"/>
            <polygon class="cls-7" points="407.9 236.3 411.8 244.4 420.7 245.7 414.3 251.9 415.8 260.7 407.9 256.6 399.9 260.7 401.4 251.9 395 245.7 403.9 244.4 407.9 236.3"/>
            <polygon class="cls-9" points="431.2 134 438.4 148.6 454.6 151 442.9 162.4 445.7 178.4 431.2 170.8 416.8 178.4 419.5 162.4 407.9 151 424 148.6 431.2 134"/>
          </g>
          <g id="Font">
            <g id="SDN">
              <g>
                <path class="cls-10" d="m138,332.6h-10.4l-6-4.5v-4.6h7.6v4.7h7.1v-9.6l-8.2-.5-6.5-4.6v-9.7l6-4.4h9.8l6.2,4.4v4.7h-7.2v-4.7h-7.1v9.3l8.3.6,6.4,4.5v9.8l-6,4.5Z"/>
                <path class="cls-10" d="m164.5,332.6h-16.4v-33.2h16.1l6.2,4.5v24.2l-5.9,4.5Zm-1.7-28.8h-7.1v24.3h7.1v-24.3Z"/>
                <path class="cls-10" d="m191,332.6l-9.1-18.6h-.2v18.6h-7v-33.2h6.2l9.1,18.4h.2v-18.4h6.9v33.2h-6.1Z"/>
              </g>
              <g>
                <path class="cls-12" d="m136.3,331.2h-10.4l-6-4.5v-4.6h7.6v4.7h7.1v-9.6l-8.2-.5-6.5-4.6v-9.7l6-4.4h9.8l6.2,4.4v4.7h-7.2v-4.7h-7.1v9.3l8.3.6,6.4,4.5v9.8l-6,4.5Z"/>
                <path class="cls-12" d="m162.9,331.2h-16.4v-33.2h16.1l6.2,4.5v24.2l-5.9,4.5Zm-1.7-28.8h-7.1v24.3h7.1v-24.3Z"/>
                <path class="cls-12" d="m189.4,331.2l-9.1-18.6h-.2v18.6h-7v-33.2h6.2l9.1,18.4h.2v-18.4h6.9v33.2h-6.1Z"/>
              </g>
            </g>
            <g id="Futsal">
              <g>
                <path class="cls-13" d="m214,303.7v8.9h6.9v4.4h-6.9v15.5h-6.7v-33.2h15.2v4.4h-8.5Z"/>
                <path class="cls-13" d="m238.5,332.6h-8.9l-5.1-4.5v-28.8h6.4v28.8h6.2v-28.8h6.4v28.8l-5,4.5Z"/>
                <path class="cls-13" d="m257.1,303.7v28.8h-6.5v-28.8h-5v-4.4h16.6v4.4h-5Z"/>
                <path class="cls-13" d="m277.8,332.6h-8.8l-5-4.5v-4.6h6.5v4.7h6v-9.6l-7-.5-5.5-4.6v-9.7l5-4.4h8.3l5.2,4.4v4.7h-6.1v-4.7h-6v9.4l7,.6,5.4,4.5v9.8l-5.1,4.5Z"/>
                <path class="cls-13" d="m298.6,332.6l-1.1-6.5h-6.7l-1,6.5h-6.2l5-33.2h10.7l5.4,33.2h-6.2Zm-3.9-28h-1l-2.2,17h5.7l-2.5-17Z"/>
                <path class="cls-13" d="m306.2,332.6v-33.2h6.6v28.8h8.3v4.4h-14.9Z"/>
              </g>
              <g>
                <path class="cls-4" d="m212.7,302.4v8.9h6.9v4.4h-6.9v15.5h-6.7v-33.2h15.2v4.4h-8.5Z"/>
                <path class="cls-4" d="m237.1,331.2h-8.9l-5.1-4.5v-28.8h6.4v28.8h6.2v-28.8h6.4v28.8l-5,4.5Z"/>
                <path class="cls-4" d="m255.8,302.4v28.8h-6.5v-28.8h-5v-4.4h16.6v4.4h-5Z"/>
                <path class="cls-4" d="m276.4,331.2h-8.8l-5-4.5v-4.6h6.5v4.7h6v-9.6l-7-.5-5.5-4.6v-9.7l5-4.4h8.3l5.2,4.4v4.7h-6.1v-4.7h-6v9.4l7,.6,5.4,4.5v9.8l-5.1,4.5Z"/>
                <path class="cls-4" d="m297.2,331.2l-1.1-6.5h-6.7l-1,6.5h-6.2l5-33.2h10.7l5.4,33.2h-6.2Zm-3.9-28h-1l-2.2,17h5.7l-2.5-17Z"/>
                <path class="cls-4" d="m304.8,331.2v-33.2h6.6v28.8h8.3v4.4h-14.9Z"/>
              </g>
            </g>
            <g id="No">
              <g>
                <path class="cls-13" d="m345.4,332.6l-7.7-18.6h-.2v18.6h-5.9v-33.2h5.2l7.7,18.4h.2v-18.4h5.8v33.2h-5.2Z"/>
                <path class="cls-13" d="m368.3,332.6h-8.8l-5.1-4.5v-24.3l5.1-4.4h8.5l5.2,4.5v24.3l-5,4.5Zm-1.4-28.8h-6v24.4h6v-24.4Z"/>
              </g>
              <g>
                <path class="cls-4" d="m344,331.2l-7.7-18.6h-.2v18.6h-5.9v-33.2h5.2l7.7,18.4h.2v-18.4h5.8v33.2h-5.2Z"/>
                <path class="cls-4" d="m366.9,331.2h-8.8l-5.1-4.5v-24.3l5.1-4.4h8.5l5.2,4.5v24.3l-5,4.5Zm-1.4-28.8h-6v24.4h6v-24.4Z"/>
              </g>
            </g>
            <g id="L">
              <path class="cls-13" d="m387.4,332.6v-33.2h6.6v28.8h8.3v4.4h-14.9Z"/>
              <path class="cls-4" d="m386,331.2v-33.2h6.6v28.8h8.3v4.4h-14.9Z"/>
            </g>
            <g id="Cup">
              <g>
                <path class="cls-13" d="m430.3,332.6h-8.1l-5.6-4.6v-24.3l5.1-4.4h8.6l5.1,4.4v6.9h-6.2v-6.9h-6.2v24.4h6.2v-8.5h6.2v8.4l-5.1,4.5Z"/>
                <path class="cls-13" d="m452.7,332.6h-8.9l-5.1-4.5v-28.8h6.4v28.8h6.2v-28.8h6.4v28.8l-5,4.5Z"/>
                <path class="cls-13" d="m474.7,320.5h-6.4v12.1h-6.5v-33.2h12.8l5.3,4.4v12.3l-5.3,4.4Zm-.8-16.7h-5.6v12.3h5.6v-12.3Z"/>
              </g>
              <g>
                <path class="cls-4" d="m429,331.2h-8.1l-5.6-4.6v-24.3l5.1-4.4h8.6l5.1,4.4v6.9h-6.2v-6.9h-6.2v24.4h6.2v-8.5h6.2v8.4l-5.1,4.5Z"/>
                <path class="cls-4" d="m451.3,331.2h-8.9l-5.1-4.5v-28.8h6.4v28.8h6.2v-28.8h6.4v28.8l-5,4.5Z"/>
                <path class="cls-4" d="m473.3,319.1h-6.4v12.1h-6.5v-33.2h12.8l5.3,4.4v12.3l-5.3,4.4Zm-.8-16.7h-5.6v12.3h5.6v-12.3Z"/>
              </g>
            </g>
          </g>
          <g id="Font_Logo" data-name="Font+Logo">
            <g id="INSPIRED_BY" data-name="INSPIRED BY">
              <g>
                <path class="cls-14" d="m120.8,384v-14.9h2.9v14.9h-2.9Z"/>
                <path class="cls-14" d="m131.6,384l-3.4-8.3h0v8.3h-2.6v-14.9h2.3l3.5,8.2h0v-8.2h2.6v14.9h-2.3Z"/>
                <path class="cls-14" d="m141.6,384h-3.9l-2.3-2v-2.1h2.9v2.1h2.7v-4.3l-3.1-.2-2.5-2v-4.3l2.3-2h3.7l2.3,2v2.1h-2.7v-2.1h-2.7v4.2l3.1.3,2.4,2v4.4l-2.3,2Z"/>
                <path class="cls-14" d="m151.3,378.6h-2.9v5.4h-2.9v-14.9h5.7l2.4,2v5.5l-2.4,2Zm-.3-7.5h-2.5v5.5h2.5v-5.5Z"/>
                <path class="cls-14" d="m154.9,384v-14.9h2.9v14.9h-2.9Z"/>
                <path class="cls-14" d="m165.2,384v-6.4h-2.7v6.4h-2.9v-14.9h6l2.4,2v3.7l-1.4,1.7,1.4,1.8v5.6h-2.8Zm0-12.9h-2.7v4.6h2.7v-4.6Z"/>
                <path class="cls-14" d="m169.7,384v-14.9h6.4v2h-3.4v4h2.9v2h-2.9v4.9h3.5v2h-6.5Z"/>
                <path class="cls-14" d="m183.7,384h-6.2v-14.9h6.1l2.3,2v10.9l-2.2,2Zm-.6-12.9h-2.7v10.9h2.7v-10.9Z"/>
                <path class="cls-14" d="m204.3,384h-6.1v-14.9h6.1l1.9,1.7v3.8l-1.5,1.8,1.9,1.8v3.8l-2.3,2Zm-.6-12.9h-2.7v4.4h2.7v-4.4Zm0,6.4h-2.7v4.6h2.7v-4.6Z"/>
                <path class="cls-14" d="m213.5,377.7v6.3h-2.9v-6.3s-3.2-8.6-3.2-8.6h2.9l1.8,5.7h.1l1.9-5.7h2.9l-3.3,8.6Z"/>
              </g>
              <g>
                <path class="cls-15" d="m120.2,382.8v-14.9h2.9v14.9h-2.9Z"/>
                <path class="cls-15" d="m131,382.8l-3.4-8.3h0v8.3h-2.6v-14.9h2.3l3.5,8.2h0v-8.2h2.6v14.9h-2.3Z"/>
                <path class="cls-15" d="m141,382.8h-3.9l-2.3-2v-2.1h2.9v2.1h2.7v-4.3l-3.1-.2-2.5-2v-4.3l2.3-2h3.7l2.3,2v2.1h-2.7v-2.1h-2.7v4.2l3.1.3,2.4,2v4.4l-2.3,2Z"/>
                <path class="cls-15" d="m150.7,377.4h-2.9v5.4h-2.9v-14.9h5.7l2.4,2v5.5l-2.4,2Zm-.3-7.5h-2.5v5.5h2.5v-5.5Z"/>
                <path class="cls-15" d="m154.2,382.8v-14.9h2.9v14.9h-2.9Z"/>
                <path class="cls-15" d="m164.6,382.8v-6.4h-2.7v6.4h-2.9v-14.9h6l2.4,2v3.7l-1.4,1.7,1.4,1.8v5.6h-2.8Zm0-12.9h-2.7v4.6h2.7v-4.6Z"/>
                <path class="cls-15" d="m169.1,382.8v-14.9h6.4v2h-3.4v4h2.9v2h-2.9v4.9h3.5v2h-6.5Z"/>
                <path class="cls-15" d="m183.1,382.8h-6.2v-14.9h6.1l2.3,2v10.9l-2.2,2Zm-.6-12.9h-2.7v10.9h2.7v-10.9Z"/>
                <path class="cls-15" d="m203.7,382.8h-6.1v-14.9h6.1l2,1.7v3.8l-1.5,1.8,1.9,1.8v3.8l-2.3,2Zm-.6-12.9h-2.7v4.4h2.7v-4.4Zm0,6.4h-2.7v4.6h2.7v-4.6Z"/>
                <path class="cls-15" d="m212.9,376.5v6.3h-2.9v-6.3s-3.2-8.6-3.2-8.6h2.9l1.8,5.7h.1l1.9-5.7h2.9l-3.3,8.6Z"/>
              </g>
            </g>
            <g>
              <g>
                <path class="cls-5" d="m480,338.2s-18.3,7-27.4,18.2c-9.1,11.2-1,19.5-1,19.5-4.6-15.4,11.2-27.3,28.5-37.7Z"/>
                <path class="cls-5" d="m456.5,381.4s-17.5-17.6,20.2-35.5c0,0-29,18.1-20.2,35.5Z"/>
                <path class="cls-5" d="m459.5,384.2s-11.1-13.6,9.3-26.7c0,0-13.6,12.1-9.3,26.7Z"/>
                <path class="cls-5" d="m446.2,367.4s-.8-2.3-.9-3.7c0-1.5-.2-3.3-1.2-4.6-1-1.3-2.4-2.1-4.4-2.2,0,0,1.8-2.4,4.2-2.4,2.3,0,3.1.9,3.9,1.3.8.4,1.5.6,1.5.6,0,0-1.7,1.8-2.4,4.2-.7,2.4-.8,4.3-.7,6.8Z"/>
              </g>
              <g>
                <path class="cls-5" d="m257.7,355.5h-9.9l-6.8,28h-9.1l6.9-28h-10l1.7-7h28.9l-1.7,7Z"/>
                <path class="cls-5" d="m279.5,383.5h-8.6l3.8-15.6c.3-1.2.3-2.1,0-2.8-.3-.6-.7-1.1-1.2-1.2-.6-.2-1.2-.2-2,0-.8.2-1.5.6-2.2,1.1-.7.5-1.4,1.2-2,1.9-.6.8-1,1.6-1.3,2.5l-3.4,14.1h-8.6l8.6-34.9h8.2l-3.1,12.7c1.8-1.5,3.7-2.5,5.8-3,2.1-.6,4-.6,5.7-.2,1.7.4,3,1.3,3.9,2.6.9,1.3,1.1,3.2.6,5.5l-4.3,17.4Z"/>
                <path class="cls-5" d="m312.4,374.1c0,.4-.2,1-.5,1.8-.2.8-.4,1.7-.6,2.5-.2.9-.3,1.7-.4,2.5,0,.8,0,1.3.2,1.6l.6,1h-8.9c-.4-.6-.5-1.3-.5-2.1-1.5,1.1-3,1.9-4.6,2.2-1.6.3-3.3.5-5,.5s-2.9-.2-4.1-.6c-1.1-.4-2-1-2.7-1.7-.7-.7-1.1-1.6-1.3-2.5-.2-.9-.2-2,.1-3.1.5-1.9,1.5-3.4,3.1-4.6,1.6-1.2,3.4-2.1,5.5-2.7,2.1-.6,4.2-1,6.4-1.2,2.2-.2,4.1-.3,5.8-.2l.3-1.4c.1-.5,0-1-.2-1.3-.3-.3-.6-.6-1-.8-.4-.2-.9-.3-1.5-.4-.6,0-1.1,0-1.5,0-2.8,0-4.8,1.2-5.9,3.5l-7.4-.9c.8-1.6,1.7-3,2.9-4.1,1.1-1.1,2.4-2,3.7-2.6,1.4-.6,2.8-1.1,4.4-1.3,1.6-.2,3.2-.3,5-.3,4.2,0,7.1.8,8.7,2.2,1.6,1.4,2.1,3.5,1.4,6.4l-1.9,7.7Zm-7.9-2.4c-.8,0-1.7,0-2.9.1-1.1.1-2.2.3-3.3.6-1.1.3-2.1.8-2.9,1.4-.9.6-1.4,1.3-1.6,2.3-.2.8.2,1.5,1,2,.9.5,1.9.7,3.2.5,1.2-.1,2.5-.7,3.7-1.5,1.2-.9,2-2.3,2.5-4.2l.3-1.2Z"/>
                <path class="cls-5" d="m323,383.5h-8.5l6.1-25h8.5l-6.1,25Zm6.8-27.7h-8.6l1.5-5.9h8.6l-1.5,5.9Z"/>
                <g>
                  <path class="cls-5" d="m373,361.4c-.5,1.8-1.3,3.3-2.3,4.5-1.1,1.2-2.2,2.2-3.6,3-1.3.8-2.7,1.3-4.2,1.7-1.5.3-2.9.5-4.3.5h-6.3l-3,12.3h-7.6l8.3-33.5h11.5c2,0,3.8.2,5.5.6,1.7.4,3.1,1,4.1,1.9,1.1.9,1.8,2.1,2.2,3.5.4,1.5.3,3.3-.3,5.5Zm-7.7-.8c.4-1.4.1-2.3-.7-2.9-.9-.6-1.9-.9-3.3-.9h-5.5l-1.8,7.6h5.8c1.4,0,2.5-.3,3.5-.9,1-.6,1.7-1.6,2-2.9Z"/>
                  <path class="cls-5" d="m402.6,358.1c-.2,1.9-.8,3.4-1.9,4.7-1.1,1.3-2.5,2.4-4.2,3.2,1.5.8,2.6,1.9,3.2,3.4.7,1.5.6,3.3,0,5.3-.6,1.8-1.5,3.2-2.5,4.4-1,1.1-2.2,2-3.5,2.6-1.3.6-2.6,1.1-4,1.3-1.4.2-2.8.4-4.2.4h-14.6l8.3-33.5h11.5c1.7,0,3.3,0,4.8.2,1.5.1,2.9.5,4,1,1.1.6,2,1.4,2.6,2.5.6,1.1.8,2.6.6,4.5Zm-10.5,15.1c.2-1.2,0-2.1-.8-2.7-.8-.6-1.8-.8-3.2-.8h-6.3l-1.8,7.3h6.2c1.5,0,2.8-.3,3.9-.9,1.1-.6,1.8-1.5,2-2.9Zm2.3-13.7c.2-1.2,0-2.1-.8-2.5-.8-.4-1.8-.6-3.1-.6h-5.5l-1.7,6.9h5.8c1.3,0,2.4-.3,3.4-.8,1-.6,1.6-1.6,1.8-3Z"/>
                  <path class="cls-5" d="m424.5,359.8c-.2-1.2-.7-2.2-1.3-2.8-.7-.6-1.7-.9-3.1-1-1,0-2,.1-2.8.6-.8.4-1.5.9-1.9,1.5-.4.6-.6,1.2-.5,1.8,0,.6.5,1.2,1.3,1.6.6.3,1.3.5,2,.7.7.2,1.4.3,2.1.5,1.3.3,2.5.7,3.8,1.1,1.3.4,2.3,1.1,3.3,1.8.9.8,1.5,1.8,1.9,3,.4,1.2.3,2.8-.2,4.6-.5,1.7-1.2,3.3-2.3,4.6-1.1,1.3-2.3,2.4-3.8,3.3-1.5.9-3.1,1.5-4.8,2-1.7.4-3.5.7-5.3.7s-3.1-.2-4.5-.6c-1.4-.4-2.5-.9-3.5-1.7-1-.8-1.7-1.8-2.3-3-.5-1.2-.8-2.7-.8-4.4l7.4-1.6c0,3.1,1.8,4.7,5.3,4.6,1.7,0,3.2-.3,4.4-.8,1.2-.5,2-1.4,2.3-2.7.2-.9,0-1.6-.8-2.1-.8-.5-1.8-.9-3-1.2-1.2-.3-2.6-.6-4-1-1.4-.3-2.7-.9-3.8-1.6-1.1-.7-2-1.7-2.5-3-.6-1.3-.6-3,0-5.2.4-1.6,1.1-3,2.1-4.2,1-1.2,2.1-2.3,3.5-3.1,1.3-.9,2.7-1.5,4.2-1.9,1.5-.4,3-.7,4.5-.7,3,0,5.4.6,7.2,2,1.8,1.4,2.8,3.5,3,6.4l-7.2,1.8Z"/>
                </g>
              </g>
            </g>
          </g>
        </g>
      </g>
    </g>
  </g>
</svg>